{
.appVersion = "3133";
customParameters = (
{
name = panose;
value = (
0,
0,
5,
0,
0,
0,
0,
0,
0,
0
);
},
{
name = fsType;
value = (
);
},
{
name = "GASP Table";
value = {
"65535" = 15;
};
},
{
name = "Use Typo Metrics";
value = 1;
},
{
name = glyphOrder;
value = (
.notdef,
space,
exclam,
parenleft,
parenright,
period,
slash,
bracketleft,
backslash,
bracketright,
braceleft,
bar,
braceright,
nbspace,
brokenbar,
guillemotleft,
guillemotright,
"number-ar",
"year-ar",
"footnotemarker-ar",
"pagenumber-ar",
"samvat-ar",
"cuberoot-ar",
"fourthroot-ar",
"ray-ar",
"perthousand-ar",
"pertenthousand-ar",
"afghani-ar",
"comma-ar",
"dateseparator-ar",
"verseComma-ar",
"misraComma-ar",
"sallallahouAlayheWassallamcomb-ar",
"alayheAssallamcomb-ar",
"rehHahabove-ar",
"rehDadabove-ar",
"takhallusabove-ar",
"tahabove-ar",
"alefLamYehabove-ar",
"zainabove-ar",
"fathasmall-ar",
"dammasmall-ar",
"kasrasmall-ar",
"semicolon-ar",
"mark-ar",
uni061D,
"threedots-ar",
"question-ar",
"yehKashmiri-ar",
"hamza-ar",
"alefMadda-ar",
"alefHamzaabove-ar",
"wawHamzaabove-ar",
"alefHamzabelow-ar",
"yehHamzaabove-ar",
"alef-ar",
"beh-ar",
"tehMarbuta-ar",
"teh-ar",
"theh-ar",
"jeem-ar",
"hah-ar",
"khah-ar",
"dal-ar",
"thal-ar",
"reh-ar",
"zain-ar",
"seen-ar",
"sheen-ar",
"sad-ar",
"dad-ar",
"tah-ar",
"zah-ar",
"ain-ar",
"ghain-ar",
"kehehTwodotshorizontalabove-ar",
"kehehThreedotsbelow-ar",
"yehFarsiVinverted-ar",
"yehFarsiTwodotsabove-ar",
"yehFarsiThreedotsabove-ar",
"kashida-ar",
"feh-ar",
"qaf-ar",
"kaf-ar",
"lam-ar",
"meem-ar",
"noon-ar",
"heh-ar",
"waw-ar",
"alefMaksura-ar",
"yeh-ar",
"fathatan-ar",
"dammatan-ar",
"kasratan-ar",
"fatha-ar",
"damma-ar",
"kasra-ar",
"shadda-ar",
"sukun-ar",
"madda-ar",
"hamzaabove-ar",
"hamzabelow-ar",
"alefbelow-ar",
"dammainverted-ar",
"noonghunnaabove-ar",
"fathaHorizont-ar",
"vabove-ar",
"vinvertedabove-ar",
"dotvowelbelow-ar",
"dammareversed-ar",
"fathatwodots-ar",
"wavyhamzabelow-ar",
"zero-ar",
"one-ar",
"two-ar",
"three-ar",
"four-ar",
"five-ar",

glyphs = (
{
glyphname = .notdef;
layers = (
{
layerId = "7FE84AD5-D318-40C5-A81A-3CDC73FF77D2";
paths = (
{
closed = 1;
nodes = (
"33 666 LINE",
"298 666 LINE",
"298 0 LINE",
"33 0 LINE"
);
},
{
closed = 1;
nodes = (
"265 33 LINE",
"265 633 LINE",
"66 633 LINE",
"66 33 LINE"
);
}
);
width = 364;
}
);
},
{
glyphname = exclam;
layers = (
{
components = (
{
name = dot.2;
transform = "{1, 0, 0, 1, -39, 0}";
}
);
layerId = "7FE84AD5-D318-40C5-A81A-3CDC73FF77D2";
paths = (
{
closed = 1;
nodes = (
"136 666 OFFCURVE",
"147 660 OFFCURVE",
"154 648 CURVE SMOOTH",
"161 636 OFFCURVE",
"165 623 OFFCURVE",
"165 609 CURVE SMOOTH",
"165 539 OFFCURVE",
"154 393 OFFCURVE",
"131 168 CURVE",
"127 160 OFFCURVE",
"122 156 OFFCURVE",
"115 155 CURVE",
"109 158 OFFCURVE",
"105 161 OFFCURVE",
"103 166 CURVE",
"83 391 OFFCURVE",
"73 538 OFFCURVE",
"73 609 CURVE SMOOTH",
"73 623 OFFCURVE",
"78 636 OFFCURVE",
"87 648 CURVE SMOOTH",
"96 660 OFFCURVE",
"108 666 OFFCURVE",
"122 666 CURVE SMOOTH"
);
}
);
width = 235;
}
);
unicode = 0021;
},
{
glyphname = parenleft;
layers = (
{
layerId = "7FE84AD5-D318-40C5-A81A-3CDC73FF77D2";
paths = (
{
closed = 1;
nodes = (
"220 47 OFFCURVE",
"241 -66 OFFCURVE",
"283 -173 CURVE SMOOTH",
"316 -256 OFFCURVE",
"360 -321 OFFCURVE",
"415 -369 CURVE",
"400 -386 LINE",
"297 -305 OFFCURVE",
"224 -199 OFFCURVE",
"182 -68 CURVE SMOOTH",
"158 6 OFFCURVE",
"146 84 OFFCURVE",
"146 166 CURVE SMOOTH",
"146 341 OFFCURVE",
"196 490 OFFCURVE",
"294 611 CURVE SMOOTH",
"326 650 OFFCURVE",
"361 686 OFFCURVE",
"400 717 CURVE",
"415 696 LINE",
"345 640 OFFCURVE",
"291 550 OFFCURVE",
"256 426 CURVE SMOOTH",
"232 342 OFFCURVE",
"220 255 OFFCURVE",
"220 166 CURVE SMOOTH"
);
}
);
width = 458;
}
);
unicode = 0028;
},
{
glyphname = parenright;
layers = (
{
layerId = "7FE84AD5-D318-40C5-A81A-3CDC73FF77D2";
paths = (
{
closed = 1;
nodes = (
"238 47 OFFCURVE",
"217 -66 OFFCURVE",
"175 -173 CURVE SMOOTH",
"142 -256 OFFCURVE",
"99 -321 OFFCURVE",
"44 -369 CURVE",
"58 -386 LINE",
"161 -305 OFFCURVE",
"234 -199 OFFCURVE",
"276 -68 CURVE SMOOTH",
"300 6 OFFCURVE",
"312 84 OFFCURVE",
"312 166 CURVE SMOOTH",
"312 341 OFFCURVE",
"263 490 OFFCURVE",
"165 611 CURVE SMOOTH",
"133 650 OFFCURVE",
"97 686 OFFCURVE",
"58 717 CURVE",
"44 696 LINE",
"114 640 OFFCURVE",
"167 550 OFFCURVE",
"202 426 CURVE SMOOTH",
"226 342 OFFCURVE",
"238 255 OFFCURVE",
"238 166 CURVE SMOOTH"
);
}
);
width = 458;
}
);
unicode = 0029;
},
{
glyphname = period;
layers = (
{
layerId = "7FE84AD5-D318-40C5-A81A-3CDC73FF77D2";
paths = (
{
closed = 1;
nodes = (
"125 221 OFFCURVE",
"134 222 OFFCURVE",
"148 212 CURVE SMOOTH",
"236 151 LINE SMOOTH",
"246 144 OFFCURVE",
"247 131 OFFCURVE",
"239 111 CURVE SMOOTH",
"200 18 LINE SMOOTH",
"193 1 OFFCURVE",
"180 -1 OFFCURVE",
"162 13 CURVE SMOOTH",
"87 70 LINE SMOOTH",
"74 80 OFFCURVE",
"70 90 OFFCURVE",
"75 101 CURVE SMOOTH",
"120 208 LINE SMOOTH"
);
}
);
width = 317;
}
);
unicode = 002E;
},
{
glyphname = slash;
layers = (
{
layerId = "7FE84AD5-D318-40C5-A81A-3CDC73FF77D2";
paths = (
{
closed = 1;
nodes = (
"309 702 OFFCURVE",
"312 699 OFFCURVE",
"314 693 CURVE",
"71 -164 LINE SMOOTH",
"70 -168 OFFCURVE",
"66 -172 OFFCURVE",
"58 -178 CURVE SMOOTH",
"51 -183 OFFCURVE",
"43 -186 OFFCURVE",
"33 -186 CURVE SMOOTH",
"29 -186 OFFCURVE",
"25 -185 OFFCURVE",
"22 -184 CURVE SMOOTH",
"19 -183 OFFCURVE",
"17 -182 OFFCURVE",
"16 -181 CURVE SMOOTH",
"15 -179 LINE",
"263 688 LINE SMOOTH",
"263 689 OFFCURVE",
"265 691 OFFCURVE",
"268 693 CURVE SMOOTH",
"271 695 OFFCURVE",
"276 697 OFFCURVE",
"282 699 CURVE SMOOTH",
"288 701 OFFCURVE",
"295 702 OFFCURVE",
"302 702 CURVE SMOOTH"
);
}
);
width = 344;
}
);
unicode = 002F;
},
{
glyphname = bracketleft;
layers = (
{
layerId = "7FE84AD5-D318-40C5-A81A-3CDC73FF77D2";
paths = (
{
closed = 1;
nodes = (
"314 716 LINE",
"317 710 LINE SMOOTH",
"317 709 OFFCURVE",
"317 708 OFFCURVE",
"317 707 CURVE SMOOTH",
"317 700 OFFCURVE",
"315 695 OFFCURVE",
"309 692 CURVE SMOOTH",
"308 692 OFFCURVE",
"308 691 OFFCURVE",
"308 691 CURVE SMOOTH",
"283 683 OFFCURVE",
"244 676 OFFCURVE",
"193 669 CURVE",
"193 -339 LINE",
"259 -349 LINE",
"280 -353 OFFCURVE",
"297 -357 OFFCURVE",
"308 -361 CURVE",
"315 -365 OFFCURVE",
"317 -370 OFFCURVE",
"317 -377 CURVE SMOOTH",
"317 -379 OFFCURVE",
"317 -381 OFFCURVE",
"316 -382 CURVE SMOOTH",
"315 -385 LINE SMOOTH",
"314 -386 LINE",
"227 -381 LINE",
"206 -380 OFFCURVE",
"185 -380 OFFCURVE",
"165 -380 CURVE",
"154 -379 OFFCURVE",
"148 -371 OFFCURVE",
"146 -357 CURVE",
"146 688 LINE SMOOTH",
"146 698 OFFCURVE",
"150 704 OFFCURVE",
"156 708 CURVE SMOOTH",
"159 710 OFFCURVE",
"161 710 OFFCURVE",
"165 710 CURVE SMOOTH"
);
}
);
width = 361;
}
);
unicode = 005B;
},
{
glyphname = backslash;
layers = (
{
layerId = "7FE84AD5-D318-40C5-A81A-3CDC73FF77D2";
paths = (
{
closed = 1;
nodes = (
"36 702 OFFCURVE",
"32 699 OFFCURVE",
"30 693 CURVE",
"274 -164 LINE SMOOTH",
"275 -168 OFFCURVE",
"279 -172 OFFCURVE",
"287 -178 CURVE SMOOTH",
"294 -183 OFFCURVE",
"302 -186 OFFCURVE",
"312 -186 CURVE SMOOTH",
"316 -186 OFFCURVE",
"320 -185 OFFCURVE",
"323 -184 CURVE SMOOTH",
"326 -183 OFFCURVE",
"327 -182 OFFCURVE",
"328 -181 CURVE SMOOTH",
"330 -179 LINE",
"82 688 LINE SMOOTH",
"82 689 OFFCURVE",
"80 691 OFFCURVE",
"77 693 CURVE SMOOTH",
"74 695 OFFCURVE",
"69 697 OFFCURVE",
"63 699 CURVE SMOOTH",
"57 701 OFFCURVE",
"50 702 OFFCURVE",
"43 702 CURVE SMOOTH"
);
}
);
width = 344;
}
);
unicode = 005C;
},
{
glyphname = bracketright;
layers = (
{
layerId = "7FE84AD5-D318-40C5-A81A-3CDC73FF77D2";
paths = (
{
closed = 1;
nodes = (
"47 716 LINE",
"44 710 LINE SMOOTH",
"44 709 OFFCURVE",
"44 708 OFFCURVE",
"44 707 CURVE SMOOTH",
"44 700 OFFCURVE",
"46 695 OFFCURVE",
"52 692 CURVE SMOOTH",
"53 692 OFFCURVE",
"54 691 OFFCURVE",
"54 691 CURVE SMOOTH",
"79 683 OFFCURVE",
"117 676 OFFCURVE",
"168 669 CURVE",
"168 -339 LINE",
"103 -349 LINE",
"82 -353 OFFCURVE",
"65 -357 OFFCURVE",
"54 -361 CURVE",
"47 -365 OFFCURVE",
"44 -370 OFFCURVE",
"44 -377 CURVE SMOOTH",
"44 -379 OFFCURVE",
"44 -381 OFFCURVE",
"45 -382 CURVE SMOOTH",
"46 -385 LINE SMOOTH",
"47 -386 LINE",
"135 -381 LINE",
"156 -380 OFFCURVE",
"176 -380 OFFCURVE",
"196 -380 CURVE",
"207 -379 OFFCURVE",
"213 -371 OFFCURVE",
"215 -357 CURVE",
"215 688 LINE SMOOTH",
"215 698 OFFCURVE",
"212 704 OFFCURVE",
"206 708 CURVE SMOOTH",
"203 710 OFFCURVE",
"200 710 OFFCURVE",
"196 710 CURVE SMOOTH"
);
}
);
width = 361;
}
);
unicode = 005D;
},
{
glyphname = braceleft;
layers = (
{
layerId = "7FE84AD5-D318-40C5-A81A-3CDC73FF77D2";
paths = (
{
closed = 1;
nodes = (
"187 -273 OFFCURVE",
"209 -321 OFFCURVE",
"254 -371 CURVE SMOOTH",
"260 -379 OFFCURVE",
"259 -387 OFFCURVE",
"252 -394 CURVE SMOOTH",
"245 -401 OFFCURVE",
"237 -402 OFFCURVE",
"229 -395 CURVE SMOOTH",
"177 -351 OFFCURVE",
"150 -286 OFFCURVE",
"149 -201 CURVE SMOOTH",
"148 -163 OFFCURVE",
"157 -117 OFFCURVE",
"177 -66 CURVE SMOOTH",
"195 -17 OFFCURVE",
"206 18 OFFCURVE",
"209 38 CURVE SMOOTH",
"215 83 OFFCURVE",
"193 119 OFFCURVE",
"142 150 CURVE",
"142 182 LINE",
"193 213 OFFCURVE",
"215 249 OFFCURVE",
"209 294 CURVE SMOOTH",
"206 315 OFFCURVE",
"195 349 OFFCURVE",
"177 398 CURVE SMOOTH",
"158 450 OFFCURVE",
"149 495 OFFCURVE",
"149 533 CURVE SMOOTH",
"151 618 OFFCURVE",
"177 682 OFFCURVE",
"229 726 CURVE SMOOTH",
"237 733 OFFCURVE",
"245 733 OFFCURVE",
"252 726 CURVE SMOOTH",
"259 718 OFFCURVE",
"259 710 OFFCURVE",
"253 702 CURVE SMOOTH",
"208 652 OFFCURVE",
"187 603 OFFCURVE",
"190 556 CURVE SMOOTH",
"192 530 OFFCURVE",
"202 502 OFFCURVE",
"221 470 CURVE SMOOTH",
"254 415 OFFCURVE",
"265 357 OFFCURVE",
"256 296 CURVE",
"247 237 OFFCURVE",
"222 194 OFFCURVE",
"182 166 CURVE",
"222 137 OFFCURVE",
"247 94 OFFCURVE",
"256 36 CURVE",
"265 -26 OFFCURVE",
"254 -83 OFFCURVE",
"221 -138 CURVE SMOOTH",
"202 -170 OFFCURVE",
"192 -199 OFFCURVE",
"190 -225 CURVE SMOOTH"
);
}
);
width = 397;
}
);
unicode = 007B;
},
{
glyphname = bar;
layers = (
{
layerId = "7FE84AD5-D318-40C5-A81A-3CDC73FF77D2";
paths = (
{
closed = 1;
nodes = (
"125 -375 OFFCURVE",
"111 -380 OFFCURVE",
"84 -385 CURVE SMOOTH",
"82 -385 OFFCURVE",
"82 -385 OFFCURVE",
"81 -385 CURVE SMOOTH",
"78 -385 OFFCURVE",
"75 -384 OFFCURVE",
"75 -382 CURVE SMOOTH",
"75 -382 OFFCURVE",
"75 -381 OFFCURVE",
"75 -380 CURVE SMOOTH",
"75 -379 OFFCURVE",
"76 -377 OFFCURVE",
"76 -377 CURVE SMOOTH",
"76 700 LINE",
"77 706 LINE",
"78 707 OFFCURVE",
"80 707 OFFCURVE",
"81 708 CURVE SMOOTH",
"96 713 OFFCURVE",
"108 715 OFFCURVE",
"117 715 CURVE",
"123 715 OFFCURVE",
"125 713 OFFCURVE",
"125 709 CURVE",
"125 -369 LINE SMOOTH"
);
}
);
width = 200;
}
);
unicode = 007C;
},
{
glyphname = braceright;
layers = (
{
layerId = "7FE84AD5-D318-40C5-A81A-3CDC73FF77D2";
paths = (
{
closed = 1;
nodes = (
"211 -273 OFFCURVE",
"189 -321 OFFCURVE",
"144 -371 CURVE SMOOTH",
"138 -379 OFFCURVE",
"138 -387 OFFCURVE",
"145 -394 CURVE SMOOTH",
"152 -401 OFFCURVE",
"160 -402 OFFCURVE",
"168 -395 CURVE SMOOTH",
"220 -351 OFFCURVE",
"248 -286 OFFCURVE",
"249 -201 CURVE SMOOTH",
"250 -163 OFFCURVE",
"240 -117 OFFCURVE",
"220 -66 CURVE SMOOTH",
"202 -17 OFFCURVE",
"191 18 OFFCURVE",
"188 38 CURVE SMOOTH",
"182 83 OFFCURVE",
"205 119 OFFCURVE",
"256 150 CURVE",
"256 182 LINE",
"205 213 OFFCURVE",
"182 249 OFFCURVE",
"188 294 CURVE SMOOTH",
"191 315 OFFCURVE",
"202 349 OFFCURVE",
"220 398 CURVE SMOOTH",
"239 450 OFFCURVE",
"249 495 OFFCURVE",
"249 533 CURVE SMOOTH",
"247 618 OFFCURVE",
"220 682 OFFCURVE",
"168 726 CURVE SMOOTH",
"160 733 OFFCURVE",
"152 733 OFFCURVE",
"145 726 CURVE SMOOTH",
"138 718 OFFCURVE",
"138 710 OFFCURVE",
"144 702 CURVE SMOOTH",
"189 652 OFFCURVE",
"211 603 OFFCURVE",
"208 556 CURVE SMOOTH",
"206 530 OFFCURVE",
"195 502 OFFCURVE",
"176 470 CURVE SMOOTH",
"143 415 OFFCURVE",
"133 357 OFFCURVE",
"142 296 CURVE",
"151 237 OFFCURVE",
"176 194 OFFCURVE",
"216 166 CURVE",
"176 137 OFFCURVE",
"151 94 OFFCURVE",
"142 36 CURVE",
"133 -26 OFFCURVE",
"143 -83 OFFCURVE",
"176 -138 CURVE SMOOTH",
"195 -170 OFFCURVE",
"206 -199 OFFCURVE",
"208 -225 CURVE SMOOTH"
);
}
);
width = 397;
}
);
unicode = 007D;
},
{
glyphname = brokenbar;
layers = (
{
layerId = "7FE84AD5-D318-40C5-A81A-3CDC73FF77D2";
paths = (
{
closed = 1;
nodes = (
"124 246 OFFCURVE",
"116 242 OFFCURVE",
"103 239 CURVE SMOOTH",
"90 236 OFFCURVE",
"82 234 OFFCURVE",
"78 234 CURVE SMOOTH",
"76 234 OFFCURVE",
"75 235 OFFCURVE",
"74 235 CURVE SMOOTH",
"73 235 OFFCURVE",
"73 237 OFFCURVE",
"73 237 CURVE SMOOTH",
"73 237 OFFCURVE",
"73 239 OFFCURVE",
"73 240 CURVE SMOOTH",
"73 241 OFFCURVE",
"73 242 OFFCURVE",
"73 242 CURVE SMOOTH",
"73 705 LINE",
"72 709 OFFCURVE",
"74 712 OFFCURVE",
"78 713 CURVE SMOOTH",
"89 716 OFFCURVE",
"102 718 OFFCURVE",
"116 718 CURVE SMOOTH",
"119 718 OFFCURVE",
"121 717 OFFCURVE",
"122 716 CURVE SMOOTH",
"123 715 OFFCURVE",
"124 714 OFFCURVE",
"124 713 CURVE SMOOTH",
"124 712 LINE",
"124 249 LINE"
);
},
{
closed = 1;
nodes = (
"73 102 LINE",
"72 106 OFFCURVE",
"74 108 OFFCURVE",
"78 109 CURVE SMOOTH",
"89 112 OFFCURVE",
"102 114 OFFCURVE",
"116 114 CURVE SMOOTH",
"119 114 OFFCURVE",
"121 114 OFFCURVE",
"122 113 CURVE SMOOTH",
"123 112 OFFCURVE",
"124 111 OFFCURVE",
"124 110 CURVE SMOOTH",
"124 108 LINE",
"124 -369 LINE",
"124 -372 OFFCURVE",
"116 -376 OFFCURVE",
"103 -379 CURVE SMOOTH",
"90 -382 OFFCURVE",
"82 -384 OFFCURVE",
"78 -384 CURVE SMOOTH",
"76 -384 OFFCURVE",
"75 -383 OFFCURVE",
"74 -383 CURVE SMOOTH",
"73 -383 OFFCURVE",
"73 -382 OFFCURVE",
"73 -382 CURVE SMOOTH",
"73 -382 OFFCURVE",
"73 -380 OFFCURVE",
"73 -379 CURVE SMOOTH",
"73 -378 OFFCURVE",
"73 -376 OFFCURVE",
"73 -376 CURVE SMOOTH"
);
}
);
width = 200;
}
);
unicode = 00A6;
},
{
glyphname = guillemotleft;
layers = (
{
layerId = "7FE84AD5-D318-40C5-A81A-3CDC73FF77D2";
paths = (
{
closed = 1;
nodes = (
"97 98 OFFCURVE",
"127 38 OFFCURVE",
"186 -13 CURVE SMOOTH",
"192 -18 OFFCURVE",
"192 -22 OFFCURVE",
"189 -28 CURVE SMOOTH",
"185 -34 OFFCURVE",
"180 -36 OFFCURVE",
"172 -32 CURVE SMOOTH",
"133 -12 OFFCURVE",
"104 15 OFFCURVE",
"82 51 CURVE SMOOTH",
"60 87 OFFCURVE",
"49 125 OFFCURVE",
"49 166 CURVE SMOOTH",
"49 207 OFFCURVE",
"60 246 OFFCURVE",
"82 281 CURVE SMOOTH",
"104 317 OFFCURVE",
"134 345 OFFCURVE",
"172 364 CURVE SMOOTH",
"180 368 OFFCURVE",
"186 366 OFFCURVE",
"189 360 CURVE SMOOTH",
"192 354 OFFCURVE",
"192 350 OFFCURVE",
"186 345 CURVE SMOOTH",
"127 298 OFFCURVE",
"97 238 OFFCURVE",
"97 166 CURVE SMOOTH"
);
},
{
closed = 1;
nodes = (
"272 98 OFFCURVE",
"302 38 OFFCURVE",
"361 -13 CURVE SMOOTH",
"367 -18 OFFCURVE",
"367 -22 OFFCURVE",
"364 -28 CURVE SMOOTH",
"360 -34 OFFCURVE",
"355 -36 OFFCURVE",
"347 -32 CURVE SMOOTH",
"308 -12 OFFCURVE",
"278 15 OFFCURVE",
"256 51 CURVE SMOOTH",
"234 87 OFFCURVE",
"224 125 OFFCURVE",
"224 166 CURVE SMOOTH",
"224 207 OFFCURVE",
"234 246 OFFCURVE",
"256 281 CURVE SMOOTH",
"278 317 OFFCURVE",
"309 345 OFFCURVE",
"347 364 CURVE SMOOTH",
"355 368 OFFCURVE",
"361 366 OFFCURVE",
"364 360 CURVE SMOOTH",
"367 354 OFFCURVE",
"367 350 OFFCURVE",
"361 345 CURVE SMOOTH",
"302 298 OFFCURVE",
"272 238 OFFCURVE",
"272 166 CURVE SMOOTH"
);
}
);
width = 415;
}
);
unicode = 00AB;
},
{
glyphname = guillemotright;
layers = (
{
layerId = "7FE84AD5-D318-40C5-A81A-3CDC73FF77D2";
paths = (
{
closed = 1;
nodes = (
"318 238 OFFCURVE",
"288 298 OFFCURVE",
"229 345 CURVE SMOOTH",
"223 350 OFFCURVE",
"223 354 OFFCURVE",
"226 360 CURVE SMOOTH",
"229 366 OFFCURVE",
"235 368 OFFCURVE",
"243 364 CURVE SMOOTH",
"281 345 OFFCURVE",
"311 317 OFFCURVE",
"333 281 CURVE SMOOTH",
"355 246 OFFCURVE",
"366 207 OFFCURVE",
"366 166 CURVE SMOOTH",
"366 125 OFFCURVE",
"355 87 OFFCURVE",
"333 51 CURVE SMOOTH",
"311 15 OFFCURVE",
"282 -12 OFFCURVE",
"243 -32 CURVE SMOOTH",
"235 -36 OFFCURVE",
"230 -34 OFFCURVE",
"226 -28 CURVE SMOOTH",
"223 -22 OFFCURVE",
"223 -18 OFFCURVE",
"229 -13 CURVE SMOOTH",
"288 38 OFFCURVE",
"318 98 OFFCURVE",
"318 166 CURVE SMOOTH"
);
},
{
closed = 1;
nodes = (
"143 238 OFFCURVE",
"113 298 OFFCURVE",
"54 345 CURVE SMOOTH",
"48 350 OFFCURVE",
"48 354 OFFCURVE",
"51 360 CURVE SMOOTH",
"54 366 OFFCURVE",
"60 368 OFFCURVE",
"68 364 CURVE SMOOTH",
"106 345 OFFCURVE",
"137 317 OFFCURVE",
"159 281 CURVE SMOOTH",
"181 246 OFFCURVE",
"191 207 OFFCURVE",
"191 166 CURVE SMOOTH",
"191 125 OFFCURVE",
"181 87 OFFCURVE",
"159 51 CURVE SMOOTH",
"137 15 OFFCURVE",
"107 -12 OFFCURVE",
"68 -32 CURVE SMOOTH",
"60 -36 OFFCURVE",
"55 -34 OFFCURVE",
"51 -28 CURVE SMOOTH",
"48 -22 OFFCURVE",
"48 -18 OFFCURVE",
"54 -13 CURVE SMOOTH",
"113 38 OFFCURVE",
"143 98 OFFCURVE",
"143 166 CURVE SMOOTH"
);
}
);
width = 415;
}
);
unicode = 00BB;
},
{
glyphname = "number-ar";
layers = (
{
layerId = "7FE84AD5-D318-40C5-A81A-3CDC73FF77D2";
paths = (
{
closed = 1;
nodes = (
"936 -47 OFFCURVE",
"931 -28 OFFCURVE",
"930 -6 CURVE SMOOTH",
"929 16 OFFCURVE",
"932 35 OFFCURVE",
"938 52 CURVE SMOOTH",
"961 118 OFFCURVE",
"995 155 OFFCURVE",
"1040 162 CURVE SMOOTH",
"1062 165 OFFCURVE",
"1082 158 OFFCURVE",
"1099 140 CURVE SMOOTH",
"1105 134 OFFCURVE",
"1106 129 OFFCURVE",
"1105 125 CURVE SMOOTH",
"1100 106 OFFCURVE",
"1094 91 OFFCURVE",
"1087 81 CURVE SMOOTH",
"1084 77 OFFCURVE",
"1082 77 OFFCURVE",
"1078 80 CURVE SMOOTH",
"1052 103 OFFCURVE",
"1027 106 OFFCURVE",
"1001 92 CURVE SMOOTH",
"975 78 OFFCURVE",
"961 63 OFFCURVE",
"957 49 CURVE SMOOTH",
"953 35 OFFCURVE",
"952 24 OFFCURVE",
"954 17 CURVE SMOOTH",
"962 -15 OFFCURVE",
"975 -36 OFFCURVE",
"993 -47 CURVE SMOOTH",
"1060 -71 LINE SMOOTH",
"1067 -75 OFFCURVE",
"1071 -81 OFFCURVE",
"1071 -89 CURVE SMOOTH",
"1070 -112 OFFCURVE",
"1068 -131 OFFCURVE",
"1065 -143 CURVE SMOOTH",
"1063 -150 OFFCURVE",
"1061 -151 OFFCURVE",
"1055 -148 CURVE SMOOTH",
"1015 -126 OFFCURVE",
"989 -115 OFFCURVE",
"976 -115 CURVE SMOOTH",
"963 -115 OFFCURVE",
"947 -119 OFFCURVE",
"928 -128 CURVE SMOOTH",
"878 -152 OFFCURVE",
"757 -164 OFFCURVE",
"565 -164 CURVE SMOOTH",
"296 -164 OFFCURVE",
"142 -156 OFFCURVE",
"103 -141 CURVE SMOOTH",
"93 -137 OFFCURVE",
"81 -129 OFFCURVE",
"67 -116 CURVE SMOOTH",
"35 -85 LINE SMOOTH",
"31 -81 OFFCURVE",
"29 -79 OFFCURVE",
"29 -76 CURVE SMOOTH",
"29 -73 OFFCURVE",
"35 -72 OFFCURVE",
"46 -74 CURVE SMOOTH",
"167 -91 OFFCURVE",
"322 -99 OFFCURVE",
"513 -99 CURVE SMOOTH",
"704 -99 OFFCURVE",
"821 -96 OFFCURVE",
"865 -89 CURVE SMOOTH",
"909 -82 OFFCURVE",
"935 -74 OFFCURVE",
"946 -66 CURVE"
);
}
);
width = 1134;
}
);
unicode = 0600;
},
{
glyphname = "year-ar";
layers = (
{
layerId = "7FE84AD5-D318-40C5-A81A-3CDC73FF77D2";
paths = (
{
closed = 1;
nodes = (
"1743 -35 OFFCURVE",
"1753 -42 OFFCURVE",
"1753 -57 CURVE SMOOTH",
"1753 -65 OFFCURVE",
"1751 -78 OFFCURVE",
"1746 -94 CURVE SMOOTH",
"1741 -110 OFFCURVE",
"1733 -124 OFFCURVE",
"1722 -136 CURVE SMOOTH",
"1711 -148 OFFCURVE",
"1691 -169 OFFCURVE",
"1661 -201 CURVE SMOOTH",
"1631 -233 OFFCURVE",
"1607 -263 OFFCURVE",
"1587 -291 CURVE SMOOTH",
"1580 -300 OFFCURVE",
"1576 -303 OFFCURVE",
"1573 -300 CURVE SMOOTH",
"1570 -297 OFFCURVE",
"1571 -292 OFFCURVE",
"1575 -284 CURVE",
"1600 -243 OFFCURVE",
"1623 -210 OFFCURVE",
"1646 -185 CURVE SMOOTH",
"1669 -160 OFFCURVE",
"1691 -137 OFFCURVE",
"1714 -116 CURVE",
"1710 -106 OFFCURVE",
"1702 -101 OFFCURVE",
"1689 -101 CURVE SMOOTH",
"1676 -101 OFFCURVE",
"1660 -105 OFFCURVE",
"1640 -113 CURVE SMOOTH",
"1521 -162 OFFCURVE",
"1426 -198 OFFCURVE",
"1353 -221 CURVE SMOOTH",
"1201 -270 OFFCURVE",
"1049 -293 OFFCURVE",
"899 -293 CURVE SMOOTH",
"797 -293 OFFCURVE",
"717 -284 OFFCURVE",
"655 -265 CURVE SMOOTH",
"593 -246 OFFCURVE",
"539 -216 OFFCURVE",
"493 -178 CURVE",
"488 -174 OFFCURVE",
"484 -175 OFFCURVE",
"480 -181 CURVE SMOOTH",
"462 -212 OFFCURVE",
"440 -234 OFFCURVE",
"417 -247 CURVE SMOOTH",
"402 -255 OFFCURVE",
"389 -260 OFFCURVE",
"375 -260 CURVE SMOOTH",
"350 -260 OFFCURVE",
"325 -246 OFFCURVE",
"301 -220 CURVE SMOOTH",
"297 -216 OFFCURVE",
"289 -207 OFFCURVE",
"278 -193 CURVE SMOOTH",
"267 -179 OFFCURVE",
"255 -171 OFFCURVE",
"243 -171 CURVE SMOOTH",
"231 -171 OFFCURVE",
"216 -181 OFFCURVE",
"202 -200 CURVE SMOOTH",
"188 -219 OFFCURVE",
"179 -234 OFFCURVE",
"175 -243 CURVE SMOOTH",
"171 -252 OFFCURVE",
"165 -267 OFFCURVE",
"157 -289 CURVE SMOOTH",
"149 -311 OFFCURVE",
"142 -328 OFFCURVE",
"133 -339 CURVE SMOOTH",
"124 -350 OFFCURVE",
"114 -356 OFFCURVE",
"102 -356 CURVE",
"78 -356 OFFCURVE",
"59 -341 OFFCURVE",
"47 -311 CURVE SMOOTH",
"35 -281 OFFCURVE",
"29 -226 OFFCURVE",
"29 -146 CURVE SMOOTH",
"29 -139 OFFCURVE",
"32 -135 OFFCURVE",
"36 -134 CURVE SMOOTH",
"40 -133 OFFCURVE",
"43 -134 OFFCURVE",
"44 -139 CURVE SMOOTH",
"45 -144 OFFCURVE",
"47 -161 OFFCURVE",
"47 -191 CURVE SMOOTH",
"48 -259 OFFCURVE",
"64 -295 OFFCURVE",
"97 -300 CURVE",
"99 -300 LINE SMOOTH",
"112 -300 OFFCURVE",
"125 -286 OFFCURVE",
"139 -257 CURVE SMOOTH",
"143 -250 OFFCURVE",
"148 -239 OFFCURVE",
"154 -225 CURVE SMOOTH",
"188 -143 OFFCURVE",
"223 -102 OFFCURVE",
"260 -102 CURVE SMOOTH",
"272 -102 OFFCURVE",
"287 -113 OFFCURVE",
"305 -134 CURVE SMOOTH",
"323 -155 OFFCURVE",
"337 -169 OFFCURVE",
"349 -177 CURVE SMOOTH",
"361 -185 OFFCURVE",
"374 -188 OFFCURVE",
"389 -188 CURVE SMOOTH",
"426 -188 OFFCURVE",
"459 -164 OFFCURVE",
"490 -114 CURVE SMOOTH",
"499 -99 OFFCURVE",
"508 -91 OFFCURVE",
"515 -91 CURVE SMOOTH",
"520 -91 OFFCURVE",
"526 -97 OFFCURVE",
"533 -108 CURVE SMOOTH",
"556 -145 OFFCURVE",
"602 -173 OFFCURVE",
"672 -193 CURVE SMOOTH",
"742 -213 OFFCURVE",
"835 -222 OFFCURVE",
"950 -222 CURVE SMOOTH",
"1088 -222 OFFCURVE",
"1243 -193 OFFCURVE",
"1417 -135 CURVE SMOOTH",
"1440 -127 OFFCURVE",
"1489 -109 OFFCURVE",
"1563 -79 CURVE SMOOTH",
"1637 -49 OFFCURVE",
"1690 -35 OFFCURVE",
"1721 -35 CURVE SMOOTH"
);
}
);
width = 1782;
}
);
unicode = 0601;
},
{
glyphname = "footnotemarker-ar";
layers = (
{
layerId = "7FE84AD5-D318-40C5-A81A-3CDC73FF77D2";
paths = (
{
closed = 1;
nodes = (
"86 -1 OFFCURVE",
"75 -14 OFFCURVE",
"75 -39 CURVE SMOOTH",
"75 -56 OFFCURVE",
"86 -70 OFFCURVE",
"108 -78 CURVE",
"119 -82 OFFCURVE",
"139 -85 OFFCURVE",
"166 -90 CURVE",
"166 -30 OFFCURVE",
"147 -1 OFFCURVE",
"110 -1 CURVE SMOOTH"
);
},
{
closed = 1;
nodes = (
"76 -130 OFFCURVE",
"65 -120 OFFCURVE",
"55 -109 CURVE SMOOTH",
"45 -98 OFFCURVE",
"41 -84 OFFCURVE",
"41 -69 CURVE SMOOTH",
"41 -34 OFFCURVE",
"53 -4 OFFCURVE",
"77 24 CURVE SMOOTH",
"93 42 OFFCURVE",
"109 52 OFFCURVE",
"123 52 CURVE SMOOTH",
"137 52 OFFCURVE",
"151 49 OFFCURVE",
"162 42 CURVE SMOOTH",
"180 32 OFFCURVE",
"189 4 OFFCURVE",
"189 -40 CURVE SMOOTH",
"189 -56 OFFCURVE",
"188 -74 OFFCURVE",
"186 -94 CURVE",
"227 -100 OFFCURVE",
"294 -103 OFFCURVE",
"386 -103 CURVE SMOOTH",
"518 -102 OFFCURVE",
"640 -92 OFFCURVE",
"750 -73 CURVE SMOOTH",
"765 -70 OFFCURVE",
"772 -70 OFFCURVE",
"772 -73 CURVE SMOOTH",
"772 -75 OFFCURVE",
"768 -79 OFFCURVE",
"761 -84 CURVE SMOOTH",
"719 -113 LINE SMOOTH",
"707 -121 OFFCURVE",
"693 -127 OFFCURVE",
"678 -131 CURVE SMOOTH",
"599 -151 OFFCURVE",
"489 -162 OFFCURVE",
"351 -162 CURVE SMOOTH",
"213 -162 OFFCURVE",
"125 -153 OFFCURVE",
"89 -136 CURVE SMOOTH"
);
}
);
width = 812;
}
);
unicode = 0602;
},
{
glyphname = "pagenumber-ar";
layers = (
{
layerId = "7FE84AD5-D318-40C5-A81A-3CDC73FF77D2";
paths = (
{
closed = 1;
nodes = (
"795 -204 OFFCURVE",
"791 -199 OFFCURVE",
"791 -189 CURVE SMOOTH",
"791 -179 OFFCURVE",
"796 -162 OFFCURVE",
"805 -140 CURVE",
"784 -136 OFFCURVE",
"763 -127 OFFCURVE",
"745 -112 CURVE",
"686 -146 OFFCURVE",
"572 -163 OFFCURVE",
"402 -163 CURVE SMOOTH",
"292 -163 OFFCURVE",
"195 -151 OFFCURVE",
"110 -128 CURVE SMOOTH",
"90 -122 OFFCURVE",
"75 -115 OFFCURVE",
"67 -106 CURVE SMOOTH",
"35 -70 LINE SMOOTH",
"31 -66 OFFCURVE",
"29 -63 OFFCURVE",
"29 -60 CURVE SMOOTH",
"29 -57 OFFCURVE",
"35 -57 OFFCURVE",
"46 -59 CURVE SMOOTH",
"192 -88 OFFCURVE",
"320 -103 OFFCURVE",
"429 -103 CURVE SMOOTH",
"587 -103 OFFCURVE",
"697 -86 OFFCURVE",
"762 -54 CURVE SMOOTH",
"765 -53 OFFCURVE",
"769 -56 OFFCURVE",
"776 -64 CURVE SMOOTH",
"790 -80 OFFCURVE",
"812 -89 OFFCURVE",
"840 -92 CURVE",
"901 -3 OFFCURVE",
"957 42 OFFCURVE",
"1011 42 CURVE SMOOTH",
"1021 42 OFFCURVE",
"1035 37 OFFCURVE",
"1053 25 CURVE SMOOTH",
"1071 13 OFFCURVE",
"1080 -2 OFFCURVE",
"1080 -20 CURVE SMOOTH",
"1080 -38 OFFCURVE",
"1074 -58 OFFCURVE",
"1062 -80 CURVE SMOOTH",
"1050 -102 OFFCURVE",
"1041 -114 OFFCURVE",
"1037 -117 CURVE SMOOTH",
"1002 -144 OFFCURVE",
"954 -157 OFFCURVE",
"893 -157 CURVE SMOOTH",
"869 -157 OFFCURVE",
"847 -154 OFFCURVE",
"826 -148 CURVE",
"821 -155 OFFCURVE",
"816 -171 OFFCURVE",
"810 -197 CURVE SMOOTH",
"809 -202 OFFCURVE",
"807 -204 OFFCURVE",
"803 -204 CURVE SMOOTH"
);
},
{
closed = 1;
nodes = (
"1018 -36 OFFCURVE",
"994 -21 OFFCURVE",
"965 -21 CURVE SMOOTH",
"936 -21 OFFCURVE",
"902 -47 OFFCURVE",
"865 -98 CURVE",
"875 -100 OFFCURVE",
"888 -101 OFFCURVE",
"903 -101 CURVE SMOOTH",
"918 -101 OFFCURVE",
"942 -99 OFFCURVE",
"975 -95 CURVE SMOOTH",
"1008 -91 OFFCURVE",
"1029 -84 OFFCURVE",
"1037 -74 CURVE SMOOTH",
"1038 -73 OFFCURVE",
"1038 -73 OFFCURVE",
"1038 -72 CURVE SMOOTH",
"1038 -71 OFFCURVE",
"1038 -69 OFFCURVE",
"1037 -68 CURVE SMOOTH"
);
}
);
width = 1109;
}
);
unicode = 0603;
},
{
glyphname = "samvat-ar";
layers = (
{
layerId = "7FE84AD5-D318-40C5-A81A-3CDC73FF77D2";
paths = (
{
closed = 1;
nodes = (
"98 -143 OFFCURVE",
"84 -131 OFFCURVE",
"67 -116 CURVE SMOOTH",
"35 -85 LINE SMOOTH",
"31 -82 OFFCURVE",
"29 -80 OFFCURVE",
"29 -77 CURVE SMOOTH",
"29 -74 OFFCURVE",
"35 -73 OFFCURVE",
"46 -74 CURVE SMOOTH",
"207 -89 OFFCURVE",
"478 -97 OFFCURVE",
"861 -97 CURVE SMOOTH",
"1244 -97 OFFCURVE",
"1510 -90 OFFCURVE",
"1658 -75 CURVE",
"1702 -71 OFFCURVE",
"1734 -61 OFFCURVE",
"1754 -48 CURVE",
"1731 -6 OFFCURVE",
"1727 35 OFFCURVE",
"1741 76 CURVE",
"1764 137 OFFCURVE",
"1798 168 OFFCURVE",
"1845 170 CURVE SMOOTH",
"1859 171 OFFCURVE",
"1872 160 OFFCURVE",
"1884 138 CURVE SMOOTH",
"1896 116 OFFCURVE",
"1911 105 OFFCURVE",
"1931 104 CURVE",
"1966 102 OFFCURVE",
"2003 132 OFFCURVE",
"2040 193 CURVE SMOOTH",
"2045 200 OFFCURVE",
"2049 202 OFFCURVE",
"2053 197 CURVE SMOOTH",
"2057 192 OFFCURVE",
"2057 184 OFFCURVE",
"2052 175 CURVE SMOOTH",
"2047 166 OFFCURVE",
"2045 160 OFFCURVE",
"2045 158 CURVE SMOOTH",
"2045 150 OFFCURVE",
"2050 144 OFFCURVE",
"2058 141 CURVE SMOOTH",
"2087 129 OFFCURVE",
"2109 125 OFFCURVE",
"2125 130 CURVE SMOOTH",
"2130 131 OFFCURVE",
"2126 141 OFFCURVE",
"2112 158 CURVE SMOOTH",
"2111 160 OFFCURVE",
"2110 161 OFFCURVE",
"2111 163 CURVE SMOOTH",
"2140 209 LINE SMOOTH",
"2141 211 OFFCURVE",
"2143 211 OFFCURVE",
"2145 209 CURVE SMOOTH",
"2162 189 OFFCURVE",
"2164 156 OFFCURVE",
"2151 111 CURVE SMOOTH",
"2144 87 OFFCURVE",
"2136 72 OFFCURVE",
"2128 63 CURVE SMOOTH",
"2120 54 OFFCURVE",
"2108 51 OFFCURVE",
"2092 53 CURVE",
"2057 58 OFFCURVE",
"2030 68 OFFCURVE",
"2009 82 CURVE SMOOTH",
"2007 83 OFFCURVE",
"2005 83 OFFCURVE",
"2004 81 CURVE SMOOTH",
"1977 43 OFFCURVE",
"1944 25 OFFCURVE",
"1905 29 CURVE SMOOTH",
"1884 31 OFFCURVE",
"1866 47 OFFCURVE",
"1850 77 CURVE SMOOTH",
"1845 87 OFFCURVE",
"1837 93 OFFCURVE",
"1827 95 CURVE",
"1800 100 OFFCURVE",
"1778 94 OFFCURVE",
"1762 76 CURVE",
"1762 53 OFFCURVE",
"1768 31 OFFCURVE",
"1780 12 CURVE SMOOTH",
"1792 -7 OFFCURVE",
"1805 -20 OFFCURVE",
"1819 -28 CURVE",
"1824 -31 OFFCURVE",
"1835 -35 OFFCURVE",
"1853 -40 CURVE SMOOTH",
"1871 -45 OFFCURVE",
"1885 -50 OFFCURVE",
"1894 -55 CURVE SMOOTH",
"1903 -60 OFFCURVE",
"1907 -67 OFFCURVE",
"1907 -76 CURVE SMOOTH",
"1906 -104 OFFCURVE",
"1904 -127 OFFCURVE",
"1900 -143 CURVE SMOOTH",
"1898 -151 OFFCURVE",
"1894 -153 OFFCURVE",
"1887 -149 CURVE SMOOTH",
"1838 -122 OFFCURVE",
"1806 -108 OFFCURVE",
"1790 -108 CURVE SMOOTH",
"1774 -108 OFFCURVE",
"1753 -113 OFFCURVE",
"1727 -126 CURVE SMOOTH",
"1701 -139 OFFCURVE",
"1643 -150 OFFCURVE",
"1556 -158 CURVE SMOOTH",
"1469 -166 OFFCURVE",
"1252 -170 OFFCURVE",
"904 -170 CURVE SMOOTH",
"556 -170 OFFCURVE",
"291 -163 OFFCURVE",
"110 -150 CURVE"
);
}
);
width = 2183;
}
);
unicode = 0604;
},
{
glyphname = "ray-ar";
layers = (
{
layerId = "7FE84AD5-D318-40C5-A81A-3CDC73FF77D2";
paths = (
{
closed = 1;
nodes = (
"715 91 OFFCURVE",
"747 102 OFFCURVE",
"765 124 CURVE SMOOTH",
"766 125 OFFCURVE",
"767 127 OFFCURVE",
"766 130 CURVE SMOOTH",
"762 149 OFFCURVE",
"753 168 OFFCURVE",
"739 188 CURVE SMOOTH",
"733 196 OFFCURVE",
"732 205 OFFCURVE",
"736 213 CURVE SMOOTH",
"764 275 LINE SMOOTH",
"770 288 OFFCURVE",
"776 287 OFFCURVE",
"783 275 CURVE SMOOTH",
"810 225 OFFCURVE",
"814 167 OFFCURVE",
"797 100 CURVE SMOOTH",
"780 33 OFFCURVE",
"736 0 OFFCURVE",
"665 1 CURVE",
"663 -10 OFFCURVE",
"657 -29 OFFCURVE",
"650 -55 CURVE SMOOTH",
"641 -88 OFFCURVE",
"630 -113 OFFCURVE",
"617 -130 CURVE SMOOTH",
"564 -201 OFFCURVE",
"486 -242 OFFCURVE",
"383 -255 CURVE SMOOTH",
"325 -262 OFFCURVE",
"275 -253 OFFCURVE",
"234 -230 CURVE SMOOTH",
"200 -210 OFFCURVE",
"178 -183 OFFCURVE",
"167 -146 CURVE SMOOTH",
"151 -92 OFFCURVE",
"157 -33 OFFCURVE",
"187 31 CURVE",
"147 -5 OFFCURVE",
"103 -27 OFFCURVE",
"57 -33 CURVE SMOOTH",
"48 -34 OFFCURVE",
"43 -30 OFFCURVE",
"44 -19 CURVE SMOOTH",
"46 16 LINE SMOOTH",
"47 28 OFFCURVE",
"50 34 OFFCURVE",
"57 34 CURVE SMOOTH",
"120 37 OFFCURVE",
"177 64 OFFCURVE",
"229 114 CURVE SMOOTH",
"238 123 OFFCURVE",
"245 126 OFFCURVE",
"250 122 CURVE SMOOTH",
"256 117 OFFCURVE",
"257 112 OFFCURVE",
"252 105 CURVE SMOOTH",
"194 22 OFFCURVE",
"184 -49 OFFCURVE",
"222 -107 CURVE SMOOTH",
"243 -139 OFFCURVE",
"281 -158 OFFCURVE",
"339 -165 CURVE SMOOTH",
"396 -172 OFFCURVE",
"453 -165 OFFCURVE",
"510 -142 CURVE SMOOTH",
"570 -118 OFFCURVE",
"610 -84 OFFCURVE",
"629 -42 CURVE SMOOTH",
"632 -35 OFFCURVE",
"632 -21 OFFCURVE",
"626 0 CURVE",
"565 2 OFFCURVE",
"525 11 OFFCURVE",
"504 30 CURVE SMOOTH",
"482 50 OFFCURVE",
"488 92 OFFCURVE",
"521 155 CURVE SMOOTH",
"545 200 OFFCURVE",
"565 223 OFFCURVE",
"583 223 CURVE SMOOTH",
"624 223 OFFCURVE",
"652 179 OFFCURVE",
"667 92 CURVE"
);
},
{
closed = 1;
nodes = (
"590 131 OFFCURVE",
"574 146 OFFCURVE",
"552 146 CURVE SMOOTH",
"538 146 OFFCURVE",
"533 139 OFFCURVE",
"538 127 CURVE SMOOTH",
"545 111 OFFCURVE",
"565 102 OFFCURVE",
"599 97 CURVE"
);
}
);
width = 860;
}
);
unicode = 0608;
},
{
glyphname = "afghani-ar";
layers = (
{
components = (
{
name = "alefabove-ar";
transform = "{1, 0, 0, 1, 117, -1226}";
},
{
name = "dotabove-ar";
transform = "{1, 0, 0, 1, 303, 493}";
}
);
layerId = "7FE84AD5-D318-40C5-A81A-3CDC73FF77D2";
paths = (
{
closed = 1;
nodes = (
"349 409 OFFCURVE",
"360 404 OFFCURVE",
"373 393 CURVE SMOOTH",
"433 341 OFFCURVE",
"460 274 OFFCURVE",
"457 195 CURVE SMOOTH",
"455 158 OFFCURVE",
"445 125 OFFCURVE",
"426 95 CURVE SMOOTH",
"377 19 OFFCURVE",
"262 -12 OFFCURVE",
"79 5 CURVE SMOOTH",
"66 6 OFFCURVE",
"57 12 OFFCURVE",
"55 22 CURVE SMOOTH",
"45 70 LINE SMOOTH",
"41 90 OFFCURVE",
"51 98 OFFCURVE",
"74 95 CURVE SMOOTH",
"237 77 OFFCURVE",
"350 100 OFFCURVE",
"413 162 CURVE",
"411 182 OFFCURVE",
"409 194 OFFCURVE",
"404 201 CURVE SMOOTH",
"399 208 OFFCURVE",
"396 211 OFFCURVE",
"393 210 CURVE SMOOTH",
"390 209 OFFCURVE",
"388 208 OFFCURVE",
"387 206 CURVE SMOOTH",
"376 177 OFFCURVE",
"358 159 OFFCURVE",
"335 154 CURVE SMOOTH",
"262 138 OFFCURVE",
"228 167 OFFCURVE",
"234 239 CURVE SMOOTH",
"237 274 OFFCURVE",
"251 312 OFFCURVE",
"274 351 CURVE SMOOTH",
"297 390 OFFCURVE",
"319 409 OFFCURVE",
"340 409 CURVE SMOOTH"
);
},
{
closed = 1;
nodes = (
"316 249 OFFCURVE",
"339 253 OFFCURVE",
"349 266 CURVE",
"334 290 OFFCURVE",
"319 302 OFFCURVE",
"307 301 CURVE SMOOTH",
"290 300 OFFCURVE",
"281 285 OFFCURVE",
"280 256 CURVE"
);
}
);
width = 500;
}
);
unicode = 060B;
},
{
glyphname = "comma-ar";
layers = (
{
layerId = "7FE84AD5-D318-40C5-A81A-3CDC73FF77D2";
paths = (
{
closed = 1;
nodes = (
"217 404 OFFCURVE",
"226 404 OFFCURVE",
"233 396 CURVE SMOOTH",
"240 388 OFFCURVE",
"238 380 OFFCURVE",
"229 371 CURVE SMOOTH",
"147 286 OFFCURVE",
"119 207 OFFCURVE",
"145 135 CURVE SMOOTH",
"148 127 OFFCURVE",
"151 126 OFFCURVE",
"156 131 CURVE SMOOTH",
"171 150 OFFCURVE",
"191 159 OFFCURVE",
"215 159 CURVE SMOOTH",
"236 159 OFFCURVE",
"254 151 OFFCURVE",
"269 136 CURVE SMOOTH",
"284 121 OFFCURVE",
"291 104 OFFCURVE",
"291 83 CURVE SMOOTH",
"291 62 OFFCURVE",
"283 44 OFFCURVE",
"267 29 CURVE SMOOTH",
"251 14 OFFCURVE",
"232 6 OFFCURVE",
"211 7 CURVE SMOOTH",
"186 8 OFFCURVE",
"166 14 OFFCURVE",
"151 25 CURVE SMOOTH",
"109 58 OFFCURVE",
"93 117 OFFCURVE",
"100 205 CURVE SMOOTH",
"104 245 OFFCURVE",
"117 284 OFFCURVE",
"141 321 CURVE SMOOTH",
"165 358 OFFCURVE",
"186 383 OFFCURVE",
"206 397 CURVE SMOOTH"
);
}
);
width = 369;
}
);
unicode = 060C;
},
{
glyphname = "dateseparator-ar";
layers = (
{
layerId = "7FE84AD5-D318-40C5-A81A-3CDC73FF77D2";
paths = (
{
closed = 1;
nodes = (
"253 428 LINE SMOOTH",
"241 402 OFFCURVE",
"228 395 OFFCURVE",
"213 408 CURVE SMOOTH",
"197 422 OFFCURVE",
"176 417 OFFCURVE",
"151 392 CURVE SMOOTH",
"125 367 OFFCURVE",
"97 329 OFFCURVE",
"66 280 CURVE SMOOTH",
"58 267 OFFCURVE",
"52 263 OFFCURVE",
"45 266 CURVE SMOOTH",
"38 270 OFFCURVE",
"37 280 OFFCURVE",
"44 296 CURVE SMOOTH",
"62 337 OFFCURVE",
"89 384 OFFCURVE",
"127 439 CURVE SMOOTH",
"170 500 OFFCURVE",
"213 527 OFFCURVE",
"255 519 CURVE SMOOTH",
"280 514 OFFCURVE",
"284 495 OFFCURVE",
"268 460 CURVE SMOOTH"
);
}
);
width = 316;
}
);
unicode = 060D;
},
{
glyphname = "verseComma-ar";
layers = (
{
layerId = "7FE84AD5-D318-40C5-A81A-3CDC73FF77D2";
paths = (
{
closed = 1;
nodes = (
"85 221 OFFCURVE",
"73 208 OFFCURVE",
"73 183 CURVE SMOOTH",
"73 166 OFFCURVE",
"85 152 OFFCURVE",
"107 144 CURVE SMOOTH",
"118 140 OFFCURVE",
"137 136 OFFCURVE",
"164 131 CURVE",
"164 191 OFFCURVE",
"146 221 OFFCURVE",
"109 221 CURVE SMOOTH"
);
},
{
closed = 1;
nodes = (
"74 92 OFFCURVE",
"63 101 OFFCURVE",
"53 112 CURVE SMOOTH",
"43 123 OFFCURVE",
"39 137 OFFCURVE",
"39 152 CURVE SMOOTH",
"39 187 OFFCURVE",
"52 218 OFFCURVE",
"76 246 CURVE",
"92 264 OFFCURVE",
"108 273 OFFCURVE",
"122 273 CURVE SMOOTH",
"136 273 OFFCURVE",
"150 270 OFFCURVE",
"161 263 CURVE SMOOTH",
"179 253 OFFCURVE",
"188 226 OFFCURVE",
"188 182 CURVE SMOOTH",
"188 166 OFFCURVE",
"186 147 OFFCURVE",
"184 127 CURVE",
"226 121 OFFCURVE",
"275 118 OFFCURVE",
"331 119 CURVE SMOOTH",
"407 120 OFFCURVE",
"500 129 OFFCURVE",
"610 148 CURVE SMOOTH",
"625 151 OFFCURVE",
"633 151 OFFCURVE",
"633 148 CURVE SMOOTH",
"633 146 OFFCURVE",
"629 142 OFFCURVE",
"622 137 CURVE SMOOTH",
"580 109 LINE SMOOTH",
"568 101 OFFCURVE",
"554 94 OFFCURVE",
"539 90 CURVE SMOOTH",
"460 70 OFFCURVE",
"378 60 OFFCURVE",
"294 60 CURVE SMOOTH",
"193 60 OFFCURVE",
"123 69 OFFCURVE",
"87 86 CURVE SMOOTH"
);
}
);
width = 671;
}
);
unicode = 060E;
},
{
glyphname = "misraComma-ar";
layers = (
{
layerId = "7FE84AD5-D318-40C5-A81A-3CDC73FF77D2";
paths = (
{
closed = 1;
nodes = (
"163 -48 OFFCURVE",
"207 64 OFFCURVE",
"298 160 CURVE",
"246 181 OFFCURVE",
"212 203 OFFCURVE",
"195 226 CURVE SMOOTH",
"188 235 OFFCURVE",
"185 245 OFFCURVE",
"186 257 CURVE SMOOTH",
"189 288 OFFCURVE",
"197 317 OFFCURVE",
"211 343 CURVE SMOOTH",
"243 401 OFFCURVE",
"278 440 OFFCURVE",
"318 459 CURVE SMOOTH",
"338 468 OFFCURVE",
"360 465 OFFCURVE",
"388 449 CURVE SMOOTH",
"416 433 OFFCURVE",
"436 416 OFFCURVE",
"447 400 CURVE SMOOTH",
"454 390 OFFCURVE",
"450 387 OFFCURVE",
"434 390 CURVE SMOOTH",
"348 407 OFFCURVE",
"277 379 OFFCURVE",
"221 304 CURVE SMOOTH",
"218 300 OFFCURVE",
"218 296 OFFCURVE",
"223 291 CURVE SMOOTH",
"267 247 OFFCURVE",
"322 229 OFFCURVE",
"388 237 CURVE SMOOTH",
"399 238 OFFCURVE",
"414 245 OFFCURVE",
"435 257 CURVE SMOOTH",
"513 304 OFFCURVE",
"557 331 OFFCURVE",
"566 337 CURVE SMOOTH",
"579 344 OFFCURVE",
"583 339 OFFCURVE",
"576 320 CURVE SMOOTH",
"561 278 OFFCURVE",
"550 254 OFFCURVE",
"541 250 CURVE SMOOTH",
"478 220 OFFCURVE",
"411 179 OFFCURVE",
"342 128 CURVE SMOOTH",
"251 61 OFFCURVE",
"201 -32 OFFCURVE",
"193 -150 CURVE",
"270 -78 OFFCURVE",
"336 -29 OFFCURVE",
"391 -2 CURVE SMOOTH",
"501 51 OFFCURVE",
"592 63 OFFCURVE",
"663 33 CURVE SMOOTH",
"711 12 OFFCURVE",
"742 -20 OFFCURVE",
"757 -65 CURVE SMOOTH",
"778 -133 OFFCURVE",
"762 -210 OFFCURVE",
"706 -297 CURVE SMOOTH",
"629 -416 OFFCURVE",
"535 -477 OFFCURVE",
"426 -477 CURVE SMOOTH",
"272 -477 OFFCURVE",
"185 -394 OFFCURVE",
"167 -229 CURVE",
"132 -264 OFFCURVE",
"96 -304 OFFCURVE",
"59 -348 CURVE SMOOTH",
"46 -364 OFFCURVE",
"41 -363 OFFCURVE",
"45 -348 CURVE SMOOTH",
"62 -287 LINE SMOOTH",
"65 -277 OFFCURVE",
"100 -240 OFFCURVE",
"165 -177 CURVE"
);
},
{
closed = 1;
nodes = (
"231 -326 OFFCURVE",
"318 -388 OFFCURVE",
"459 -388 CURVE SMOOTH",
"590 -388 OFFCURVE",
"674 -332 OFFCURVE",
"711 -220 CURVE SMOOTH",
"731 -160 OFFCURVE",
"716 -107 OFFCURVE",
"666 -61 CURVE SMOOTH",
"616 -15 OFFCURVE",
"533 -13 OFFCURVE",
"418 -55 CURVE SMOOTH",
"357 -77 OFFCURVE",
"283 -126 OFFCURVE",
"198 -201 CURVE"
);
}
);
width = 809;
}
);
unicode = 060F;
},
{
glyphname = "sallallahouAlayheWassallamcomb-ar";
layers = (
{
layerId = "7FE84AD5-D318-40C5-A81A-3CDC73FF77D2";
paths = (
{
closed = 1;
nodes = (
"259 1018 OFFCURVE",
"238 1024 OFFCURVE",
"215 1018 CURVE SMOOTH",
"192 1012 OFFCURVE",
"161 994 OFFCURVE",
"123 965 CURVE",
"193 961 OFFCURVE",
"245 973 OFFCURVE",
"280 999 CURVE"
);
},
{
closed = 1;
nodes = (
"55 971 OFFCURVE",
"74 966 OFFCURVE",
"99 965 CURVE",
"128 995 OFFCURVE",
"158 1020 OFFCURVE",
"187 1041 CURVE SMOOTH",
"216 1062 OFFCURVE",
"239 1072 OFFCURVE",
"256 1072 CURVE",
"281 1073 OFFCURVE",
"299 1058 OFFCURVE",
"310 1028 CURVE",
"312 1020 OFFCURVE",
"310 1009 OFFCURVE",
"303 994 CURVE SMOOTH",
"296 979 OFFCURVE",
"290 969 OFFCURVE",
"285 964 CURVE SMOOTH",
"261 938 OFFCURVE",
"216 923 OFFCURVE",
"150 917 CURVE SMOOTH",
"116 914 OFFCURVE",
"85 915 OFFCURVE",
"54 921 CURVE",
"56 889 OFFCURVE",
"51 856 OFFCURVE",
"37 820 CURVE SMOOTH",
"34 813 OFFCURVE",
"29 810 OFFCURVE",
"24 811 CURVE SMOOTH",
"19 812 OFFCURVE",
"17 816 OFFCURVE",
"19 823 CURVE SMOOTH",
"30 874 OFFCURVE",
"25 919 OFFCURVE",
"3 958 CURVE SMOOTH",
"0 963 OFFCURVE",
"-1 966 OFFCURVE",
"0 967 CURVE SMOOTH",
"16 1008 LINE SMOOTH",
"18 1014 OFFCURVE",
"22 1013 OFFCURVE",
"27 1006 CURVE SMOOTH",
"32 999 OFFCURVE",
"37 989 OFFCURVE",
"41 979 CURVE"
);
}
);
width = 0;
}
);
unicode = 0610;
},
{
glyphname = "alayheAssallamcomb-ar";
layers = (
{
layerId = "7FE84AD5-D318-40C5-A81A-3CDC73FF77D2";
paths = (
{
closed = 1;
nodes = (
"56 889 OFFCURVE",
"51 856 OFFCURVE",
"37 820 CURVE SMOOTH",
"34 813 OFFCURVE",
"29 810 OFFCURVE",
"24 811 CURVE SMOOTH",
"19 812 OFFCURVE",
"17 816 OFFCURVE",
"19 823 CURVE SMOOTH",
"30 874 OFFCURVE",
"25 919 OFFCURVE",
"3 958 CURVE SMOOTH",
"0 963 OFFCURVE",
"-1 966 OFFCURVE",
"0 967 CURVE SMOOTH",
"16 1008 LINE SMOOTH",
"20 1018 OFFCURVE",
"29 1009 OFFCURVE",
"41 979 CURVE",
"62 969 OFFCURVE",
"90 964 OFFCURVE",
"124 965 CURVE",
"114 978 OFFCURVE",
"108 993 OFFCURVE",
"107 1010 CURVE SMOOTH",
"104 1042 OFFCURVE",
"112 1068 OFFCURVE",
"132 1087 CURVE SMOOTH",
"152 1106 OFFCURVE",
"172 1118 OFFCURVE",
"192 1122 CURVE SMOOTH",
"212 1126 OFFCURVE",
"237 1114 OFFCURVE",
"269 1086 CURVE SMOOTH",
"273 1082 OFFCURVE",
"274 1079 OFFCURVE",
"271 1074 CURVE",
"268 1070 OFFCURVE",
"265 1068 OFFCURVE",
"260 1070 CURVE SMOOTH",
"226 1083 OFFCURVE",
"193 1083 OFFCURVE",
"159 1071 CURVE SMOOTH",
"144 1066 OFFCURVE",
"136 1060 OFFCURVE",
"133 1052 CURVE",
"130 1044 OFFCURVE",
"135 1030 OFFCURVE",
"148 1010 CURVE SMOOTH",
"161 990 OFFCURVE",
"171 979 OFFCURVE",
"181 978 CURVE",
"203 974 OFFCURVE",
"231 982 OFFCURVE",
"265 1003 CURVE SMOOTH",
"277 1010 OFFCURVE",
"285 1013 OFFCURVE",
"287 1011 CURVE SMOOTH",
"289 1009 OFFCURVE",
"290 1006 OFFCURVE",
"289 1004 CURVE SMOOTH",
"270 963 LINE SMOOTH",
"268 958 OFFCURVE",
"265 956 OFFCURVE",
"263 954 CURVE",
"201 917 OFFCURVE",
"132 905 OFFCURVE",
"54 921 CURVE"
);
}
);
width = 0;
}
);
unicode = 0611;
},
{
glyphname = "rehHahabove-ar";
layers = (
{
components = (
{
name = aRaa.isol;
transform = "{0.5, 0, 0, 0.5, 220, 915}";
}
);
layerId = "7FE84AD5-D318-40C5-A81A-3CDC73FF77D2";
paths = (
{
closed = 1;
nodes = (
"0 915 OFFCURVE",
"42 982 OFFCURVE",
"127 1020 CURVE",
"89 1029 OFFCURVE",
"55 1028 OFFCURVE",
"25 1016 CURVE SMOOTH",
"19 1014 OFFCURVE",
"17 1015 OFFCURVE",
"17 1019 CURVE SMOOTH",
"18 1053 OFFCURVE",
"36 1069 OFFCURVE",
"70 1071 CURVE SMOOTH",
"83 1072 OFFCURVE",
"104 1070 OFFCURVE",
"132 1064 CURVE SMOOTH",
"160 1058 OFFCURVE",
"183 1056 OFFCURVE",
"203 1056 CURVE SMOOTH",
"223 1056 OFFCURVE",
"246 1059 OFFCURVE",
"275 1064 CURVE SMOOTH",
"285 1066 OFFCURVE",
"289 1063 OFFCURVE",
"285 1055 CURVE SMOOTH",
"272 1028 LINE SMOOTH",
"271 1025 OFFCURVE",
"269 1024 OFFCURVE",
"267 1023 CURVE SMOOTH",
"185 1011 OFFCURVE",
"130 997 OFFCURVE",
"100 977 CURVE SMOOTH",
"45 941 OFFCURVE",
"17 889 OFFCURVE",
"17 820 CURVE SMOOTH",
"16 814 OFFCURVE",
"13 812 OFFCURVE",
"8 812 CURVE SMOOTH",
"4 812 OFFCURVE",
"1 814 OFFCURVE",
"0 820 CURVE SMOOTH"
);
}
);
width = 0;
}
);
unicode = 0612;
},
{
glyphname = "takhallusabove-ar";
layers = (
{
layerId = "7FE84AD5-D318-40C5-A81A-3CDC73FF77D2";
paths = (
{
closed = 1;
nodes = (
"192 847 OFFCURVE",
"95 837 OFFCURVE",
"-9 856 CURVE SMOOTH",
"-20 858 OFFCURVE",
"-25 864 OFFCURVE",
"-24 872 CURVE SMOOTH",
"-23 879 OFFCURVE",
"-17 882 OFFCURVE",
"-6 881 CURVE SMOOTH",
"148 875 OFFCURVE",
"250 896 OFFCURVE",
"301 944 CURVE SMOOTH",
"307 949 OFFCURVE",
"311 951 OFFCURVE",
"314 949 CURVE SMOOTH",
"319 946 OFFCURVE",
"320 942 OFFCURVE",
"317 935 CURVE SMOOTH",
"313 925 LINE",
"341 904 OFFCURVE",
"370 894 OFFCURVE",
"398 896 CURVE",
"398 901 OFFCURVE",
"396 907 OFFCURVE",
"390 917 CURVE SMOOTH",
"387 923 OFFCURVE",
"386 929 OFFCURVE",
"390 937 CURVE SMOOTH",
"406 970 LINE SMOOTH",
"410 978 OFFCURVE",
"414 976 OFFCURVE",
"419 964 CURVE SMOOTH",
"426 947 OFFCURVE",
"426 926 OFFCURVE",
"422 900 CURVE SMOOTH",
"416 867 OFFCURVE",
"407 850 OFFCURVE",
"392 848 CURVE SMOOTH",
"357 844 OFFCURVE",
"321 856 OFFCURVE",
"284 884 CURVE"
);
}
);
width = 0;
}
);
unicode = 0614;
},
{
glyphname = "tahabove-ar";
layers = (
{
anchors = (
{
name = _MarkAbove;
position = "{233, 1270}";
}
);
layerId = "7FE84AD5-D318-40C5-A81A-3CDC73FF77D2";
paths = (
{
closed = 1;
nodes = (
"193 1603 OFFCURVE",
"198 1500 OFFCURVE",
"191 1438 CURVE",
"266 1518 OFFCURVE",
"324 1546 OFFCURVE",
"364 1521 CURVE SMOOTH",
"385 1508 OFFCURVE",
"396 1494 OFFCURVE",
"398 1478 CURVE SMOOTH",
"400 1462 OFFCURVE",
"396 1443 OFFCURVE",
"384 1420 CURVE SMOOTH",
"372 1397 OFFCURVE",
"362 1383 OFFCURVE",
"356 1379 CURVE SMOOTH",
"303 1343 OFFCURVE",
"214 1320 OFFCURVE",
"89 1311 CURVE",
"67 1315 OFFCURVE",
"48 1322 OFFCURVE",
"33 1332 CURVE SMOOTH",
"18 1342 OFFCURVE",
"8 1352 OFFCURVE",
"3 1362 CURVE SMOOTH",
"-2 1372 OFFCURVE",
"-2 1377 OFFCURVE",
"5 1376 CURVE",
"34 1372 OFFCURVE",
"73 1372 OFFCURVE",
"120 1375 CURVE",
"159 1413 LINE",
"159 1514 OFFCURVE",
"152 1612 OFFCURVE",
"137 1709 CURVE SMOOTH",
"135 1722 OFFCURVE",
"136 1731 OFFCURVE",
"140 1737 CURVE SMOOTH",
"155 1761 LINE SMOOTH",
"164 1775 OFFCURVE",
"171 1769 OFFCURVE",
"175 1744 CURVE SMOOTH"
);
},
{
closed = 1;
nodes = (
"245 1454 OFFCURVE",
"209 1427 OFFCURVE",
"155 1379 CURVE",
"237 1388 OFFCURVE",
"303 1406 OFFCURVE",
"352 1432 CURVE",
"334 1464 OFFCURVE",
"305 1473 OFFCURVE",
"264 1460 CURVE SMOOTH"
);
}
);
width = 0;
}
);
unicode = 0615;
},
{
glyphname = "alefLamYehabove-ar";
layers = (
{
anchors = (
{
name = _MarkAbove;
position = "{214, 801}";
},
{
name = _TashkilAbove;
position = "{213, 801}";
},
{
name = _TashkilAboveDot;
position = "{213, 801}";
}
);
layerId = "7FE84AD5-D318-40C5-A81A-3CDC73FF77D2";
paths = (
{
closed = 1;
nodes = (
"275 1080 OFFCURVE",
"279 1023 OFFCURVE",
"277 991 CURVE SMOOTH",
"275 959 OFFCURVE",
"272 937 OFFCURVE",
"267 923 CURVE SMOOTH",
"262 909 OFFCURVE",
"258 901 OFFCURVE",
"255 901 CURVE SMOOTH",
"250 901 OFFCURVE",
"249 906 OFFCURVE",
"250 914 CURVE",
"252 947 OFFCURVE",
"248 1014 OFFCURVE",
"238 1117 CURVE SMOOTH",
"237 1126 OFFCURVE",
"237 1133 OFFCURVE",
"239 1136 CURVE SMOOTH",
"251 1160 LINE SMOOTH",
"258 1175 OFFCURVE",
"263 1176 OFFCURVE",
"265 1162 CURVE SMOOTH"
);
},
{
closed = 1;
nodes = (
"158 1085 OFFCURVE",
"160 1029 OFFCURVE",
"153 990 CURVE SMOOTH",
"146 951 OFFCURVE",
"120 919 OFFCURVE",
"77 893 CURVE",
"144 883 OFFCURVE",
"261 884 OFFCURVE",
"428 899 CURVE SMOOTH",
"436 900 OFFCURVE",
"439 896 OFFCURVE",
"434 889 CURVE SMOOTH",
"416 863 LINE SMOOTH",
"413 859 OFFCURVE",
"409 856 OFFCURVE",
"406 855 CURVE SMOOTH",
"376 850 OFFCURVE",
"323 847 OFFCURVE",
"246 844 CURVE SMOOTH",
"169 841 OFFCURVE",
"113 843 OFFCURVE",
"75 849 CURVE SMOOTH",
"63 851 OFFCURVE",
"56 856 OFFCURVE",
"54 865 CURVE",
"52 879 OFFCURVE",
"56 894 OFFCURVE",
"64 908 CURVE SMOOTH",
"72 922 OFFCURVE",
"81 932 OFFCURVE",
"91 939 CURVE SMOOTH",
"121 960 OFFCURVE",
"135 983 OFFCURVE",
"134 1008 CURVE",
"129 1056 OFFCURVE",
"126 1096 OFFCURVE",
"121 1128 CURVE SMOOTH",
"120 1136 OFFCURVE",
"120 1143 OFFCURVE",
"123 1147 CURVE SMOOTH",
"132 1162 LINE SMOOTH",
"140 1174 OFFCURVE",
"145 1172 OFFCURVE",
"147 1158 CURVE SMOOTH"
);
}
);
width = 0;
}
);
unicode = 0616;
},
{
glyphname = "zainabove-ar";
layers = (
{
anchors = (
{
name = _MarkAbove;
position = "{233, 1270}";
}
);
layerId = "7FE84AD5-D318-40C5-A81A-3CDC73FF77D2";
paths = (
{
closed = 1;
nodes = (
"216 1772 OFFCURVE",
"222 1770 OFFCURVE",
"231 1767 CURVE SMOOTH",
"240 1764 OFFCURVE",
"251 1757 OFFCURVE",
"263 1746 CURVE SMOOTH",
"265 1744 OFFCURVE",
"265 1742 OFFCURVE",
"264 1740 CURVE SMOOTH",
"235 1695 LINE SMOOTH",
"234 1693 OFFCURVE",
"232 1694 OFFCURVE",
"229 1696 CURVE SMOOTH",
"226 1698 OFFCURVE",
"212 1707 OFFCURVE",
"187 1722 CURVE SMOOTH",
"185 1723 OFFCURVE",
"185 1725 OFFCURVE",
"186 1726 CURVE",
"215 1770 LINE SMOOTH"
);
},
{
closed = 1;
nodes = (
"278 1612 OFFCURVE",
"282 1612 OFFCURVE",
"288 1606 CURVE SMOOTH",
"304 1590 OFFCURVE",
"315 1569 OFFCURVE",
"323 1542 CURVE SMOOTH",
"331 1515 OFFCURVE",
"333 1486 OFFCURVE",
"329 1455 CURVE SMOOTH",
"325 1424 OFFCURVE",
"312 1394 OFFCURVE",
"289 1364 CURVE SMOOTH",
"266 1334 OFFCURVE",
"235 1315 OFFCURVE",
"198 1305 CURVE SMOOTH",
"188 1302 OFFCURVE",
"178 1302 OFFCURVE",
"169 1305 CURVE SMOOTH",
"109 1326 OFFCURVE",
"79 1338 OFFCURVE",
"79 1343 CURVE SMOOTH",
"79 1348 OFFCURVE",
"82 1349 OFFCURVE",
"86 1348 CURVE SMOOTH",
"113 1340 OFFCURVE",
"137 1336 OFFCURVE",
"157 1339 CURVE SMOOTH",
"223 1348 OFFCURVE",
"274 1387 OFFCURVE",
"309 1455 CURVE SMOOTH",
"311 1458 OFFCURVE",
"311 1461 OFFCURVE",
"310 1464 CURVE SMOOTH",
"304 1485 OFFCURVE",
"288 1511 OFFCURVE",
"263 1543 CURVE SMOOTH",
"262 1545 OFFCURVE",
"261 1546 OFFCURVE",
"262 1547 CURVE SMOOTH",
"277 1607 LINE SMOOTH"
);
}
);
width = 0;
}
);
unicode = 0617;
},
{
glyphname = "fathasmall-ar";
layers = (
{
anchors = (
{
name = _MarkAbove;
position = "{249, 801}";
},
{
name = _TashkilAbove;
position = "{247, 801}";
},
{
name = _TashkilAboveDot;
position = "{247, 801}";
}
);
layerId = "7FE84AD5-D318-40C5-A81A-3CDC73FF77D2";
paths = (
{
closed = 1;
nodes = (
"314 948 LINE SMOOTH",
"323 952 OFFCURVE",
"327 949 OFFCURVE",
"326 941 CURVE SMOOTH",
"323 914 LINE SMOOTH",
"322 909 OFFCURVE",
"320 905 OFFCURVE",
"316 903 CURVE SMOOTH",
"148 844 LINE SMOOTH",
"137 840 OFFCURVE",
"131 843 OFFCURVE",
"132 851 CURVE SMOOTH",
"134 862 LINE SMOOTH",
"135 867 OFFCURVE",
"138 870 OFFCURVE",
"143 872 CURVE SMOOTH"
);
}
);
width = 0;
}
);
unicode = 0618;
},
{
glyphname = "dammasmall-ar";
layers = (
{
anchors = (
{
name = _MarkAbove;
position = "{244, 801}";
},
{
name = _TashkilAbove;
position = "{244, 801}";
},
{
name = _TashkilAboveDot;
position = "{244, 801}";
}
);
layerId = "7FE84AD5-D318-40C5-A81A-3CDC73FF77D2";
paths = (
{
closed = 1;
nodes = (
"277 1056 OFFCURVE",
"285 1054 OFFCURVE",
"290 1047 CURVE SMOOTH",
"295 1040 OFFCURVE",
"296 1031 OFFCURVE",
"297 1019 CURVE SMOOTH",
"298 1007 OFFCURVE",
"293 987 OFFCURVE",
"282 962 CURVE",
"291 956 OFFCURVE",
"298 952 OFFCURVE",
"302 950 CURVE SMOOTH",
"306 948 OFFCURVE",
"307 944 OFFCURVE",
"304 937 CURVE SMOOTH",
"294 917 LINE SMOOTH",
"291 911 OFFCURVE",
"281 914 OFFCURVE",
"262 925 CURVE",
"232 886 OFFCURVE",
"204 860 OFFCURVE",
"180 847 CURVE SMOOTH",
"169 841 OFFCURVE",
"162 840 OFFCURVE",
"159 845 CURVE SMOOTH",
"156 850 OFFCURVE",
"160 857 OFFCURVE",
"174 867 CURVE SMOOTH",
"200 886 OFFCURVE",
"224 908 OFFCURVE",
"245 936 CURVE",
"212 952 OFFCURVE",
"201 973 OFFCURVE",
"213 998 CURVE SMOOTH",
"228 1029 OFFCURVE",
"247 1048 OFFCURVE",
"269 1054 CURVE SMOOTH"
);
},
{
closed = 1;
nodes = (
"260 1007 OFFCURVE",
"253 1009 OFFCURVE",
"243 1005 CURVE SMOOTH",
"233 1001 OFFCURVE",
"229 997 OFFCURVE",
"232 994 CURVE SMOOTH",
"237 988 OFFCURVE",
"248 980 OFFCURVE",
"264 972 CURVE",
"268 984 OFFCURVE",
"268 993 OFFCURVE",
"264 1000 CURVE SMOOTH"
);
}
);
width = 0;
}
);
unicode = 0619;
},
{
glyphname = uni061D;
layers = (
{
layerId = "7FE84AD5-D318-40C5-A81A-3CDC73FF77D2";
paths = (
{
closed = 1;
nodes = (
"361 212 OFFCURVE",
"336 276 OFFCURVE",
"294 329 CURVE SMOOTH",
"276 350 OFFCURVE",
"246 378 OFFCURVE",
"203 413 CURVE SMOOTH",
"168 441 OFFCURVE",
"141 465 OFFCURVE",
"122 485 CURVE SMOOTH",
"116 491 OFFCURVE",
"119 508 OFFCURVE",
"123 513 CURVE SMOOTH",
"152 568 OFFCURVE",
"227 655 OFFCURVE",
"304 655 CURVE SMOOTH",
"352 655 OFFCURVE",
"381 631 OFFCURVE",
"381 579 CURVE SMOOTH",
"381 556 OFFCURVE",
"373 525 OFFCURVE",
"357 486 CURVE",
"372 476 LINE",
"399 516 OFFCURVE",
"420 574 OFFCURVE",
"420 635 CURVE SMOOTH",
"420 707 OFFCURVE",
"387 758 OFFCURVE",
"317 758 CURVE SMOOTH",
"206 758 OFFCURVE",
"116 642 OFFCURVE",
"87 583 CURVE SMOOTH",
"78 564 OFFCURVE",
"72 542 OFFCURVE",
"72 517 CURVE SMOOTH",
"72 459 OFFCURVE",
"99 398 OFFCURVE",
"131 370 CURVE SMOOTH",
"173 331 OFFCURVE",
"227 297 OFFCURVE",
"262 250 CURVE SMOOTH",
"316 183 OFFCURVE",
"336 134 OFFCURVE",
"376 47 CURVE SMOOTH",
"395 1 OFFCURVE",
"433 -43 OFFCURVE",
"488 -43 CURVE SMOOTH",
"548 -43 OFFCURVE",
"603 18 OFFCURVE",
"603 80 CURVE SMOOTH",
"603 124 OFFCURVE",
"577 166 OFFCURVE",
"534 166 CURVE SMOOTH",
"493 166 OFFCURVE",
"466 136 OFFCURVE",
"466 95 CURVE SMOOTH",
"466 83 OFFCURVE",
"468 70 OFFCURVE",
"473 55 CURVE",
"466 53 OFFCURVE",
"461 52 OFFCURVE",
"455 52 CURVE SMOOTH",
"406 52 OFFCURVE",
"386 125 OFFCURVE",
"378 154 CURVE SMOOTH"
);
}
);
width = 674;
}
);
unicode = 061D;
},
{
glyphname = "question-ar";
layers = (
{
components = (
{
name = dot.2;
transform = "{1, 0, 0, 1, 44, 0}";
}
);
layerId = "7FE84AD5-D318-40C5-A81A-3CDC73FF77D2";
paths = (
{
closed = 1;
nodes = (
"325 565 OFFCURVE",
"310 598 OFFCURVE",
"276 620 CURVE SMOOTH",
"255 634 OFFCURVE",
"233 640 OFFCURVE",
"207 640 CURVE SMOOTH",
"179 639 OFFCURVE",
"158 631 OFFCURVE",
"144 614 CURVE SMOOTH",
"113 579 OFFCURVE",
"114 532 OFFCURVE",
"148 476 CURVE SMOOTH",
"193 402 OFFCURVE",
"216 327 OFFCURVE",
"219 252 CURVE SMOOTH",
"220 218 OFFCURVE",
"219 190 OFFCURVE",
"214 168 CURVE SMOOTH",
"212 160 OFFCURVE",
"208 156 OFFCURVE",
"201 156 CURVE SMOOTH",
"193 156 OFFCURVE",
"189 161 OFFCURVE",
"190 171 CURVE SMOOTH",
"191 184 OFFCURVE",
"191 198 OFFCURVE",
"191 210 CURVE SMOOTH",
"191 245 OFFCURVE",
"181 270 OFFCURVE",
"162 287 CURVE SMOOTH",
"93 346 OFFCURVE",
"53 392 OFFCURVE",
"42 428 CURVE SMOOTH",
"21 493 OFFCURVE",
"29 551 OFFCURVE",
"65 601 CURVE SMOOTH",
"98 646 OFFCURVE",
"146 668 OFFCURVE",
"210 669 CURVE SMOOTH",
"237 669 OFFCURVE",
"264 662 OFFCURVE",
"290 647 CURVE SMOOTH",
"318 631 OFFCURVE",
"338 605 OFFCURVE",
"349 570 CURVE SMOOTH",
"354 554 OFFCURVE",
"356 534 OFFCURVE",
"354 510 CURVE SMOOTH",
"352 486 OFFCURVE",
"349 469 OFFCURVE",
"344 458 CURVE SMOOTH",
"331 429 OFFCURVE",
"311 415 OFFCURVE",
"284 415 CURVE SMOOTH",
"265 415 OFFCURVE",
"250 422 OFFCURVE",
"239 435 CURVE SMOOTH",
"229 448 OFFCURVE",
"224 461 OFFCURVE",
"224 476 CURVE SMOOTH",
"224 491 OFFCURVE",
"228 504 OFFCURVE",
"237 516 CURVE SMOOTH",
"246 528 OFFCURVE",
"260 534 OFFCURVE",
"278 535 CURVE SMOOTH",
"297 536 OFFCURVE",
"311 530 OFFCURVE",
"322 519 CURVE"
);
}
);
width = 413;
}
);
unicode = 061F;
},
{
glyphname = "hamza-ar";
layers = (
{
anchors = (
{
name = TashkilAbove;
position = "{146, 342}";
},
{
name = TashkilBelow;
position = "{210, 29}";
}
);
layerId = "7FE84AD5-D318-40C5-A81A-3CDC73FF77D2";
paths = (
{
closed = 1;
nodes = (
"305 116 OFFCURVE",
"301 109 OFFCURVE",
"295 105 CURVE",
"245 87 OFFCURVE",
"183 54 OFFCURVE",
"109 4 CURVE SMOOTH",
"102 0 OFFCURVE",
"97 0 OFFCURVE",
"93 4 CURVE SMOOTH",
"82 15 OFFCURVE",
"97 38 OFFCURVE",
"138 73 CURVE",
"84 93 OFFCURVE",
"58 119 OFFCURVE",
"63 152 CURVE",
"66 179 OFFCURVE",
"87 215 OFFCURVE",
"125 259 CURVE SMOOTH",
"148 285 OFFCURVE",
"168 298 OFFCURVE",
"184 298 CURVE SMOOTH",
"218 298 OFFCURVE",
"233 279 OFFCURVE",
"230 242 CURVE SMOOTH",
"229 229 OFFCURVE",
"224 216 OFFCURVE",
"217 204 CURVE SMOOTH",
"210 192 OFFCURVE",
"201 190 OFFCURVE",
"192 199 CURVE SMOOTH",
"162 228 OFFCURVE",
"140 232 OFFCURVE",
"127 214 CURVE SMOOTH",
"113 193 OFFCURVE",
"125 174 OFFCURVE",
"163 156 CURVE SMOOTH",
"186 145 OFFCURVE",
"212 142 OFFCURVE",
"243 148 CURVE SMOOTH",
"252 150 OFFCURVE",
"262 154 OFFCURVE",
"274 161 CURVE SMOOTH",
"286 168 OFFCURVE",
"297 172 OFFCURVE",
"305 174 CURVE",
"318 176 OFFCURVE",
"321 168 OFFCURVE",
"316 151 CURVE SMOOTH",
"308 125 LINE SMOOTH"
);
}
);
width = 381;
}
);
unicode = 0621;
},
{
glyphname = "kashida-ar";
layers = (
{
anchors = (
{
name = AlefAbove;
position = "{93, 244}";
},
{
name = HamzaAbove;
position = "{93, 244}";
},
{
name = HamzaBelow;
position = "{93, -92.773}";
},
{
name = MarkAbove;
position = "{93, 801}";
},
{
name = MarkBelow;
position = "{93, -327}";
},
{
name = NoonAbove;
position = "{93, 244}";
}
);
layerId = "7FE84AD5-D318-40C5-A81A-3CDC73FF77D2";
paths = (
{
closed = 1;
nodes = (
"-6 0 OFFCURVE",
"-10 5 OFFCURVE",
"-13 15 CURVE SMOOTH",
"-25 59 LINE SMOOTH",
"-31 81 OFFCURVE",
"-22 91 OFFCURVE",
"0 90 CURVE SMOOTH",
"186 90 LINE SMOOTH",
"208 91 OFFCURVE",
"217 81 OFFCURVE",
"211 59 CURVE SMOOTH",
"198 15 LINE SMOOTH",
"195 5 OFFCURVE",
"192 0 OFFCURVE",
"186 0 CURVE SMOOTH",
"0 0 LINE SMOOTH"
);
}
);
width = 185;
}
);
unicode = 0640;
},
{
glyphname = "fathatan-ar";
layers = (
{
anchors = (
{
name = TashkilTashkilAbove;
position = "{140, 1060}";
},
{
name = _MarkAbove;
position = "{258, 801}";
},
{
name = _TashkilAbove;
position = "{258, 801}";
},
{
name = _TashkilAboveDot;
position = "{258, 801}";
}
);
layerId = "7FE84AD5-D318-40C5-A81A-3CDC73FF77D2";
paths = (
{
closed = 1;
nodes = (
"357 1027 OFFCURVE",
"366 1024 OFFCURVE",
"359 1004 CURVE SMOOTH",
"349 973 LINE SMOOTH",
"346 963 OFFCURVE",
"340 955 OFFCURVE",
"332 950 CURVE SMOOTH",
"157 843 LINE SMOOTH",
"143 835 OFFCURVE",
"138 837 OFFCURVE",
"140 852 CURVE SMOOTH",
"143 871 LINE SMOOTH",
"145 880 OFFCURVE",
"150 888 OFFCURVE",
"159 895 CURVE SMOOTH",
"336 1012 LINE SMOOTH"
);
},
{
closed = 1;
nodes = (
"352 1124 OFFCURVE",
"359 1122 OFFCURVE",
"354 1104 CURVE SMOOTH",
"347 1078 LINE SMOOTH",
"344 1067 OFFCURVE",
"337 1058 OFFCURVE",
"326 1052 CURVE SMOOTH",
"149 949 LINE SMOOTH",
"127 936 OFFCURVE",
"120 939 OFFCURVE",
"128 959 CURVE SMOOTH",
"137 978 LINE SMOOTH",
"141 987 OFFCURVE",
"145 994 OFFCURVE",
"152 998 CURVE SMOOTH",
"333 1112 LINE SMOOTH"
);
}
);
width = 0;
}
);
unicode = 064B;
},
{
glyphname = "dammatan-ar";
layers = (
{
anchors = (
{
name = TashkilTashkilAbove;
position = "{91, 1060}";
},
{
name = _MarkAbove;
position = "{249, 801}";
},
{
name = _TashkilAbove;
position = "{249, 801}";
},
{
name = _TashkilAboveDot;
position = "{249, 801}";
}
);
layerId = "7FE84AD5-D318-40C5-A81A-3CDC73FF77D2";
paths = (
{
closed = 1;
nodes = (
"307 1105 OFFCURVE",
"314 1098 OFFCURVE",
"318 1084 CURVE SMOOTH",
"322 1070 OFFCURVE",
"325 1055 OFFCURVE",
"324 1041 CURVE SMOOTH",
"323 1027 OFFCURVE",
"321 1012 OFFCURVE",
"316 998 CURVE",
"327 991 OFFCURVE",
"335 986 OFFCURVE",
"340 983 CURVE SMOOTH",
"345 980 OFFCURVE",
"348 977 OFFCURVE",
"347 974 CURVE SMOOTH",
"340 941 LINE SMOOTH",
"338 931 OFFCURVE",
"330 929 OFFCURVE",
"316 938 CURVE SMOOTH",
"305 945 OFFCURVE",
"296 951 OFFCURVE",
"292 955 CURVE",
"263 901 OFFCURVE",
"219 866 OFFCURVE",
"158 848 CURVE SMOOTH",
"143 843 OFFCURVE",
"135 846 OFFCURVE",
"133 855 CURVE SMOOTH",
"131 864 OFFCURVE",
"138 871 OFFCURVE",
"154 876 CURVE SMOOTH",
"209 892 OFFCURVE",
"249 923 OFFCURVE",
"273 968 CURVE",
"250 985 OFFCURVE",
"237 998 OFFCURVE",
"234 1008 CURVE SMOOTH",
"231 1018 OFFCURVE",
"232 1032 OFFCURVE",
"238 1049 CURVE SMOOTH",
"244 1066 OFFCURVE",
"252 1081 OFFCURVE",
"263 1092 CURVE SMOOTH",
"274 1103 OFFCURVE",
"286 1107 OFFCURVE",
"298 1106 CURVE SMOOTH"
);
},
{
closed = 1;
nodes = (
"282 1053 OFFCURVE",
"272 1054 OFFCURVE",
"259 1047 CURVE SMOOTH",
"253 1044 OFFCURVE",
"254 1039 OFFCURVE",
"261 1033 CURVE SMOOTH",
"272 1024 OFFCURVE",
"283 1018 OFFCURVE",
"292 1014 CURVE SMOOTH",
"295 1013 OFFCURVE",
"295 1018 OFFCURVE",
"294 1028 CURVE SMOOTH",
"293 1036 OFFCURVE",
"292 1041 OFFCURVE",
"289 1045 CURVE SMOOTH"
);
},
{
closed = 1;
nodes = (
"218 1013 OFFCURVE",
"219 1009 OFFCURVE",
"216 1000 CURVE SMOOTH",
"208 974 LINE SMOOTH",
"204 963 OFFCURVE",
"197 959 OFFCURVE",
"185 962 CURVE SMOOTH",
"174 966 OFFCURVE",
"165 976 OFFCURVE",
"159 992 CURVE SMOOTH",
"153 1008 OFFCURVE",
"152 1025 OFFCURVE",
"156 1042 CURVE SMOOTH",
"163 1073 OFFCURVE",
"180 1103 OFFCURVE",
"207 1132 CURVE SMOOTH",
"268 1199 OFFCURVE",
"311 1226 OFFCURVE",
"337 1213 CURVE SMOOTH",
"346 1208 OFFCURVE",
"352 1200 OFFCURVE",
"353 1187 CURVE SMOOTH",
"354 1174 OFFCURVE",
"350 1160 OFFCURVE",
"342 1147 CURVE SMOOTH",
"335 1136 OFFCURVE",
"326 1135 OFFCURVE",
"316 1145 CURVE SMOOTH",
"298 1163 OFFCURVE",
"276 1162 OFFCURVE",
"250 1143 CURVE SMOOTH",
"227 1127 OFFCURVE",
"211 1110 OFFCURVE",
"201 1094 CURVE SMOOTH",
"189 1075 OFFCURVE",
"182 1060 OFFCURVE",
"181 1048 CURVE SMOOTH",
"180 1036 OFFCURVE",
"183 1027 OFFCURVE",
"190 1020 CURVE SMOOTH",
"197 1013 OFFCURVE",
"205 1011 OFFCURVE",
"213 1012 CURVE SMOOTH"
);
}
);
width = 0;
}
);
unicode = 064C;
},
{
glyphname = "fatha-ar";
layers = (
{
anchors = (
{
name = TashkilTashkilAbove;
position = "{145, 955}";
},
{
name = _MarkAbove;
position = "{268, 801}";
},
{
name = _TashkilAbove;
position = "{271, 801}";
},
{
name = _TashkilAboveDot;
position = "{271, 801}";
}
);
layerId = "7FE84AD5-D318-40C5-A81A-3CDC73FF77D2";
paths = (
{
closed = 1;
nodes = (
"371 1031 OFFCURVE",
"377 1028 OFFCURVE",
"372 1011 CURVE SMOOTH",
"362 979 LINE SMOOTH",
"360 971 OFFCURVE",
"352 962 OFFCURVE",
"340 955 CURVE SMOOTH",
"146 843 LINE SMOOTH",
"134 836 OFFCURVE",
"128 839 OFFCURVE",
"128 852 CURVE SMOOTH",
"128 869 LINE SMOOTH",
"128 876 OFFCURVE",
"135 883 OFFCURVE",
"146 892 CURVE SMOOTH",
"354 1021 LINE SMOOTH"
);
}
);
width = 0;
}
);
unicode = 064E;
},
{
glyphname = "damma-ar";
layers = (
{
anchors = (
{
name = TashkilTashkilAbove;
position = "{195, 1074}";
},
{
name = _MarkAbove;
position = "{278, 801}";
},
{
name = _TashkilAbove;
position = "{278, 801}";
},
{
name = _TashkilAboveDot;
position = "{278, 801}";
}
);
layerId = "7FE84AD5-D318-40C5-A81A-3CDC73FF77D2";
paths = (
{
closed = 1;
nodes = (
"322 1148 OFFCURVE",
"331 1142 OFFCURVE",
"339 1130 CURVE SMOOTH",
"356 1104 OFFCURVE",
"356 1070 OFFCURVE",
"339 1026 CURVE",
"350 1020 OFFCURVE",
"357 1015 OFFCURVE",
"362 1013 CURVE SMOOTH",
"371 1009 OFFCURVE",
"373 1003 OFFCURVE",
"368 993 CURVE SMOOTH",
"357 972 LINE SMOOTH",
"353 965 OFFCURVE",
"348 963 OFFCURVE",
"342 965 CURVE SMOOTH",
"336 967 OFFCURVE",
"327 971 OFFCURVE",
"315 978 CURVE",
"269 917 OFFCURVE",
"217 872 OFFCURVE",
"158 843 CURVE SMOOTH",
"145 836 OFFCURVE",
"137 837 OFFCURVE",
"132 845 CURVE SMOOTH",
"127 855 OFFCURVE",
"131 864 OFFCURVE",
"146 872 CURVE SMOOTH",
"206 907 OFFCURVE",
"254 948 OFFCURVE",
"289 993 CURVE",
"270 1003 OFFCURVE",
"256 1012 OFFCURVE",
"247 1021 CURVE SMOOTH",
"231 1036 OFFCURVE",
"227 1053 OFFCURVE",
"234 1070 CURVE SMOOTH",
"253 1116 OFFCURVE",
"279 1141 OFFCURVE",
"311 1146 CURVE SMOOTH"
);
},
{
closed = 1;
nodes = (
"285 1096 OFFCURVE",
"273 1094 OFFCURVE",
"264 1079 CURVE SMOOTH",
"261 1075 OFFCURVE",
"263 1070 OFFCURVE",
"269 1064 CURVE SMOOTH",
"275 1058 OFFCURVE",
"290 1049 OFFCURVE",
"311 1039 CURVE",
"314 1059 OFFCURVE",
"310 1074 OFFCURVE",
"300 1082 CURVE SMOOTH"
);
}
);
width = 0;
}
);
unicode = 064F;
},
{
glyphname = "shadda-ar";
layers = (
{
anchors = (
{
name = TashkilTashkilAbove;
position = "{200, 1003}";
},
{
name = TashkilTashkilBelow;
position = "{198, 801}";
},
{
name = _MarkAbove;
position = "{208, 801}";
},
{
name = _TashkilAbove;
position = "{208, 801}";
},
{
name = _TashkilAboveDot;
position = "{208, 801}";
}
);
layerId = "7FE84AD5-D318-40C5-A81A-3CDC73FF77D2";
paths = (
{
closed = 1;
nodes = (
"301 998 OFFCURVE",
"306 1005 OFFCURVE",
"314 1004 CURVE SMOOTH",
"324 1003 OFFCURVE",
"329 996 OFFCURVE",
"328 983 CURVE SMOOTH",
"326 947 OFFCURVE",
"319 918 OFFCURVE",
"308 894 CURVE SMOOTH",
"295 866 OFFCURVE",
"276 850 OFFCURVE",
"252 848 CURVE SMOOTH",
"236 847 OFFCURVE",
"222 855 OFFCURVE",
"208 872 CURVE",
"199 855 OFFCURVE",
"185 843 OFFCURVE",
"170 835 CURVE SMOOTH",
"153 826 OFFCURVE",
"137 825 OFFCURVE",
"121 832 CURVE SMOOTH",
"82 848 OFFCURVE",
"78 894 OFFCURVE",
"108 972 CURVE SMOOTH",
"113 984 OFFCURVE",
"120 988 OFFCURVE",
"129 984 CURVE SMOOTH",
"136 981 OFFCURVE",
"139 974 OFFCURVE",
"136 962 CURVE SMOOTH",
"125 923 OFFCURVE",
"129 902 OFFCURVE",
"150 899 CURVE SMOOTH",
"175 896 OFFCURVE",
"195 923 OFFCURVE",
"210 980 CURVE SMOOTH",
"213 991 OFFCURVE",
"219 996 OFFCURVE",
"226 994 CURVE SMOOTH",
"234 992 OFFCURVE",
"238 987 OFFCURVE",
"236 979 CURVE SMOOTH",
"230 945 OFFCURVE",
"238 928 OFFCURVE",
"260 928 CURVE SMOOTH",
"282 928 OFFCURVE",
"295 946 OFFCURVE",
"299 983 CURVE SMOOTH"
);
}
);
width = 0;
}
);
unicode = 0651;
},
{
glyphname = "sukun-ar";
layers = (
{
anchors = (
{
name = _MarkAbove;
position = "{180, 801}";
},
{
name = _TashkilAbove;
position = "{182, 801}";
},
{
name = _TashkilAboveDot;
position = "{182, 801}";
},
{
name = _TashkilTashkilAbove;
position = "{112, 791}";
}
);
layerId = "7FE84AD5-D318-40C5-A81A-3CDC73FF77D2";
paths = (
{
closed = 1;
nodes = (
"144 1033 OFFCURVE",
"178 1041 OFFCURVE",
"220 1009 CURVE SMOOTH",
"247 988 OFFCURVE",
"262 964 OFFCURVE",
"264 934 CURVE SMOOTH",
"266 898 OFFCURVE",
"255 871 OFFCURVE",
"231 854 CURVE SMOOTH",
"213 842 OFFCURVE",
"192 837 OFFCURVE",
"166 839 CURVE SMOOTH",
"112 843 OFFCURVE",
"91 876 OFFCURVE",
"101 939 CURVE SMOOTH",
"104 956 OFFCURVE",
"110 970 OFFCURVE",
"117 984 CURVE SMOOTH"
);
},
{
closed = 1;
nodes = (
"242 914 OFFCURVE",
"242 927 OFFCURVE",
"222 947 CURVE SMOOTH",
"208 961 OFFCURVE",
"190 969 OFFCURVE",
"169 969 CURVE SMOOTH",
"144 970 OFFCURVE",
"131 959 OFFCURVE",
"130 937 CURVE SMOOTH",
"130 923 OFFCURVE",
"135 913 OFFCURVE",
"146 909 CURVE SMOOTH",
"169 901 OFFCURVE",
"195 901 OFFCURVE",
"223 909 CURVE SMOOTH"
);
}
);
width = 0;
}
);
unicode = 0652;
},
{
glyphname = "madda-ar";
layers = (
{
anchors = (
{
name = _MarkAbove;
position = "{0, 767}";
},
{
name = _TashkilAbove;
position = "{0, 801}";
}
);
layerId = "7FE84AD5-D318-40C5-A81A-3CDC73FF77D2";
paths = (
{
closed = 1;
nodes = (
"208 915 OFFCURVE",
"216 911 OFFCURVE",
"220 901 CURVE SMOOTH",
"224 891 OFFCURVE",
"220 882 OFFCURVE",
"211 876 CURVE SMOOTH",
"139 829 OFFCURVE",
"23 808 OFFCURVE",
"-138 813 CURVE",
"-144 800 OFFCURVE",
"-150 790 OFFCURVE",
"-156 783 CURVE SMOOTH",
"-162 776 OFFCURVE",
"-166 775 OFFCURVE",
"-170 779 CURVE SMOOTH",
"-217 827 LINE",
"-226 835 OFFCURVE",
"-216 856 OFFCURVE",
"-186 891 CURVE SMOOTH",
"-180 897 OFFCURVE",
"-171 899 OFFCURVE",
"-158 897 CURVE SMOOTH",
"-40 878 OFFCURVE",
"79 883 OFFCURVE",
"196 912 CURVE SMOOTH"
);
}
);
width = 0;
}
);
unicode = 0653;
},
{
glyphname = "hamzaabove-ar";
layers = (
{
anchors = (
{
name = TashkilTashkilAbove;
position = "{-24, 718}";
},
{
name = _HamzaAbove;
position = "{0, 464}";
},
{
name = _MarkAbove;
position = "{0, 405}";
},
{
name = _TashkilAbove;
position = "{0, 464}";
}
);
layerId = "7FE84AD5-D318-40C5-A81A-3CDC73FF77D2";
paths = (
{
closed = 1;
nodes = (
"38 473 OFFCURVE",
"12 468 OFFCURVE",
"-3 463 CURVE SMOOTH",
"-18 458 OFFCURVE",
"-46 446 OFFCURVE",
"-87 428 CURVE SMOOTH",
"-96 424 OFFCURVE",
"-102 426 OFFCURVE",
"-106 432 CURVE SMOOTH",
"-114 444 OFFCURVE",
"-101 460 OFFCURVE",
"-67 481 CURVE",
"-92 493 OFFCURVE",
"-106 507 OFFCURVE",
"-109 523 CURVE SMOOTH",
"-114 550 OFFCURVE",
"-103 584 OFFCURVE",
"-75 622 CURVE",
"-47 660 OFFCURVE",
"-18 678 OFFCURVE",
"14 675 CURVE SMOOTH",
"34 673 OFFCURVE",
"43 662 OFFCURVE",
"41 641 CURVE SMOOTH",
"39 620 OFFCURVE",
"33 603 OFFCURVE",
"23 589 CURVE SMOOTH",
"13 575 OFFCURVE",
"6 573 OFFCURVE",
"-1 584 CURVE SMOOTH",
"-8 595 OFFCURVE",
"-18 602 OFFCURVE",
"-31 603 CURVE SMOOTH",
"-44 604 OFFCURVE",
"-55 600 OFFCURVE",
"-62 591 CURVE SMOOTH",
"-69 582 OFFCURVE",
"-70 573 OFFCURVE",
"-61 565 CURVE SMOOTH",
"-39 544 OFFCURVE",
"-6 533 OFFCURVE",
"37 532 CURVE SMOOTH",
"44 532 OFFCURVE",
"53 534 OFFCURVE",
"67 537 CURVE SMOOTH",
"81 540 OFFCURVE",
"91 542 OFFCURVE",
"96 542 CURVE SMOOTH",
"101 542 OFFCURVE",
"106 539 OFFCURVE",
"108 535 CURVE SMOOTH",
"110 531 OFFCURVE",
"111 528 OFFCURVE",
"109 524 CURVE SMOOTH",
"96 497 OFFCURVE",
"85 482 OFFCURVE",
"74 480 CURVE SMOOTH"
);
}
);
width = 0;
}
);
unicode = 0654;
},
{
glyphname = "noonghunnaabove-ar";
layers = (
{
anchors = (
{
name = _MarkAbove;
position = "{180, 801}";
},
{
name = _TashkilAbove;
position = "{182, 801}";
},
{
name = _TashkilAboveDot;
position = "{182, 801}";
}
);
layerId = "7FE84AD5-D318-40C5-A81A-3CDC73FF77D2";
paths = (
{
closed = 1;
nodes = (
"152 1016 OFFCURVE",
"157 1020 OFFCURVE",
"161 1020 CURVE SMOOTH",
"165 1020 OFFCURVE",
"167 1014 OFFCURVE",
"166 1006 CURVE SMOOTH",
"159 952 OFFCURVE",
"176 922 OFFCURVE",
"216 917 CURVE SMOOTH",
"229 915 OFFCURVE",
"240 923 OFFCURVE",
"250 937 CURVE SMOOTH",
"257 947 OFFCURVE",
"262 951 OFFCURVE",
"266 949 CURVE SMOOTH",
"270 947 OFFCURVE",
"270 942 OFFCURVE",
"267 931 CURVE SMOOTH",
"249 873 OFFCURVE",
"221 843 OFFCURVE",
"183 843 CURVE SMOOTH",
"141 843 OFFCURVE",
"118 863 OFFCURVE",
"115 904 CURVE SMOOTH",
"113 938 OFFCURVE",
"123 973 OFFCURVE",
"147 1009 CURVE SMOOTH"
);
}
);
width = 0;
}
);
unicode = 0658;
},
{
glyphname = "fathaHorizont-ar";
layers = (
{
anchors = (
{
name = _MarkAbove;
position = "{268, 801}";
},
{
name = _TashkilAbove;
position = "{271, 801}";
},
{
name = _TashkilAboveDot;
position = "{271, 801}";
}
);
layerId = "7FE84AD5-D318-40C5-A81A-3CDC73FF77D2";
paths = (
{
closed = 1;
nodes = (
"112 845 OFFCURVE",
"108 851 OFFCURVE",
"121 863 CURVE SMOOTH",
"146 886 LINE SMOOTH",
"153 892 OFFCURVE",
"163 896 OFFCURVE",
"177 896 CURVE SMOOTH",
"411 896 LINE SMOOTH",
"431 896 OFFCURVE",
"435 889 OFFCURVE",
"422 877 CURVE SMOOTH",
"396 854 LINE SMOOTH",
"389 848 OFFCURVE",
"380 845 OFFCURVE",
"366 845 CURVE SMOOTH",
"132 845 LINE SMOOTH"
);
}
);
width = 0;
}
);
unicode = 0659;
},
{
glyphname = "vabove-ar";
layers = (
{
anchors = (
{
name = TashkilTashkilAbove;
position = "{0, 732}";
},
{
name = _MarkAbove;
position = "{0, 410}";
},
{
name = _MarkDotAbove;
position = "{0, 464}";
},
{
name = _TashkilAbove;
position = "{0, 464}";
},
{
name = _VAbove;
position = "{0, 464}";
}
);
layerId = "7FE84AD5-D318-40C5-A81A-3CDC73FF77D2";
paths = (
{
closed = 1;
nodes = (
"88 611 LINE SMOOTH",
"90 607 OFFCURVE",
"91 605 OFFCURVE",
"91 602 CURVE SMOOTH",
"91 599 OFFCURVE",
"90 595 OFFCURVE",
"88 592 CURVE SMOOTH",
"55 538 OFFCURVE",
"33 491 OFFCURVE",
"22 452 CURVE SMOOTH",
"13 445 LINE SMOOTH",
"12 444 OFFCURVE",
"10 444 OFFCURVE",
"8 444 CURVE SMOOTH",
"5 444 OFFCURVE",
"3 446 OFFCURVE",
"0 449 CURVE SMOOTH",
"-38 496 OFFCURVE",
"-68 546 OFFCURVE",
"-89 599 CURVE SMOOTH",
"-91 604 OFFCURVE",
"-92 608 OFFCURVE",
"-92 611 CURVE SMOOTH",
"-92 617 OFFCURVE",
"-89 621 OFFCURVE",
"-83 623 CURVE SMOOTH",
"-75 626 OFFCURVE",
"-68 621 OFFCURVE",
"-64 610 CURVE SMOOTH",
"-55 586 OFFCURVE",
"-37 552 OFFCURVE",
"-12 509 CURVE",
"2 558 OFFCURVE",
"22 601 OFFCURVE",
"51 636 CURVE SMOOTH",
"55 641 OFFCURVE",
"59 643 OFFCURVE",
"62 643 CURVE SMOOTH",
"65 643 OFFCURVE",
"67 641 OFFCURVE",
"69 638 CURVE SMOOTH"
);
}
);
width = 0;
}
);
unicode = 065A;
},
{
glyphname = "vinvertedabove-ar";
layers = (
{
anchors = (
{
name = TashkilTashkilAbove;
position = "{0, 732}";
},
{
name = _MarkAbove;
position = "{0, 410}";
},
{
name = _TashkilAbove;
position = "{0, 464}";
},
{
name = _TashkilAboveDot;
position = "{0, 464}";
},
{
name = _VAbove;
position = "{0, 464}";
}
);
layerId = "7FE84AD5-D318-40C5-A81A-3CDC73FF77D2";
paths = (
{
closed = 1;
nodes = (
"75 455 OFFCURVE",
"73 453 OFFCURVE",
"70 453 CURVE SMOOTH",
"67 452 OFFCURVE",
"63 454 OFFCURVE",
"59 458 CURVE SMOOTH",
"27 490 OFFCURVE",
"1 529 OFFCURVE",
"-18 577 CURVE",
"-39 532 OFFCURVE",
"-51 497 OFFCURVE",
"-58 472 CURVE SMOOTH",
"-61 461 OFFCURVE",
"-67 455 OFFCURVE",
"-75 457 CURVE SMOOTH",
"-82 458 OFFCURVE",
"-85 462 OFFCURVE",
"-86 468 CURVE SMOOTH",
"-86 471 OFFCURVE",
"-85 474 OFFCURVE",
"-84 479 CURVE SMOOTH",
"-68 534 OFFCURVE",
"-44 588 OFFCURVE",
"-11 639 CURVE SMOOTH",
"-9 643 OFFCURVE",
"-7 645 OFFCURVE",
"-4 645 CURVE SMOOTH",
"-2 645 OFFCURVE",
"-1 645 OFFCURVE",
"0 644 CURVE SMOOTH",
"10 638 LINE SMOOTH",
"26 600 OFFCURVE",
"53 555 OFFCURVE",
"91 505 CURVE SMOOTH",
"94 502 OFFCURVE",
"95 500 OFFCURVE",
"95 497 CURVE SMOOTH",
"95 494 OFFCURVE",
"95 491 OFFCURVE",
"93 487 CURVE SMOOTH",
"77 458 LINE SMOOTH"
);
}
);
width = 0;
}
);
unicode = 065B;
},
{
glyphname = "dammareversed-ar";
layers = (
{
anchors = (
{
name = _MarkAbove;
position = "{278, 801}";
},
{
name = _TashkilAbove;
position = "{278, 801}";
},
{
name = _TashkilAboveDot;
position = "{278, 801}";
}
);
layerId = "7FE84AD5-D318-40C5-A81A-3CDC73FF77D2";
paths = (
{
closed = 1;
nodes = (
"221 1141 OFFCURVE",
"247 1116 OFFCURVE",
"266 1070 CURVE SMOOTH",
"273 1053 OFFCURVE",
"268 1036 OFFCURVE",
"252 1021 CURVE SMOOTH",
"243 1012 OFFCURVE",
"229 1003 OFFCURVE",
"210 993 CURVE",
"245 948 OFFCURVE",
"294 907 OFFCURVE",
"354 872 CURVE SMOOTH",
"369 864 OFFCURVE",
"373 855 OFFCURVE",
"368 845 CURVE SMOOTH",
"363 837 OFFCURVE",
"354 836 OFFCURVE",
"341 843 CURVE SMOOTH",
"282 872 OFFCURVE",
"231 917 OFFCURVE",
"185 978 CURVE",
"173 971 OFFCURVE",
"163 967 OFFCURVE",
"157 965 CURVE SMOOTH",
"151 963 OFFCURVE",
"147 965 OFFCURVE",
"143 972 CURVE SMOOTH",
"131 993 LINE SMOOTH",
"126 1003 OFFCURVE",
"128 1009 OFFCURVE",
"137 1013 CURVE SMOOTH",
"142 1015 OFFCURVE",
"150 1020 OFFCURVE",
"161 1026 CURVE",
"144 1070 OFFCURVE",
"143 1104 OFFCURVE",
"160 1130 CURVE SMOOTH",
"168 1142 OFFCURVE",
"178 1148 OFFCURVE",
"189 1146 CURVE SMOOTH"
);
},
{
closed = 1;
nodes = (
"189 1074 OFFCURVE",
"186 1059 OFFCURVE",
"189 1039 CURVE",
"210 1049 OFFCURVE",
"224 1058 OFFCURVE",
"230 1064 CURVE SMOOTH",
"236 1070 OFFCURVE",
"238 1075 OFFCURVE",
"235 1079 CURVE SMOOTH",
"226 1094 OFFCURVE",
"214 1096 OFFCURVE",
"199 1082 CURVE SMOOTH"
);
}
);
width = 0;
}
);
unicode = 065D;
},
{
glyphname = "fathatwodots-ar";
layers = (
{
anchors = (
{
name = _MarkAbove;
position = "{268, 801}";
},
{
name = _TashkilAbove;
position = "{271, 801}";
},
{
name = _TashkilAboveDot;
position = "{271, 801}";
}
);
components = (
{
name = "fatha-ar";
}
);
layerId = "7FE84AD5-D318-40C5-A81A-3CDC73FF77D2";
paths = (
{
closed = 1;
nodes = (
"153 1018 OFFCURVE",
"154 1018 OFFCURVE",
"155 1018 CURVE SMOOTH",
"164 1018 OFFCURVE",
"176 1011 OFFCURVE",
"192 997 CURVE SMOOTH",
"193 996 OFFCURVE",
"194 994 OFFCURVE",
"193 992 CURVE SMOOTH",
"169 955 LINE SMOOTH",
"168 953 OFFCURVE",
"167 953 OFFCURVE",
"165 955 CURVE SMOOTH",
"163 957 OFFCURVE",
"156 961 OFFCURVE",
"145 968 CURVE SMOOTH",
"134 975 OFFCURVE",
"128 978 OFFCURVE",
"128 979 CURVE SMOOTH",
"128 980 OFFCURVE",
"128 980 OFFCURVE",
"128 980 CURVE SMOOTH",
"153 1017 LINE SMOOTH"
);
},
{
closed = 1;
nodes = (
"332 913 OFFCURVE",
"332 913 OFFCURVE",
"333 913 CURVE SMOOTH",
"334 913 OFFCURVE",
"338 912 OFFCURVE",
"346 909 CURVE SMOOTH",
"354 906 OFFCURVE",
"359 902 OFFCURVE",
"364 897 CURVE SMOOTH",
"369 891 OFFCURVE",
"372 888 OFFCURVE",
"371 887 CURVE SMOOTH",
"347 850 LINE SMOOTH",
"347 849 OFFCURVE",
"347 849 OFFCURVE",
"346 849 CURVE SMOOTH",
"345 849 OFFCURVE",
"342 851 OFFCURVE",
"335 856 CURVE SMOOTH",
"328 861 OFFCURVE",
"322 865 OFFCURVE",
"315 868 CURVE SMOOTH",
"308 871 OFFCURVE",
"306 873 OFFCURVE",
"306 874 CURVE SMOOTH",
"306 875 OFFCURVE",
"306 875 OFFCURVE",
"306 875 CURVE SMOOTH",
"331 912 LINE SMOOTH"
);
}
);
width = 0;
}
);
unicode = 065E;
},
{
glyphname = "wavyhamzabelow-ar";
layers = (
{
anchors = (
{
name = TashkilTashkilBelow;
position = "{0, -547}";
},
{
name = _HamzaBelow;
position = "{0, -244}";
},
{
name = _MarkBelow;
position = "{0, -225}";
},
{
name = _TashkilBelow;
position = "{0, -244}";
}
);
layerId = "7FE84AD5-D318-40C5-A81A-3CDC73FF77D2";
paths = (
{
closed = 1;
nodes = (
"-77 -447 OFFCURVE",
"-71 -443 OFFCURVE",
"-67 -438 CURVE",
"-92 -426 OFFCURVE",
"-106 -412 OFFCURVE",
"-109 -396 CURVE SMOOTH",
"-114 -369 OFFCURVE",
"-103 -336 OFFCURVE",
"-75 -298 CURVE",
"-47 -260 OFFCURVE",
"-18 -242 OFFCURVE",
"14 -245 CURVE SMOOTH",
"34 -247 OFFCURVE",
"43 -258 OFFCURVE",
"41 -279 CURVE SMOOTH",
"39 -300 OFFCURVE",
"33 -317 OFFCURVE",
"23 -331 CURVE SMOOTH",
"13 -345 OFFCURVE",
"6 -346 OFFCURVE",
"-1 -335 CURVE SMOOTH",
"-8 -324 OFFCURVE",
"-18 -318 OFFCURVE",
"-31 -317 CURVE SMOOTH",
"-44 -316 OFFCURVE",
"-55 -320 OFFCURVE",
"-62 -329 CURVE SMOOTH",
"-69 -338 OFFCURVE",
"-70 -346 OFFCURVE",
"-61 -354 CURVE SMOOTH",
"-39 -375 OFFCURVE",
"-6 -387 OFFCURVE",
"37 -388 CURVE SMOOTH",
"44 -388 OFFCURVE",
"53 -386 OFFCURVE",
"67 -383 CURVE SMOOTH",
"81 -380 OFFCURVE",
"91 -378 OFFCURVE",
"96 -378 CURVE SMOOTH",
"101 -378 OFFCURVE",
"106 -381 OFFCURVE",
"108 -385 CURVE SMOOTH",
"110 -389 OFFCURVE",
"111 -392 OFFCURVE",
"109 -396 CURVE SMOOTH",
"97 -423 OFFCURVE",
"85 -437 OFFCURVE",
"74 -439 CURVE SMOOTH",
"23 -450 OFFCURVE",
"-30 -468 OFFCURVE",
"-87 -492 CURVE SMOOTH",
"-104 -499 OFFCURVE",
"-130 -495 OFFCURVE",
"-165 -481 CURVE SMOOTH",
"-182 -474 OFFCURVE",
"-195 -476 OFFCURVE",
"-207 -484 CURVE SMOOTH",
"-219 -492 OFFCURVE",
"-232 -506 OFFCURVE",
"-246 -526 CURVE",
"-248 -529 OFFCURVE",
"-250 -529 OFFCURVE",
"-253 -526 CURVE SMOOTH",
"-256 -523 OFFCURVE",
"-256 -520 OFFCURVE",
"-255 -517 CURVE SMOOTH",
"-232 -477 OFFCURVE",
"-212 -451 OFFCURVE",
"-195 -440 CURVE SMOOTH",
"-180 -430 OFFCURVE",
"-164 -427 OFFCURVE",
"-148 -434 CURVE SMOOTH",
"-113 -448 OFFCURVE",
"-91 -453 OFFCURVE",
"-84 -450 CURVE SMOOTH"
);
}
);
width = 0;
}
);
unicode = 065F;
},
{
glyphname = "zero-ar";
layers = (
{
layerId = "7FE84AD5-D318-40C5-A81A-3CDC73FF77D2";
paths = (
{
closed = 1;
nodes = (
"256 326 OFFCURVE",
"266 328 OFFCURVE",
"281 318 CURVE SMOOTH",
"364 265 LINE SMOOTH",
"376 257 OFFCURVE",
"379 246 OFFCURVE",
"374 231 CURVE SMOOTH",
"342 132 LINE SMOOTH",
"336 115 OFFCURVE",
"325 113 OFFCURVE",
"308 123 CURVE SMOOTH",
"217 176 LINE SMOOTH",
"209 181 OFFCURVE",
"208 191 OFFCURVE",
"213 206 CURVE SMOOTH",
"251 312 LINE SMOOTH"
);
}
);
width = 585;
}
);
unicode = 0660;
},
{
glyphname = "one-ar";
layers = (
{
layerId = "7FE84AD5-D318-40C5-A81A-3CDC73FF77D2";
paths = (
{
closed = 1;
nodes = (
"255 552 OFFCURVE",
"269 546 OFFCURVE",
"286 506 CURVE",
"325 406 OFFCURVE",
"352 310 OFFCURVE",
"365 218 CURVE SMOOTH",
"383 89 OFFCURVE",
"379 -10 OFFCURVE",
"356 -79 CURVE SMOOTH",
"352 -89 OFFCURVE",
"347 -94 OFFCURVE",
"338 -92 CURVE SMOOTH",
"329 -90 OFFCURVE",
"325 -84 OFFCURVE",
"325 -72 CURVE SMOOTH",
"327 99 OFFCURVE",
"292 247 OFFCURVE",
"221 373 CURVE SMOOTH",
"210 393 OFFCURVE",
"207 410 OFFCURVE",
"212 424 CURVE SMOOTH",
"246 524 LINE SMOOTH"
);
}
);
width = 585;
}
);
unicode = 0661;
},
{
glyphname = "two-ar";
layers = (
{
layerId = "7FE84AD5-D318-40C5-A81A-3CDC73FF77D2";
paths = (
{
closed = 1;
nodes = (
"144 551 OFFCURVE",
"157 548 OFFCURVE",
"176 512 CURVE SMOOTH",
"209 450 OFFCURVE",
"253 418 OFFCURVE",
"308 418 CURVE SMOOTH",
"387 418 OFFCURVE",
"430 454 OFFCURVE",
"439 523 CURVE SMOOTH",
"441 535 OFFCURVE",
"447 541 OFFCURVE",
"456 541 CURVE SMOOTH",
"465 541 OFFCURVE",
"471 537 OFFCURVE",
"474 530 CURVE SMOOTH",
"477 523 OFFCURVE",
"474 499 OFFCURVE",
"468 462 CURVE SMOOTH",
"462 425 OFFCURVE",
"449 392 OFFCURVE",
"428 362 CURVE SMOOTH",
"395 313 OFFCURVE",
"338 295 OFFCURVE",
"259 308 CURVE",
"301 150 OFFCURVE",
"313 22 OFFCURVE",
"293 -77 CURVE SMOOTH",
"292 -84 OFFCURVE",
"289 -89 OFFCURVE",
"283 -91 CURVE SMOOTH",
"277 -93 OFFCURVE",
"272 -93 OFFCURVE",
"268 -89 CURVE SMOOTH",
"264 -85 OFFCURVE",
"262 -80 OFFCURVE",
"261 -73 CURVE SMOOTH",
"250 99 OFFCURVE",
"204 248 OFFCURVE",
"125 372 CURVE SMOOTH",
"113 391 OFFCURVE",
"109 406 OFFCURVE",
"112 419 CURVE SMOOTH",
"137 521 LINE SMOOTH"
);
}
);
width = 585;
}
);
unicode = 0662;
},
{
glyphname = "three-ar";
layers = (
{
layerId = "7FE84AD5-D318-40C5-A81A-3CDC73FF77D2";
paths = (
{
closed = 1;
nodes = (
"488 543 OFFCURVE",
"493 549 OFFCURVE",
"503 549 CURVE SMOOTH",
"513 549 OFFCURVE",
"519 540 OFFCURVE",
"518 520 CURVE SMOOTH",
"516 479 OFFCURVE",
"509 433 OFFCURVE",
"496 384 CURVE SMOOTH",
"478 319 OFFCURVE",
"438 296 OFFCURVE",
"375 316 CURVE SMOOTH",
"355 322 OFFCURVE",
"338 331 OFFCURVE",
"324 342 CURVE",
"292 307 OFFCURVE",
"257 291 OFFCURVE",
"218 294 CURVE",
"260 125 OFFCURVE",
"271 2 OFFCURVE",
"251 -77 CURVE SMOOTH",
"249 -84 OFFCURVE",
"246 -88 OFFCURVE",
"240 -90 CURVE SMOOTH",
"234 -92 OFFCURVE",
"230 -92 OFFCURVE",
"226 -89 CURVE SMOOTH",
"222 -86 OFFCURVE",
"220 -80 OFFCURVE",
"219 -72 CURVE SMOOTH",
"208 106 OFFCURVE",
"163 254 OFFCURVE",
"84 371 CURVE SMOOTH",
"70 391 OFFCURVE",
"65 407 OFFCURVE",
"68 420 CURVE SMOOTH",
"93 521 LINE SMOOTH",
"99 544 OFFCURVE",
"111 544 OFFCURVE",
"128 518 CURVE SMOOTH",
"167 461 OFFCURVE",
"191 430 OFFCURVE",
"199 425 CURVE SMOOTH",
"218 414 OFFCURVE",
"241 410 OFFCURVE",
"270 413 CURVE SMOOTH",
"310 417 OFFCURVE",
"336 453 OFFCURVE",
"350 522 CURVE SMOOTH",
"353 535 OFFCURVE",
"357 542 OFFCURVE",
"365 541 CURVE SMOOTH",
"373 540 OFFCURVE",
"378 535 OFFCURVE",
"380 527 CURVE SMOOTH",
"382 519 OFFCURVE",
"381 501 OFFCURVE",
"376 476 CURVE SMOOTH",
"371 451 OFFCURVE",
"387 433 OFFCURVE",
"423 423 CURVE",
"461 413 OFFCURVE",
"482 449 OFFCURVE",
"487 531 CURVE SMOOTH"
);
}
);
width = 585;
}
);
unicode = 0663;
},
{
glyphname = "four-ar";
layers = (
{
layerId = "7FE84AD5-D318-40C5-A81A-3CDC73FF77D2";
paths = (
{
closed = 1;
nodes = (
"296 546 OFFCURVE",
"301 548 OFFCURVE",
"308 548 CURVE SMOOTH",
"315 548 OFFCURVE",
"320 547 OFFCURVE",
"324 542 CURVE SMOOTH",
"328 537 OFFCURVE",
"329 532 OFFCURVE",
"328 526 CURVE SMOOTH",
"310 450 LINE SMOOTH",
"309 445 OFFCURVE",
"303 440 OFFCURVE",
"295 437 CURVE SMOOTH",
"257 424 OFFCURVE",
"234 409 OFFCURVE",
"226 393 CURVE SMOOTH",
"220 382 OFFCURVE",
"223 372 OFFCURVE",
"236 364 CURVE SMOOTH",
"282 335 OFFCURVE",
"324 316 OFFCURVE",
"362 307 CURVE SMOOTH",
"378 303 OFFCURVE",
"382 291 OFFCURVE",
"373 271 CURVE SMOOTH",
"355 232 LINE SMOOTH",
"348 217 OFFCURVE",
"339 205 OFFCURVE",
"328 198 CURVE SMOOTH",
"289 172 OFFCURVE",
"259 146 OFFCURVE",
"237 120 CURVE SMOOTH",
"223 103 OFFCURVE",
"224 90 OFFCURVE",
"241 79 CURVE SMOOTH",
"297 44 OFFCURVE",
"355 22 OFFCURVE",
"415 15 CURVE SMOOTH",
"434 13 OFFCURVE",
"439 3 OFFCURVE",
"432 -15 CURVE SMOOTH",
"403 -84 LINE SMOOTH",
"399 -94 OFFCURVE",
"391 -98 OFFCURVE",
"380 -97 CURVE SMOOTH",
"301 -89 OFFCURVE",
"232 -64 OFFCURVE",
"174 -23 CURVE SMOOTH",
"161 -14 OFFCURVE",
"158 3 OFFCURVE",
"165 28 CURVE SMOOTH",
"187 111 LINE SMOOTH",
"194 135 OFFCURVE",
"223 170 OFFCURVE",
"275 216 CURVE",
"239 229 OFFCURVE",
"204 248 OFFCURVE",
"167 273 CURVE SMOOTH",
"148 286 OFFCURVE",
"146 308 OFFCURVE",
"161 341 CURVE SMOOTH",
"193 409 LINE SMOOTH",
"213 452 OFFCURVE",
"246 496 OFFCURVE",
"292 542 CURVE SMOOTH"
);
}
);
width = 585;
}
);
unicode = 0664;
},
{
glyphname = "five-ar";
layers = (
{
layerId = "7FE84AD5-D318-40C5-A81A-3CDC73FF77D2";
paths = (
{
closed = 1;
nodes = (
"256 422 OFFCURVE",
"278 430 OFFCURVE",
"302 424 CURVE SMOOTH",
"346 413 OFFCURVE",
"384 391 OFFCURVE",
"416 357 CURVE SMOOTH",
"460 310 OFFCURVE",
"473 240 OFFCURVE",
"454 146 CURVE SMOOTH",
"445 99 OFFCURVE",
"424 64 OFFCURVE",
"391 39 CURVE SMOOTH",
"358 14 OFFCURVE",
"316 1 OFFCURVE",
"266 1 CURVE SMOOTH",
"216 1 OFFCURVE",
"179 11 OFFCURVE",
"157 32 CURVE SMOOTH",
"135 53 OFFCURVE",
"124 86 OFFCURVE",
"124 133 CURVE SMOOTH",
"123 225 OFFCURVE",
"160 314 OFFCURVE",
"236 399 CURVE SMOOTH"
);
},
{
closed = 1;
nodes = (
"342 274 OFFCURVE",
"293 299 OFFCURVE",
"242 295 CURVE SMOOTH",
"211 293 OFFCURVE",
"193 270 OFFCURVE",
"188 223 CURVE SMOOTH",
"184 193 OFFCURVE",
"189 170 OFFCURVE",
"203 154 CURVE SMOOTH",
"224 129 OFFCURVE",
"261 121 OFFCURVE",
"311 133 CURVE SMOOTH",
"347 141 OFFCURVE",
"375 155 OFFCURVE",
"396 175 CURVE SMOOTH",
"409 186 OFFCURVE",
"407 200 OFFCURVE",
"391 219 CURVE SMOOTH"
);
}
);
width = 585;
}
);
unicode = 0665;
},
{
glyphname = "six-ar";
layers = (
{
layerId = "7FE84AD5-D318-40C5-A81A-3CDC73FF77D2";
paths = (
{
closed = 1;
nodes = (
"116 549 OFFCURVE",
"128 549 OFFCURVE",
"147 521 CURVE SMOOTH",
"185 464 OFFCURVE",
"260 452 OFFCURVE",
"369 485 CURVE SMOOTH",
"387 490 OFFCURVE",
"395 484 OFFCURVE",
"393 468 CURVE SMOOTH",
"380 338 OFFCURVE",
"409 210 OFFCURVE",
"480 82 CURVE SMOOTH",
"489 65 OFFCURVE",
"493 47 OFFCURVE",
"490 30 CURVE SMOOTH",
"473 -65 LINE SMOOTH",
"467 -97 OFFCURVE",
"456 -100 OFFCURVE",
"441 -71 CURVE SMOOTH",
"371 61 OFFCURVE",
"340 203 OFFCURVE",
"345 353 CURVE SMOOTH",
"345 362 OFFCURVE",
"343 366 OFFCURVE",
"339 365 CURVE SMOOTH",
"234 338 OFFCURVE",
"156 352 OFFCURVE",
"106 408 CURVE SMOOTH",
"97 418 OFFCURVE",
"93 430 OFFCURVE",
"96 443 CURVE SMOOTH",
"111 522 LINE SMOOTH"
);
}
);
width = 585;
}
);
unicode = 0666;
},
{
glyphname = "seven-ar";
layers = (
{
layerId = "7FE84AD5-D318-40C5-A81A-3CDC73FF77D2";
paths = (
{
closed = 1;
nodes = (
"309 -84 OFFCURVE",
"307 -89 OFFCURVE",
"302 -91 CURVE SMOOTH",
"297 -93 OFFCURVE",
"293 -93 OFFCURVE",
"289 -90 CURVE SMOOTH",
"285 -87 OFFCURVE",
"282 -83 OFFCURVE",
"282 -76 CURVE SMOOTH",
"280 -31 OFFCURVE",
"260 37 OFFCURVE",
"222 127 CURVE SMOOTH",
"184 217 OFFCURVE",
"138 310 OFFCURVE",
"81 405 CURVE SMOOTH",
"78 411 OFFCURVE",
"77 419 OFFCURVE",
"79 429 CURVE SMOOTH",
"92 510 LINE SMOOTH",
"97 545 OFFCURVE",
"105 553 OFFCURVE",
"116 533 CURVE SMOOTH",
"186 409 OFFCURVE",
"247 269 OFFCURVE",
"302 110 CURVE SMOOTH",
"309 89 OFFCURVE",
"316 87 OFFCURVE",
"320 106 CURVE SMOOTH",
"347 227 OFFCURVE",
"400 362 OFFCURVE",
"479 511 CURVE SMOOTH",
"484 521 OFFCURVE",
"489 527 OFFCURVE",
"494 527 CURVE SMOOTH",
"499 527 OFFCURVE",
"501 523 OFFCURVE",
"502 514 CURVE SMOOTH",
"508 417 LINE SMOOTH",
"508 409 OFFCURVE",
"506 400 OFFCURVE",
"500 389 CURVE SMOOTH",
"455 313 OFFCURVE",
"416 239 OFFCURVE",
"387 166 CURVE SMOOTH",
"358 93 OFFCURVE",
"332 12 OFFCURVE",
"311 -77 CURVE SMOOTH"
);
}
);
width = 585;
}
);
unicode = 0667;
},
{
glyphname = "eight-ar";
layers = (
{
layerId = "7FE84AD5-D318-40C5-A81A-3CDC73FF77D2";
paths = (
{
closed = 1;
nodes = (
"277 534 OFFCURVE",
"279 540 OFFCURVE",
"284 542 CURVE SMOOTH",
"289 544 OFFCURVE",
"293 544 OFFCURVE",
"297 541 CURVE SMOOTH",
"301 538 OFFCURVE",
"304 533 OFFCURVE",
"304 526 CURVE SMOOTH",
"306 481 OFFCURVE",
"326 413 OFFCURVE",
"364 323 CURVE SMOOTH",
"402 233 OFFCURVE",
"448 140 OFFCURVE",
"505 45 CURVE SMOOTH",
"508 39 OFFCURVE",
"509 31 OFFCURVE",
"507 21 CURVE SMOOTH",
"494 -60 LINE SMOOTH",
"489 -95 OFFCURVE",
"481 -103 OFFCURVE",
"470 -83 CURVE SMOOTH",
"400 41 OFFCURVE",
"339 181 OFFCURVE",
"284 340 CURVE SMOOTH",
"277 361 OFFCURVE",
"270 363 OFFCURVE",
"266 344 CURVE SMOOTH",
"239 223 OFFCURVE",
"186 88 OFFCURVE",
"107 -61 CURVE SMOOTH",
"102 -71 OFFCURVE",
"97 -76 OFFCURVE",
"92 -76 CURVE SMOOTH",
"87 -76 OFFCURVE",
"84 -73 OFFCURVE",
"83 -64 CURVE SMOOTH",
"78 33 LINE SMOOTH",
"78 41 OFFCURVE",
"80 51 OFFCURVE",
"86 62 CURVE SMOOTH",
"131 138 OFFCURVE",
"169 211 OFFCURVE",
"198 284 CURVE SMOOTH",
"227 357 OFFCURVE",
"254 438 OFFCURVE",
"275 527 CURVE SMOOTH"
);
}
);
width = 585;
}
);
unicode = 0668;
},
{
glyphname = "nine-ar";
layers = (
{
layerId = "7FE84AD5-D318-40C5-A81A-3CDC73FF77D2";
paths = (
{
closed = 1;
nodes = (
"266 556 OFFCURVE",
"309 556 OFFCURVE",
"348 500 CURVE SMOOTH",
"380 455 OFFCURVE",
"396 389 OFFCURVE",
"399 302 CURVE SMOOTH",
"402 216 OFFCURVE",
"420 143 OFFCURVE",
"452 84 CURVE SMOOTH",
"462 66 OFFCURVE",
"465 50 OFFCURVE",
"462 35 CURVE SMOOTH",
"444 -70 LINE SMOOTH",
"438 -103 OFFCURVE",
"429 -101 OFFCURVE",
"414 -66 CURVE SMOOTH",
"375 25 OFFCURVE",
"353 112 OFFCURVE",
"348 194 CURVE",
"202 180 OFFCURVE",
"127 215 OFFCURVE",
"123 301 CURVE SMOOTH",
"121 348 OFFCURVE",
"153 414 OFFCURVE",
"220 500 CURVE SMOOTH"
);
},
{
closed = 1;
nodes = (
"311 383 OFFCURVE",
"290 405 OFFCURVE",
"260 414 CURVE SMOOTH",
"224 424 OFFCURVE",
"200 409 OFFCURVE",
"188 370 CURVE SMOOTH",
"181 349 OFFCURVE",
"186 333 OFFCURVE",
"202 323 CURVE SMOOTH",
"224 309 OFFCURVE",
"260 303 OFFCURVE",
"310 306 CURVE SMOOTH",
"326 307 OFFCURVE",
"330 321 OFFCURVE",
"322 348 CURVE SMOOTH"
);
}
);
width = 585;
}
);
unicode = 0669;
},
{
glyphname = "decimalseparator-ar";
layers = (
{
layerId = "7FE84AD5-D318-40C5-A81A-3CDC73FF77D2";
paths = (
{
closed = 1;
nodes = (
"150 170 OFFCURVE",
"168 174 OFFCURVE",
"198 157 CURVE SMOOTH",
"242 132 OFFCURVE",
"259 90 OFFCURVE",
"250 29 CURVE SMOOTH",
"240 -41 OFFCURVE",
"216 -99 OFFCURVE",
"180 -145 CURVE SMOOTH",
"144 -191 OFFCURVE",
"105 -215 OFFCURVE",
"63 -217 CURVE SMOOTH",
"22 -219 OFFCURVE",
"16 -210 OFFCURVE",
"44 -189 CURVE SMOOTH",
"85 -159 OFFCURVE",
"121 -125 OFFCURVE",
"152 -86 CURVE SMOOTH",
"180 -51 OFFCURVE",
"201 -11 OFFCURVE",
"215 35 CURVE SMOOTH",
"218 44 OFFCURVE",
"212 50 OFFCURVE",
"198 53 CURVE SMOOTH",
"151 63 LINE SMOOTH",
"136 66 OFFCURVE",
"131 75 OFFCURVE",
"134 90 CURVE SMOOTH",
"145 146 LINE SMOOTH"
);
}
);
width = 299;
}
);
unicode = 066B;
},
{
glyphname = "thousandseparator-ar";
layers = (
{
layerId = "7FE84AD5-D318-40C5-A81A-3CDC73FF77D2";
paths = (
{
closed = 1;
nodes = (
"150 190 OFFCURVE",
"132 186 OFFCURVE",
"102 203 CURVE SMOOTH",
"58 228 OFFCURVE",
"41 270 OFFCURVE",
"50 331 CURVE SMOOTH",
"60 401 OFFCURVE",
"84 459 OFFCURVE",
"120 505 CURVE SMOOTH",
"156 551 OFFCURVE",
"195 575 OFFCURVE",
"237 577 CURVE SMOOTH",
"278 579 OFFCURVE",
"284 570 OFFCURVE",
"256 549 CURVE SMOOTH",
"217 521 OFFCURVE",
"180 486 OFFCURVE",
"147 446 CURVE SMOOTH",
"118 411 OFFCURVE",
"97 370 OFFCURVE",
"84 325 CURVE SMOOTH",
"81 316 OFFCURVE",
"88 310 OFFCURVE",
"102 307 CURVE SMOOTH",
"148 297 LINE SMOOTH",
"163 294 OFFCURVE",
"169 285 OFFCURVE",
"166 270 CURVE SMOOTH",
"155 214 LINE SMOOTH"
);
}
);
width = 299;
}
);
unicode = 066C;
},
{
glyphname = "asterisk-ar";
layers = (
{
layerId = "7FE84AD5-D318-40C5-A81A-3CDC73FF77D2";
paths = (
{
closed = 1;
nodes = (
"218 371 LINE",
"272 537 LINE",
"327 371 LINE",
"502 371 LINE",
"361 267 LINE",
"415 101 LINE",
"272 204 LINE",
"130 101 LINE",
"184 267 LINE",
"42 371 LINE"
);
}
);
width = 544;
}
);
unicode = 066D;
},
{
glyphname = "alefabove-ar";
layers = (
{
anchors = (
{
name = TashkilTashkilAbove2;
position = "{120, 1230}";
},
{
name = _AlefAbove;
position = "{193, 801}";
},
{
name = _HamzaAbove;
position = "{153, 969}";
},
{
name = _MarkAbove;
position = "{190, 801}";
},
{
name = _TashkilAbove;
position = "{193, 801}";
},
{
name = _TashkilTashkilAbove;
position = "{195, 867}";
}
);
layerId = "7FE84AD5-D318-40C5-A81A-3CDC73FF77D2";
paths = (
{
closed = 1;
nodes = (
"121 1172 OFFCURVE",
"127 1172 OFFCURVE",
"136 1161 CURVE SMOOTH",
"199 1091 OFFCURVE",
"221 1001 OFFCURVE",
"201 893 CURVE SMOOTH",
"200 886 OFFCURVE",
"196 883 OFFCURVE",
"191 882 CURVE SMOOTH",
"185 881 OFFCURVE",
"182 885 OFFCURVE",
"181 893 CURVE SMOOTH",
"172 962 OFFCURVE",
"147 1023 OFFCURVE",
"104 1076 CURVE SMOOTH",
"98 1083 OFFCURVE",
"97 1090 OFFCURVE",
"99 1098 CURVE SMOOTH",
"118 1162 LINE SMOOTH"
);
}
);
width = 0;
}
);
unicode = 0670;
},
{
glyphname = "fullstop-ar";
layers = (
{
layerId = "7FE84AD5-D318-40C5-A81A-3CDC73FF77D2";
paths = (
{
closed = 1;
nodes = (
"420 90 OFFCURVE",
"422 85 OFFCURVE",
"414 77 CURVE SMOOTH",
"356 14 LINE SMOOTH",
"347 5 OFFCURVE",
"334 0 OFFCURVE",
"316 0 CURVE SMOOTH",
"84 0 LINE SMOOTH",
"72 0 OFFCURVE",
"70 5 OFFCURVE",
"78 13 CURVE SMOOTH",
"136 76 LINE SMOOTH",
"145 85 OFFCURVE",
"158 90 OFFCURVE",
"176 90 CURVE SMOOTH",
"408 90 LINE SMOOTH"
);
}
);
width = 491;
}
);
unicode = 06D4;
},
{
glyphname = "sadLamAlefMaksuraabove-ar";
layers = (
{
anchors = (
{
name = _MarkAbove;
position = "{244, 1270}";
}
);
layerId = "7FE84AD5-D318-40C5-A81A-3CDC73FF77D2";
paths = (
{
closed = 1;
nodes = (
"103 1546 OFFCURVE",
"101 1573 OFFCURVE",
"99 1608 CURVE SMOOTH",
"98 1617 OFFCURVE",
"97 1642 OFFCURVE",
"95 1681 CURVE SMOOTH",
"94 1694 OFFCURVE",
"95 1702 OFFCURVE",
"98 1706 CURVE SMOOTH",
"110 1724 LINE SMOOTH",
"122 1743 OFFCURVE",
"129 1740 OFFCURVE",
"130 1719 CURVE SMOOTH",
"135 1603 OFFCURVE",
"141 1537 OFFCURVE",
"147 1523 CURVE SMOOTH",
"156 1502 OFFCURVE",
"169 1493 OFFCURVE",
"185 1495 CURVE SMOOTH",
"200 1497 OFFCURVE",
"217 1509 OFFCURVE",
"237 1531 CURVE SMOOTH",
"244 1538 OFFCURVE",
"249 1541 OFFCURVE",
"254 1538 CURVE SMOOTH",
"276 1524 OFFCURVE",
"291 1516 OFFCURVE",
"298 1514 CURVE",
"300 1515 OFFCURVE",
"313 1526 OFFCURVE",
"336 1548 CURVE SMOOTH",
"376 1584 OFFCURVE",
"412 1603 OFFCURVE",
"442 1606 CURVE SMOOTH",
"460 1608 OFFCURVE",
"473 1601 OFFCURVE",
"482 1587 CURVE SMOOTH",
"491 1572 OFFCURVE",
"490 1551 OFFCURVE",
"478 1523 CURVE SMOOTH",
"459 1482 OFFCURVE",
"430 1459 OFFCURVE",
"391 1453 CURVE SMOOTH",
"341 1446 OFFCURVE",
"290 1456 OFFCURVE",
"239 1483 CURVE",
"225 1467 OFFCURVE",
"216 1457 OFFCURVE",
"212 1454 CURVE SMOOTH",
"190 1434 OFFCURVE",
"168 1434 OFFCURVE",
"147 1452 CURVE",
"133 1465 OFFCURVE",
"123 1484 OFFCURVE",
"118 1510 CURVE",
"113 1481 OFFCURVE",
"104 1456 OFFCURVE",
"91 1435 CURVE SMOOTH",
"78 1415 OFFCURVE",
"58 1396 OFFCURVE",
"29 1378 CURVE",
"60 1373 OFFCURVE",
"99 1370 OFFCURVE",
"148 1369 CURVE SMOOTH",
"214 1367 OFFCURVE",
"280 1369 OFFCURVE",
"343 1374 CURVE SMOOTH",
"359 1376 OFFCURVE",
"404 1380 OFFCURVE",
"479 1387 CURVE SMOOTH",
"490 1388 OFFCURVE",
"493 1384 OFFCURVE",
"487 1375 CURVE SMOOTH",
"464 1341 LINE SMOOTH",
"460 1335 OFFCURVE",
"457 1332 OFFCURVE",
"452 1331 CURVE SMOOTH",
"413 1325 OFFCURVE",
"343 1321 OFFCURVE",
"240 1317 CURVE SMOOTH",
"146 1314 OFFCURVE",
"75 1316 OFFCURVE",
"27 1323 CURVE SMOOTH",
"12 1325 OFFCURVE",
"4 1332 OFFCURVE",
"1 1344 CURVE",
"-2 1362 OFFCURVE",
"2 1380 OFFCURVE",
"12 1397 CURVE SMOOTH",
"23 1416 OFFCURVE",
"35 1430 OFFCURVE",
"48 1439 CURVE SMOOTH",
"86 1466 OFFCURVE",
"105 1495 OFFCURVE",
"104 1527 CURVE SMOOTH"
);
},
{
closed = 1;
nodes = (
"417 1570 OFFCURVE",
"375 1559 OFFCURVE",
"316 1510 CURVE",
"354 1502 OFFCURVE",
"398 1501 OFFCURVE",
"446 1509 CURVE",
"450 1525 OFFCURVE",
"448 1537 OFFCURVE",
"441 1544 CURVE SMOOTH"
);
}
);
width = 0;
}
);
unicode = 06D6;
},
{
glyphname = "qafLamAlefMaksuraabove-ar";
layers = (
{
anchors = (
{
name = _MarkAbove;
position = "{244, 1270}";
}
);
layerId = "7FE84AD5-D318-40C5-A81A-3CDC73FF77D2";
paths = (
{
closed = 1;
nodes = (
"241 1493 OFFCURVE",
"272 1507 OFFCURVE",
"299 1534 CURVE",
"298 1545 OFFCURVE",
"296 1552 OFFCURVE",
"293 1557 CURVE SMOOTH",
"288 1564 OFFCURVE",
"285 1565 OFFCURVE",
"283 1560 CURVE SMOOTH",
"274 1538 OFFCURVE",
"261 1527 OFFCURVE",
"242 1526 CURVE SMOOTH",
"212 1525 OFFCURVE",
"196 1543 OFFCURVE",
"195 1579 CURVE SMOOTH",
"194 1598 OFFCURVE",
"201 1620 OFFCURVE",
"216 1644 CURVE SMOOTH",
"239 1682 OFFCURVE",
"265 1683 OFFCURVE",
"294 1647 CURVE SMOOTH",
"315 1621 OFFCURVE",
"325 1590 OFFCURVE",
"324 1554 CURVE SMOOTH",
"323 1533 OFFCURVE",
"317 1514 OFFCURVE",
"306 1496 CURVE SMOOTH",
"282 1458 OFFCURVE",
"249 1438 OFFCURVE",
"205 1438 CURVE SMOOTH",
"157 1438 OFFCURVE",
"128 1462 OFFCURVE",
"118 1510 CURVE",
"113 1481 OFFCURVE",
"104 1456 OFFCURVE",
"91 1435 CURVE SMOOTH",
"78 1415 OFFCURVE",
"58 1396 OFFCURVE",
"29 1378 CURVE",
"60 1373 OFFCURVE",
"99 1370 OFFCURVE",
"148 1369 CURVE SMOOTH",
"225 1367 OFFCURVE",
"291 1369 OFFCURVE",
"343 1374 CURVE SMOOTH",
"397 1380 OFFCURVE",
"442 1384 OFFCURVE",
"479 1387 CURVE SMOOTH",
"490 1388 OFFCURVE",
"493 1384 OFFCURVE",
"487 1375 CURVE SMOOTH",
"464 1341 LINE SMOOTH",
"460 1335 OFFCURVE",
"457 1332 OFFCURVE",
"452 1331 CURVE SMOOTH",
"413 1325 OFFCURVE",
"343 1321 OFFCURVE",
"240 1317 CURVE SMOOTH",
"146 1314 OFFCURVE",
"75 1316 OFFCURVE",
"27 1323 CURVE SMOOTH",
"12 1325 OFFCURVE",
"4 1332 OFFCURVE",
"1 1344 CURVE",
"-2 1362 OFFCURVE",
"2 1380 OFFCURVE",
"12 1397 CURVE SMOOTH",
"23 1416 OFFCURVE",
"35 1430 OFFCURVE",
"48 1439 CURVE SMOOTH",
"86 1466 OFFCURVE",
"105 1495 OFFCURVE",
"104 1527 CURVE SMOOTH",
"103 1546 OFFCURVE",
"101 1573 OFFCURVE",
"99 1608 CURVE SMOOTH",
"98 1617 OFFCURVE",
"97 1642 OFFCURVE",
"95 1681 CURVE SMOOTH",
"94 1694 OFFCURVE",
"95 1702 OFFCURVE",
"98 1706 CURVE SMOOTH",
"110 1724 LINE SMOOTH",
"122 1743 OFFCURVE",
"129 1740 OFFCURVE",
"130 1719 CURVE SMOOTH",
"135 1603 OFFCURVE",
"141 1537 OFFCURVE",
"147 1523 CURVE SMOOTH",
"156 1503 OFFCURVE",
"176 1493 OFFCURVE",
"205 1493 CURVE SMOOTH"
);
},
{
closed = 1;
nodes = (
"215 1801 OFFCURVE",
"217 1801 OFFCURVE",
"219 1800 CURVE SMOOTH",
"232 1796 OFFCURVE",
"244 1790 OFFCURVE",
"254 1782 CURVE",
"274 1812 LINE SMOOTH",
"275 1814 OFFCURVE",
"277 1814 OFFCURVE",
"279 1813 CURVE SMOOTH",
"285 1811 OFFCURVE",
"299 1804 OFFCURVE",
"320 1790 CURVE SMOOTH",
"322 1789 OFFCURVE",
"322 1786 OFFCURVE",
"321 1784 CURVE SMOOTH",
"293 1741 LINE SMOOTH",
"292 1739 OFFCURVE",
"291 1739 OFFCURVE",
"288 1742 CURVE SMOOTH",
"286 1744 OFFCURVE",
"275 1750 OFFCURVE",
"255 1762 CURVE",
"233 1728 LINE SMOOTH",
"232 1727 OFFCURVE",
"231 1727 OFFCURVE",
"228 1729 CURVE SMOOTH",
"220 1733 OFFCURVE",
"206 1741 OFFCURVE",
"187 1754 CURVE SMOOTH",
"186 1755 OFFCURVE",
"185 1756 OFFCURVE",
"186 1757 CURVE SMOOTH",
"214 1799 LINE SMOOTH"
);
}
);
width = 0;
}
);
unicode = 06D7;
},
{
glyphname = "meemabove-ar";
layers = (
{
anchors = (
{
name = _MarkAbove;
position = "{209, 1270}";
}
);
layerId = "7FE84AD5-D318-40C5-A81A-3CDC73FF77D2";
paths = (
{
closed = 1;
nodes = (
"164 1360 OFFCURVE",
"112 1319 OFFCURVE",
"46 1304 CURVE SMOOTH",
"32 1301 OFFCURVE",
"23 1301 OFFCURVE",
"21 1306 CURVE SMOOTH",
"17 1315 OFFCURVE",
"22 1323 OFFCURVE",
"36 1330 CURVE SMOOTH",
"99 1361 OFFCURVE",
"146 1399 OFFCURVE",
"177 1445 CURVE",
"191 1526 OFFCURVE",
"216 1566 OFFCURVE",
"251 1565 CURVE SMOOTH",
"290 1564 OFFCURVE",
"310 1528 OFFCURVE",
"310 1456 CURVE",
"292 1418 LINE SMOOTH",
"290 1414 OFFCURVE",
"287 1413 OFFCURVE",
"282 1413 CURVE SMOOTH",
"249 1414 OFFCURVE",
"222 1418 OFFCURVE",
"201 1426 CURVE"
);
}
);
width = 0;
}
);
unicode = 06D8;
},
{
glyphname = "lamAlefabove-ar";
layers = (
{
anchors = (
{
name = _MarkAbove;
position = "{190, 1270}";
}
);
layerId = "7FE84AD5-D318-40C5-A81A-3CDC73FF77D2";
paths = (
{
closed = 1;
nodes = (
"253 1519 OFFCURVE",
"262 1600 OFFCURVE",
"254 1705 CURVE SMOOTH",
"253 1720 OFFCURVE",
"254 1729 OFFCURVE",
"256 1733 CURVE SMOOTH",
"264 1748 OFFCURVE",
"270 1757 OFFCURVE",
"271 1759 CURVE SMOOTH",
"272 1761 OFFCURVE",
"274 1762 OFFCURVE",
"276 1762 CURVE SMOOTH",
"278 1762 OFFCURVE",
"280 1760 OFFCURVE",
"281 1758 CURVE SMOOTH",
"287 1736 OFFCURVE",
"292 1721 OFFCURVE",
"298 1715 CURVE SMOOTH",
"304 1709 OFFCURVE",
"304 1702 OFFCURVE",
"299 1697 CURVE SMOOTH",
"283 1681 LINE",
"286 1586 OFFCURVE",
"271 1505 OFFCURVE",
"238 1440 CURVE",
"249 1412 OFFCURVE",
"256 1387 OFFCURVE",
"257 1365 CURVE",
"258 1343 OFFCURVE",
"253 1330 OFFCURVE",
"240 1327 CURVE SMOOTH",
"204 1318 OFFCURVE",
"165 1317 OFFCURVE",
"122 1324 CURVE SMOOTH",
"117 1325 OFFCURVE",
"115 1326 OFFCURVE",
"114 1328 CURVE",
"107 1345 OFFCURVE",
"108 1358 OFFCURVE",
"117 1370 CURVE SMOOTH",
"120 1374 OFFCURVE",
"123 1376 OFFCURVE",
"125 1375 CURVE SMOOTH",
"132 1374 OFFCURVE",
"139 1374 OFFCURVE",
"146 1373 CURVE SMOOTH",
"146 1374 LINE SMOOTH",
"173 1389 OFFCURVE",
"196 1410 OFFCURVE",
"213 1436 CURVE",
"174 1518 OFFCURVE",
"126 1586 OFFCURVE",
"69 1640 CURVE",
"61 1625 LINE",
"56 1622 OFFCURVE",
"51 1622 OFFCURVE",
"47 1627 CURVE",
"7 1670 LINE",
"1 1677 OFFCURVE",
"-1 1684 OFFCURVE",
"0 1692 CURVE SMOOTH",
"8 1743 LINE SMOOTH",
"9 1748 OFFCURVE",
"10 1751 OFFCURVE",
"13 1751 CURVE SMOOTH",
"21 1752 OFFCURVE",
"43 1731 OFFCURVE",
"78 1688 CURVE SMOOTH",
"147 1605 OFFCURVE",
"197 1530 OFFCURVE",
"228 1463 CURVE"
);
},
{
closed = 1;
nodes = (
"213 1398 OFFCURVE",
"201 1385 OFFCURVE",
"188 1372 CURVE SMOOTH",
"188 1371 LINE",
"209 1371 OFFCURVE",
"223 1372 OFFCURVE",
"232 1376 CURVE",
"231 1387 OFFCURVE",
"228 1399 OFFCURVE",
"223 1413 CURVE"
);
}
);
width = 0;
}
);
unicode = 06D9;
},
{
glyphname = "jeemabove-ar";
layers = (
{
anchors = (
{
name = _MarkAbove;
position = "{195, 1270}";
}
);
layerId = "7FE84AD5-D318-40C5-A81A-3CDC73FF77D2";
paths = (
{
closed = 1;
nodes = (
"181 1559 OFFCURVE",
"183 1559 OFFCURVE",
"185 1558 CURVE SMOOTH",
"200 1553 OFFCURVE",
"214 1545 OFFCURVE",
"226 1534 CURVE SMOOTH",
"228 1532 OFFCURVE",
"228 1531 OFFCURVE",
"227 1529 CURVE SMOOTH",
"199 1485 LINE SMOOTH",
"198 1483 OFFCURVE",
"196 1484 OFFCURVE",
"193 1486 CURVE SMOOTH",
"190 1488 OFFCURVE",
"177 1496 OFFCURVE",
"153 1511 CURVE SMOOTH",
"151 1512 OFFCURVE",
"151 1514 OFFCURVE",
"152 1515 CURVE SMOOTH",
"180 1557 LINE SMOOTH"
);
},
{
closed = 1;
nodes = (
"315 1712 LINE SMOOTH",
"313 1709 OFFCURVE",
"312 1708 OFFCURVE",
"309 1708 CURVE SMOOTH",
"217 1696 OFFCURVE",
"152 1677 OFFCURVE",
"115 1653 CURVE SMOOTH",
"42 1605 OFFCURVE",
"14 1548 OFFCURVE",
"30 1481 CURVE SMOOTH",
"39 1444 OFFCURVE",
"67 1416 OFFCURVE",
"114 1395 CURVE SMOOTH",
"139 1384 OFFCURVE",
"180 1376 OFFCURVE",
"235 1373 CURVE SMOOTH",
"290 1370 OFFCURVE",
"341 1370 OFFCURVE",
"388 1374 CURVE SMOOTH",
"394 1375 OFFCURVE",
"398 1374 OFFCURVE",
"400 1372 CURVE SMOOTH",
"402 1370 OFFCURVE",
"402 1368 OFFCURVE",
"400 1365 CURVE SMOOTH",
"398 1362 OFFCURVE",
"396 1360 OFFCURVE",
"393 1359 CURVE SMOOTH",
"370 1352 OFFCURVE",
"350 1345 OFFCURVE",
"337 1337 CURVE SMOOTH",
"317 1325 OFFCURVE",
"306 1319 OFFCURVE",
"301 1319 CURVE SMOOTH",
"188 1309 OFFCURVE",
"106 1322 OFFCURVE",
"56 1359 CURVE SMOOTH",
"6 1396 OFFCURVE",
"-11 1453 OFFCURVE",
"7 1531 CURVE SMOOTH",
"25 1609 OFFCURVE",
"71 1667 OFFCURVE",
"147 1703 CURVE",
"95 1716 OFFCURVE",
"56 1714 OFFCURVE",
"30 1699 CURVE SMOOTH",
"28 1698 OFFCURVE",
"25 1698 OFFCURVE",
"23 1698 CURVE SMOOTH",
"21 1698 OFFCURVE",
"20 1699 OFFCURVE",
"20 1701 CURVE SMOOTH",
"20 1710 OFFCURVE",
"22 1720 OFFCURVE",
"26 1730 CURVE SMOOTH",
"33 1750 OFFCURVE",
"52 1761 OFFCURVE",
"82 1763 CURVE SMOOTH",
"97 1764 OFFCURVE",
"120 1760 OFFCURVE",
"153 1754 CURVE SMOOTH",
"186 1748 OFFCURVE",
"213 1745 OFFCURVE",
"235 1745 CURVE SMOOTH",
"257 1745 OFFCURVE",
"285 1748 OFFCURVE",
"318 1754 CURVE SMOOTH",
"329 1756 OFFCURVE",
"333 1753 OFFCURVE",
"329 1744 CURVE SMOOTH"
);
}
);
width = 0;
}
);
unicode = 06DA;
},
{
glyphname = "threedotsabove-ar";
layers = (
{
anchors = (
{
name = _MarkAbove;
position = "{185, 1270}";
}
);
layerId = "7FE84AD5-D318-40C5-A81A-3CDC73FF77D2";
paths = (
{
closed = 1;
nodes = (
"180 1521 OFFCURVE",
"182 1522 OFFCURVE",
"185 1520 CURVE SMOOTH",
"205 1509 OFFCURVE",
"220 1495 OFFCURVE",
"234 1477 CURVE SMOOTH",
"236 1474 OFFCURVE",
"236 1471 OFFCURVE",
"234 1469 CURVE SMOOTH",
"186 1417 LINE SMOOTH",
"184 1415 OFFCURVE",
"181 1415 OFFCURVE",
"178 1419 CURVE SMOOTH",
"175 1423 OFFCURVE",
"158 1438 OFFCURVE",
"129 1464 CURVE SMOOTH",
"127 1466 OFFCURVE",
"127 1467 OFFCURVE",
"129 1469 CURVE SMOOTH",
"178 1519 LINE SMOOTH"
);
},
{
closed = 1;
nodes = (
"250 1423 OFFCURVE",
"251 1423 OFFCURVE",
"254 1422 CURVE SMOOTH",
"274 1411 OFFCURVE",
"291 1397 OFFCURVE",
"304 1379 CURVE SMOOTH",
"306 1376 OFFCURVE",
"306 1374 OFFCURVE",
"304 1372 CURVE SMOOTH",
"255 1319 LINE SMOOTH",
"253 1317 OFFCURVE",
"251 1318 OFFCURVE",
"248 1322 CURVE SMOOTH",
"248 1322 OFFCURVE",
"231 1337 OFFCURVE",
"199 1367 CURVE SMOOTH",
"197 1369 OFFCURVE",
"197 1370 OFFCURVE",
"198 1372 CURVE SMOOTH",
"248 1421 LINE SMOOTH"
);
},
{
closed = 1;
nodes = (
"109 1423 OFFCURVE",
"112 1424 OFFCURVE",
"114 1422 CURVE SMOOTH",
"134 1411 OFFCURVE",
"150 1397 OFFCURVE",
"164 1379 CURVE SMOOTH",
"166 1376 OFFCURVE",
"166 1374 OFFCURVE",
"164 1372 CURVE SMOOTH",
"115 1319 LINE SMOOTH",
"114 1317 OFFCURVE",
"111 1319 OFFCURVE",
"107 1322 CURVE SMOOTH",
"107 1322 OFFCURVE",
"91 1337 OFFCURVE",
"59 1367 CURVE SMOOTH",
"57 1369 OFFCURVE",
"57 1370 OFFCURVE",
"58 1372 CURVE SMOOTH",
"107 1421 LINE SMOOTH"
);
}
);
width = 0;
}
);
unicode = 06DB;
},
{
glyphname = "seenabove-ar";
layers = (
{
anchors = (
{
name = _MarkAbove;
position = "{288, 1270}";
},
{
name = _SeenAbove;
position = "{249, 1318}";
}
);
layerId = "7FE84AD5-D318-40C5-A81A-3CDC73FF77D2";
paths = (
{
closed = 1;
nodes = (
"480 1666 OFFCURVE",
"482 1667 OFFCURVE",
"485 1667 CURVE SMOOTH",
"488 1667 OFFCURVE",
"491 1666 OFFCURVE",
"493 1663 CURVE SMOOTH",
"498 1655 OFFCURVE",
"500 1642 OFFCURVE",
"500 1624 CURVE SMOOTH",
"500 1596 OFFCURVE",
"494 1570 OFFCURVE",
"480 1548 CURVE SMOOTH",
"476 1542 OFFCURVE",
"472 1539 OFFCURVE",
"466 1538 CURVE SMOOTH",
"448 1534 OFFCURVE",
"427 1540 OFFCURVE",
"403 1554 CURVE",
"386 1523 OFFCURVE",
"362 1509 OFFCURVE",
"329 1514 CURVE",
"327 1481 OFFCURVE",
"321 1452 OFFCURVE",
"313 1428 CURVE SMOOTH",
"305 1404 OFFCURVE",
"291 1384 OFFCURVE",
"271 1368 CURVE SMOOTH",
"227 1333 OFFCURVE",
"178 1317 OFFCURVE",
"125 1319 CURVE SMOOTH",
"59 1321 OFFCURVE",
"18 1348 OFFCURVE",
"3 1401 CURVE SMOOTH",
"-1 1416 OFFCURVE",
"-1 1438 OFFCURVE",
"5 1466 CURVE SMOOTH",
"11 1494 OFFCURVE",
"22 1524 OFFCURVE",
"40 1557 CURVE SMOOTH",
"41 1560 OFFCURVE",
"44 1561 OFFCURVE",
"46 1561 CURVE SMOOTH",
"48 1561 OFFCURVE",
"50 1561 OFFCURVE",
"51 1559 CURVE SMOOTH",
"52 1557 OFFCURVE",
"52 1554 OFFCURVE",
"51 1552 CURVE SMOOTH",
"27 1505 OFFCURVE",
"16 1474 OFFCURVE",
"21 1458 CURVE SMOOTH",
"35 1408 OFFCURVE",
"71 1382 OFFCURVE",
"130 1380 CURVE SMOOTH",
"210 1378 OFFCURVE",
"268 1405 OFFCURVE",
"302 1458 CURVE",
"304 1488 OFFCURVE",
"296 1521 OFFCURVE",
"279 1558 CURVE SMOOTH",
"277 1562 OFFCURVE",
"276 1564 OFFCURVE",
"277 1567 CURVE SMOOTH",
"285 1585 OFFCURVE",
"292 1598 OFFCURVE",
"298 1606 CURVE SMOOTH",
"300 1608 OFFCURVE",
"301 1609 OFFCURVE",
"303 1607 CURVE SMOOTH",
"305 1605 OFFCURVE",
"310 1599 OFFCURVE",
"316 1588 CURVE SMOOTH",
"322 1577 OFFCURVE",
"327 1572 OFFCURVE",
"330 1571 CURVE SMOOTH",
"350 1567 OFFCURVE",
"370 1573 OFFCURVE",
"390 1589 CURVE SMOOTH",
"398 1596 OFFCURVE",
"405 1613 OFFCURVE",
"412 1642 CURVE SMOOTH",
"413 1645 OFFCURVE",
"414 1647 OFFCURVE",
"416 1648 CURVE SMOOTH",
"418 1649 OFFCURVE",
"420 1649 OFFCURVE",
"422 1648 CURVE SMOOTH",
"426 1645 OFFCURVE",
"427 1635 OFFCURVE",
"423 1615 CURVE",
"438 1604 OFFCURVE",
"455 1599 OFFCURVE",
"474 1601 CURVE",
"474 1607 OFFCURVE",
"473 1611 OFFCURVE",
"471 1613 CURVE SMOOTH",
"469 1615 OFFCURVE",
"468 1618 OFFCURVE",
"469 1620 CURVE SMOOTH",
"479 1662 LINE SMOOTH"
);
}
);
width = 0;
}
);
unicode = 06DC;
},
{
glyphname = "endofayah-ar";
layers = (
{
layerId = "7FE84AD5-D318-40C5-A81A-3CDC73FF77D2";
paths = (
{
closed = 1;
nodes = (
"982 476 OFFCURVE",
"982 468 OFFCURVE",
"979 455 CURVE SMOOTH",
"976 442 OFFCURVE",
"968 432 OFFCURVE",
"953 426 CURVE",
"932 419 OFFCURVE",
"912 423 OFFCURVE",
"893 436 CURVE",
"885 442 OFFCURVE",
"884 446 OFFCURVE",
"890 448 CURVE SMOOTH",
"903 453 OFFCURVE",
"910 460 OFFCURVE",
"911 468 CURVE",
"910 481 OFFCURVE",
"901 492 OFFCURVE",
"884 502 CURVE",
"790 510 OFFCURVE",
"720 493 OFFCURVE",
"674 452 CURVE",
"686 434 OFFCURVE",
"685 421 OFFCURVE",
"668 413 CURVE",
"659 410 OFFCURVE",
"651 410 OFFCURVE",
"647 415 CURVE SMOOTH",
"643 420 OFFCURVE",
"641 424 OFFCURVE",
"640 429 CURVE",
"639 424 OFFCURVE",
"636 420 OFFCURVE",
"632 415 CURVE SMOOTH",
"628 410 OFFCURVE",
"620 410 OFFCURVE",
"611 413 CURVE",
"594 421 OFFCURVE",
"593 434 OFFCURVE",
"605 452 CURVE",
"559 493 OFFCURVE",
"489 510 OFFCURVE",
"395 502 CURVE",
"378 492 OFFCURVE",
"369 481 OFFCURVE",
"368 468 CURVE",
"369 460 OFFCURVE",
"376 453 OFFCURVE",
"389 448 CURVE SMOOTH",
"395 446 OFFCURVE",
"394 442 OFFCURVE",
"386 436 CURVE",
"367 423 OFFCURVE",
"347 419 OFFCURVE",
"326 426 CURVE",
"311 432 OFFCURVE",
"302 442 OFFCURVE",
"299 455 CURVE SMOOTH",
"296 468 OFFCURVE",
"296 476 OFFCURVE",
"299 482 CURVE",
"262 469 OFFCURVE",
"227 450 OFFCURVE",
"193 425 CURVE",
"112 364 OFFCURVE",
"71 278 OFFCURVE",
"71 166 CURVE SMOOTH",
"71 54 OFFCURVE",
"112 -32 OFFCURVE",
"193 -94 CURVE",
"227 -119 OFFCURVE",
"262 -137 OFFCURVE",
"299 -150 CURVE",
"296 -145 OFFCURVE",
"296 -136 OFFCURVE",
"299 -123 CURVE SMOOTH",
"302 -110 OFFCURVE",
"311 -100 OFFCURVE",
"326 -94 CURVE",
"347 -88 OFFCURVE",
"367 -91 OFFCURVE",
"386 -104 CURVE",
"393 -110 OFFCURVE",
"393 -114 OFFCURVE",
"384 -117 CURVE",
"374 -119 OFFCURVE",
"369 -126 OFFCURVE",
"368 -136 CURVE",
"369 -149 OFFCURVE",
"378 -160 OFFCURVE",
"395 -170 CURVE",
"490 -177 OFFCURVE",
"559 -161 OFFCURVE",
"605 -120 CURVE",
"593 -102 OFFCURVE",
"594 -89 OFFCURVE",
"611 -81 CURVE",
"620 -78 OFFCURVE",
"628 -78 OFFCURVE",
"632 -83 CURVE SMOOTH",
"636 -88 OFFCURVE",
"639 -92 OFFCURVE",
"640 -97 CURVE",
"641 -92 OFFCURVE",
"643 -88 OFFCURVE",
"647 -83 CURVE SMOOTH",
"651 -78 OFFCURVE",
"659 -78 OFFCURVE",
"668 -81 CURVE",
"685 -89 OFFCURVE",
"686 -102 OFFCURVE",
"674 -120 CURVE",
"720 -161 OFFCURVE",
"790 -177 OFFCURVE",
"885 -170 CURVE",
"902 -160 OFFCURVE",
"910 -149 OFFCURVE",
"911 -136 CURVE",
"910 -126 OFFCURVE",
"906 -119 OFFCURVE",
"896 -117 CURVE",
"887 -114 OFFCURVE",
"887 -110 OFFCURVE",
"894 -104 CURVE",
"913 -91 OFFCURVE",
"932 -88 OFFCURVE",
"953 -94 CURVE",
"968 -100 OFFCURVE",
"977 -110 OFFCURVE",
"980 -123 CURVE SMOOTH",
"983 -136 OFFCURVE",
"983 -145 OFFCURVE",
"980 -150 CURVE",
"1017 -137 OFFCURVE",
"1052 -119 OFFCURVE",
"1086 -94 CURVE",
"1167 -32 OFFCURVE",
"1208 54 OFFCURVE",
"1208 166 CURVE SMOOTH",
"1208 278 OFFCURVE",
"1167 364 OFFCURVE",
"1086 425 CURVE",
"1052 450 OFFCURVE",
"1016 469 OFFCURVE",
"979 482 CURVE"
);
},
{
closed = 1;
nodes = (
"577 -158 OFFCURVE",
"553 -194 OFFCURVE",
"554 -231 CURVE",
"555 -264 OFFCURVE",
"584 -301 OFFCURVE",
"640 -343 CURVE",
"696 -301 OFFCURVE",
"725 -264 OFFCURVE",
"726 -231 CURVE",
"727 -194 OFFCURVE",
"702 -158 OFFCURVE",
"654 -123 CURVE SMOOTH",
"646 -117 OFFCURVE",
"641 -111 OFFCURVE",
"640 -104 CURVE",
"639 -111 OFFCURVE",
"633 -117 OFFCURVE",
"625 -123 CURVE SMOOTH"
);
},
{
closed = 1;
nodes = (
"833 -254 OFFCURVE",
"837 -246 OFFCURVE",
"844 -239 CURVE SMOOTH",
"851 -233 OFFCURVE",
"859 -229 OFFCURVE",
"868 -229 CURVE SMOOTH",
"875 -229 OFFCURVE",
"884 -232 OFFCURVE",
"892 -239 CURVE SMOOTH",
"898 -244 OFFCURVE",
"902 -252 OFFCURVE",
"902 -263 CURVE SMOOTH",
"902 -272 OFFCURVE",
"899 -280 OFFCURVE",
"892 -287 CURVE SMOOTH",
"886 -293 OFFCURVE",
"878 -297 OFFCURVE",
"868 -297 CURVE SMOOTH",
"859 -297 OFFCURVE",
"851 -294 OFFCURVE",
"844 -287 CURVE SMOOTH",
"838 -281 OFFCURVE",
"835 -273 OFFCURVE",
"834 -263 CURVE SMOOTH"
);
},
{
closed = 1;
nodes = (
"376 -254 OFFCURVE",
"380 -246 OFFCURVE",
"387 -239 CURVE SMOOTH",
"394 -233 OFFCURVE",
"402 -229 OFFCURVE",
"411 -229 CURVE SMOOTH",
"418 -229 OFFCURVE",
"427 -232 OFFCURVE",
"435 -239 CURVE SMOOTH",
"441 -244 OFFCURVE",
"444 -252 OFFCURVE",
"444 -263 CURVE SMOOTH",
"444 -272 OFFCURVE",
"442 -280 OFFCURVE",
"435 -287 CURVE SMOOTH",
"429 -293 OFFCURVE",
"421 -297 OFFCURVE",
"411 -297 CURVE SMOOTH",
"402 -297 OFFCURVE",
"394 -294 OFFCURVE",
"387 -287 CURVE SMOOTH",
"381 -281 OFFCURVE",
"378 -273 OFFCURVE",
"377 -263 CURVE SMOOTH"
);
},
{
closed = 1;
nodes = (
"833 603 OFFCURVE",
"837 611 OFFCURVE",
"844 618 CURVE SMOOTH",
"851 624 OFFCURVE",
"859 628 OFFCURVE",
"868 628 CURVE SMOOTH",
"875 628 OFFCURVE",
"884 625 OFFCURVE",
"892 618 CURVE SMOOTH",
"898 613 OFFCURVE",
"902 605 OFFCURVE",
"902 594 CURVE SMOOTH",
"902 585 OFFCURVE",
"899 577 OFFCURVE",
"892 570 CURVE SMOOTH",
"886 564 OFFCURVE",
"878 561 OFFCURVE",
"868 561 CURVE SMOOTH",
"859 561 OFFCURVE",
"851 563 OFFCURVE",
"844 570 CURVE SMOOTH",
"838 576 OFFCURVE",
"835 584 OFFCURVE",
"834 594 CURVE SMOOTH"
);
},
{
closed = 1;
nodes = (
"376 603 OFFCURVE",
"380 611 OFFCURVE",
"387 618 CURVE SMOOTH",
"394 624 OFFCURVE",
"402 628 OFFCURVE",
"411 628 CURVE SMOOTH",
"418 628 OFFCURVE",
"427 625 OFFCURVE",
"435 618 CURVE SMOOTH",
"441 613 OFFCURVE",
"444 605 OFFCURVE",
"444 594 CURVE SMOOTH",
"444 585 OFFCURVE",
"442 577 OFFCURVE",
"435 570 CURVE SMOOTH",
"429 564 OFFCURVE",
"421 561 OFFCURVE",
"411 561 CURVE SMOOTH",
"402 561 OFFCURVE",
"394 563 OFFCURVE",
"387 570 CURVE SMOOTH",
"381 576 OFFCURVE",
"378 584 OFFCURVE",
"377 594 CURVE SMOOTH"
);
},
{
closed = 1;
nodes = (
"635 -369 OFFCURVE",
"613 -353 OFFCURVE",
"574 -325 CURVE SMOOTH",
"535 -297 OFFCURVE",
"511 -273 OFFCURVE",
"503 -252 CURVE SMOOTH",
"495 -231 OFFCURVE",
"495 -211 OFFCURVE",
"504 -193 CURVE",
"479 -196 OFFCURVE",
"456 -197 OFFCURVE",
"433 -197 CURVE SMOOTH",
"336 -196 OFFCURVE",
"251 -169 OFFCURVE",
"178 -114 CURVE SMOOTH",
"89 -47 OFFCURVE",
"44 46 OFFCURVE",
"44 166 CURVE SMOOTH",
"44 286 OFFCURVE",
"89 379 OFFCURVE",
"178 446 CURVE",
"252 500 OFFCURVE",
"337 528 OFFCURVE",
"433 529 CURVE SMOOTH",
"456 529 OFFCURVE",
"479 527 OFFCURVE",
"504 524 CURVE",
"495 543 OFFCURVE",
"495 563 OFFCURVE",
"503 584 CURVE SMOOTH",
"511 605 OFFCURVE",
"535 629 OFFCURVE",
"574 657 CURVE SMOOTH",
"613 685 OFFCURVE",
"635 701 OFFCURVE",
"640 705 CURVE",
"645 701 OFFCURVE",
"667 685 OFFCURVE",
"706 657 CURVE SMOOTH",
"745 629 OFFCURVE",
"768 605 OFFCURVE",
"776 584 CURVE SMOOTH",
"784 563 OFFCURVE",
"784 543 OFFCURVE",
"775 524 CURVE",
"800 527 OFFCURVE",
"824 529 OFFCURVE",
"847 529 CURVE SMOOTH",
"943 528 OFFCURVE",
"1028 500 OFFCURVE",
"1102 446 CURVE",
"1191 379 OFFCURVE",
"1235 286 OFFCURVE",
"1235 166 CURVE SMOOTH",
"1235 46 OFFCURVE",
"1191 -47 OFFCURVE",
"1102 -114 CURVE SMOOTH",
"1029 -169 OFFCURVE",
"944 -196 OFFCURVE",
"847 -197 CURVE SMOOTH",
"824 -197 OFFCURVE",
"800 -196 OFFCURVE",
"775 -193 CURVE",
"784 -211 OFFCURVE",
"784 -231 OFFCURVE",
"776 -252 CURVE SMOOTH",
"768 -273 OFFCURVE",
"744 -297 OFFCURVE",
"705 -325 CURVE SMOOTH",
"666 -353 OFFCURVE",
"645 -369 OFFCURVE",
"640 -373 CURVE"
);
},
{
closed = 1;
nodes = (
"641 443 OFFCURVE",
"646 449 OFFCURVE",
"654 455 CURVE SMOOTH",
"702 490 OFFCURVE",
"726 527 OFFCURVE",
"726 563 CURVE",
"725 597 OFFCURVE",
"696 634 OFFCURVE",
"640 675 CURVE",
"584 634 OFFCURVE",
"555 597 OFFCURVE",
"554 563 CURVE",
"554 526 OFFCURVE",
"577 490 OFFCURVE",
"625 455 CURVE SMOOTH",
"633 449 OFFCURVE",
"639 443 OFFCURVE",
"640 436 CURVE"
);
}
);
width = 1279;
}
);
unicode = 06DD;
},
{
glyphname = "hizb-ar";
layers = (
{
layerId = "7FE84AD5-D318-40C5-A81A-3CDC73FF77D2";
paths = (
{
closed = 1;
nodes = (
"485 380 OFFCURVE",
"506 385 OFFCURVE",
"525 366 CURVE SMOOTH",
"544 347 OFFCURVE",
"540 325 OFFCURVE",
"512 302 CURVE SMOOTH",
"367 183 LINE",
"554 201 LINE SMOOTH",
"590 205 OFFCURVE",
"608 193 OFFCURVE",
"608 166 CURVE SMOOTH",
"608 139 OFFCURVE",
"590 127 OFFCURVE",
"554 131 CURVE SMOOTH",
"367 149 LINE",
"512 30 LINE SMOOTH",
"540 7 OFFCURVE",
"545 -15 OFFCURVE",
"526 -34 CURVE SMOOTH",
"507 -53 OFFCURVE",
"485 -49 OFFCURVE",
"462 -20 CURVE SMOOTH",
"343 125 LINE",
"361 -62 LINE SMOOTH",
"365 -98 OFFCURVE",
"353 -116 OFFCURVE",
"326 -116 CURVE SMOOTH",
"299 -116 OFFCURVE",
"287 -98 OFFCURVE",
"291 -62 CURVE SMOOTH",
"309 125 LINE",
"190 -20 LINE SMOOTH",
"167 -48 OFFCURVE",
"145 -53 OFFCURVE",
"126 -34 CURVE SMOOTH",
"107 -15 OFFCURVE",
"113 7 OFFCURVE",
"141 30 CURVE SMOOTH",
"286 149 LINE",
"99 131 LINE SMOOTH",
"63 127 OFFCURVE",
"44 139 OFFCURVE",
"44 166 CURVE SMOOTH",
"44 193 OFFCURVE",
"63 205 OFFCURVE",
"99 201 CURVE SMOOTH",
"286 183 LINE",
"141 302 LINE SMOOTH",
"113 325 OFFCURVE",
"108 347 OFFCURVE",
"127 366 CURVE SMOOTH",
"146 385 OFFCURVE",
"167 380 OFFCURVE",
"190 352 CURVE SMOOTH",
"309 207 LINE",
"291 394 LINE SMOOTH",
"287 430 OFFCURVE",
"299 448 OFFCURVE",
"326 448 CURVE SMOOTH",
"353 448 OFFCURVE",
"365 430 OFFCURVE",
"361 394 CURVE SMOOTH",
"343 206 LINE",
"462 352 LINE SMOOTH"
);
}
);
width = 652;
}
);
unicode = 06DE;
},
{
glyphname = "sukunround-ar";
layers = (
{
anchors = (
{
name = _MarkAbove;
position = "{180, 801}";
},
{
name = _TashkilAbove;
position = "{182, 801}";
}
);
layerId = "7FE84AD5-D318-40C5-A81A-3CDC73FF77D2";
paths = (
{
closed = 1;
nodes = (
"145 1009 OFFCURVE",
"178 1018 OFFCURVE",
"218 989 CURVE SMOOTH",
"248 967 OFFCURVE",
"261 943 OFFCURVE",
"259 917 CURVE SMOOTH",
"256 884 OFFCURVE",
"246 859 OFFCURVE",
"228 842 CURVE SMOOTH",
"217 831 OFFCURVE",
"197 826 OFFCURVE",
"167 828 CURVE SMOOTH",
"116 830 OFFCURVE",
"95 861 OFFCURVE",
"105 922 CURVE SMOOTH",
"108 938 OFFCURVE",
"113 952 OFFCURVE",
"120 965 CURVE SMOOTH"
);
},
{
closed = 1;
nodes = (
"237 900 OFFCURVE",
"235 909 OFFCURVE",
"220 925 CURVE SMOOTH",
"204 941 OFFCURVE",
"187 949 OFFCURVE",
"170 950 CURVE SMOOTH",
"144 950 OFFCURVE",
"130 941 OFFCURVE",
"128 920 CURVE SMOOTH",
"127 911 OFFCURVE",
"130 904 OFFCURVE",
"138 901 CURVE SMOOTH",
"162 891 OFFCURVE",
"192 890 OFFCURVE",
"225 897 CURVE SMOOTH"
);
}
);
width = 0;
}
);
unicode = 06DF;
},
{
glyphname = "sukunoval-ar";
layers = (
{
anchors = (
{
name = _MarkAbove;
position = "{180, 801}";
},
{
name = _TashkilAbove;
position = "{182, 801}";
}
);
layerId = "7FE84AD5-D318-40C5-A81A-3CDC73FF77D2";
paths = (
{
closed = 1;
nodes = (
"216 1012 OFFCURVE",
"214 1039 OFFCURVE",
"210 1053 CURVE SMOOTH",
"205 1071 OFFCURVE",
"195 1080 OFFCURVE",
"178 1080 CURVE SMOOTH",
"163 1080 OFFCURVE",
"152 1071 OFFCURVE",
"146 1053 CURVE SMOOTH",
"142 1041 OFFCURVE",
"141 1014 OFFCURVE",
"141 973 CURVE SMOOTH",
"141 933 OFFCURVE",
"142 906 OFFCURVE",
"146 892 CURVE SMOOTH",
"151 874 OFFCURVE",
"162 866 OFFCURVE",
"178 866 CURVE SMOOTH",
"195 866 OFFCURVE",
"205 874 OFFCURVE",
"210 892 CURVE SMOOTH",
"214 906 OFFCURVE",
"216 933 OFFCURVE",
"216 973 CURVE SMOOTH"
);
},
{
closed = 1;
nodes = (
"101 1011 OFFCURVE",
"109 1042 OFFCURVE",
"125 1064 CURVE SMOOTH",
"141 1087 OFFCURVE",
"159 1099 OFFCURVE",
"178 1099 CURVE SMOOTH",
"198 1099 OFFCURVE",
"215 1087 OFFCURVE",
"231 1064 CURVE SMOOTH",
"247 1041 OFFCURVE",
"256 1011 OFFCURVE",
"256 973 CURVE SMOOTH",
"256 934 OFFCURVE",
"247 904 OFFCURVE",
"231 881 CURVE SMOOTH",
"215 858 OFFCURVE",
"198 847 OFFCURVE",
"178 847 CURVE SMOOTH",
"159 847 OFFCURVE",
"141 858 OFFCURVE",
"125 881 CURVE SMOOTH",
"109 904 OFFCURVE",
"101 934 OFFCURVE",
"101 973 CURVE SMOOTH"
);
}
);
width = 0;
}
);
unicode = 06E0;
},
{
glyphname = "hahabove-ar";
layers = (
{
anchors = (
{
name = TashkilTashkilAbove;
position = "{179, 1069}";
},
{
name = _MarkAbove;
position = "{180, 801}";
},
{
name = _TashkilAbove;
position = "{182, 801}";
},
{
name = _TashkilAboveDot;
position = "{182, 801}";
}
);
layerId = "7FE84AD5-D318-40C5-A81A-3CDC73FF77D2";
paths = (
{
closed = 1;
nodes = (
"275 991 OFFCURVE",
"280 980 OFFCURVE",
"273 962 CURVE SMOOTH",
"269 952 OFFCURVE",
"262 942 OFFCURVE",
"254 934 CURVE SMOOTH",
"230 910 OFFCURVE",
"212 893 OFFCURVE",
"199 883 CURVE SMOOTH",
"189 874 OFFCURVE",
"177 868 OFFCURVE",
"164 866 CURVE SMOOTH",
"142 863 OFFCURVE",
"117 865 OFFCURVE",
"87 872 CURVE SMOOTH",
"81 873 OFFCURVE",
"79 877 OFFCURVE",
"80 883 CURVE",
"81 887 OFFCURVE",
"83 890 OFFCURVE",
"87 890 CURVE SMOOTH",
"139 894 OFFCURVE",
"181 909 OFFCURVE",
"214 935 CURVE",
"193 944 OFFCURVE",
"176 948 OFFCURVE",
"159 949 CURVE SMOOTH",
"141 950 OFFCURVE",
"123 946 OFFCURVE",
"107 939 CURVE SMOOTH",
"102 937 OFFCURVE",
"99 937 OFFCURVE",
"96 941 CURVE SMOOTH",
"92 947 OFFCURVE",
"91 952 OFFCURVE",
"95 957 CURVE SMOOTH",
"111 977 OFFCURVE",
"126 991 OFFCURVE",
"139 1001 CURVE SMOOTH",
"154 1013 OFFCURVE",
"174 1016 OFFCURVE",
"199 1010 CURVE SMOOTH",
"260 995 LINE SMOOTH"
);
}
);
width = 0;
}
);
unicode = 06E1;
},
{
glyphname = "meemStopabove-ar";
layers = (
{
anchors = (
{
name = _MarkAbove;
position = "{155, 801}";
},
{
name = _TashkilAbove;
position = "{156, 801}";
},
{
name = _TashkilAboveDot;
position = "{156, 801}";
},
{
name = _TashkilTashkilAbove;
position = "{220, 1050}";
},
{
name = _TashkilTashkilAbove2;
position = "{220, 1050}";
}
);
layerId = "7FE84AD5-D318-40C5-A81A-3CDC73FF77D2";
paths = (
{
closed = 1;
nodes = (
"68 1042 OFFCURVE",
"64 1045 OFFCURVE",
"70 1061 CURVE SMOOTH",
"77 1082 OFFCURVE",
"89 1100 OFFCURVE",
"102 1114 CURVE SMOOTH",
"115 1128 OFFCURVE",
"133 1128 OFFCURVE",
"156 1115 CURVE SMOOTH",
"174 1105 OFFCURVE",
"188 1089 OFFCURVE",
"198 1070 CURVE SMOOTH",
"201 1065 OFFCURVE",
"202 1059 OFFCURVE",
"201 1053 CURVE SMOOTH",
"196 1020 LINE SMOOTH",
"195 1013 OFFCURVE",
"189 1008 OFFCURVE",
"180 1007 CURVE SMOOTH",
"105 997 OFFCURVE",
"65 980 OFFCURVE",
"58 954 CURVE",
"86 879 OFFCURVE",
"101 825 OFFCURVE",
"103 792 CURVE SMOOTH",
"104 779 OFFCURVE",
"101 772 OFFCURVE",
"95 771 CURVE SMOOTH",
"88 770 OFFCURVE",
"84 776 OFFCURVE",
"81 787 CURVE SMOOTH",
"77 804 OFFCURVE",
"69 830 OFFCURVE",
"56 865 CURVE SMOOTH",
"42 901 OFFCURVE",
"36 933 OFFCURVE",
"38 959 CURVE",
"42 1008 OFFCURVE",
"74 1040 OFFCURVE",
"133 1053 CURVE",
"119 1069 OFFCURVE",
"102 1070 OFFCURVE",
"83 1054 CURVE SMOOTH"
);
}
);
width = 0;
}
);
unicode = 06E2;
},
{
glyphname = "maddalong-ar";
layers = (
{
anchors = (
{
name = _AlefAbove;
position = "{0, 635}";
},
{
name = _MarkAbove;
position = "{0, 781}";
},
{
name = _TashkilAbove;
position = "{0, 810}";
},
{
name = _TashkilTashkilAbove;
position = "{0, 810}";
},
{
name = _TashkilTashkilAbove2;
position = "{0, 810}";
}
);
layerId = "7FE84AD5-D318-40C5-A81A-3CDC73FF77D2";
paths = (
{
closed = 1;
nodes = (
"167 902 OFFCURVE",
"173 898 OFFCURVE",
"176 890 CURVE SMOOTH",
"179 882 OFFCURVE",
"176 875 OFFCURVE",
"169 870 CURVE SMOOTH",
"112 832 OFFCURVE",
"19 815 OFFCURVE",
"-110 819 CURVE",
"-115 808 OFFCURVE",
"-119 800 OFFCURVE",
"-124 795 CURVE SMOOTH",
"-129 790 OFFCURVE",
"-133 789 OFFCURVE",
"-136 792 CURVE SMOOTH",
"-173 831 LINE",
"-180 838 OFFCURVE",
"-172 855 OFFCURVE",
"-148 882 CURVE SMOOTH",
"-143 887 OFFCURVE",
"-136 889 OFFCURVE",
"-126 887 CURVE SMOOTH",
"-31 872 OFFCURVE",
"63 876 OFFCURVE",
"157 899 CURVE SMOOTH"
);
}
);
width = 0;
}
);
unicode = 06E4;
},
{
glyphname = "wawSmall-ar";
layers = (
{
anchors = (
{
name = TashkilAbove;
position = "{195, 417}";
}
);
layerId = "7FE84AD5-D318-40C5-A81A-3CDC73FF77D2";
paths = (
{
closed = 1;
nodes = (
"242 183 OFFCURVE",
"233 193 OFFCURVE",
"224 195 CURVE SMOOTH",
"216 197 OFFCURVE",
"210 195 OFFCURVE",
"206 189 CURVE SMOOTH",
"203 184 OFFCURVE",
"203 179 OFFCURVE",
"209 174 CURVE SMOOTH",
"216 168 OFFCURVE",
"229 166 OFFCURVE",
"249 166 CURVE"
);
},
{
closed = 1;
nodes = (
"241 101 OFFCURVE",
"227 101 OFFCURVE",
"209 104 CURVE SMOOTH",
"176 110 OFFCURVE",
"165 134 OFFCURVE",
"176 178 CURVE SMOOTH",
"182 201 OFFCURVE",
"192 223 OFFCURVE",
"208 244 CURVE SMOOTH",
"215 254 OFFCURVE",
"224 258 OFFCURVE",
"234 258 CURVE SMOOTH",
"245 258 OFFCURVE",
"256 252 OFFCURVE",
"265 241 CURVE SMOOTH",
"290 209 OFFCURVE",
"296 162 OFFCURVE",
"282 98 CURVE SMOOTH",
"273 56 OFFCURVE",
"255 22 OFFCURVE",
"227 -4 CURVE SMOOTH",
"210 -20 OFFCURVE",
"192 -30 OFFCURVE",
"174 -33 CURVE SMOOTH",
"130 -41 OFFCURVE",
"91 -35 OFFCURVE",
"55 -14 CURVE SMOOTH",
"46 -9 OFFCURVE",
"42 -4 OFFCURVE",
"45 0 CURVE SMOOTH",
"48 4 OFFCURVE",
"53 5 OFFCURVE",
"62 5 CURVE SMOOTH",
"99 4 OFFCURVE",
"135 10 OFFCURVE",
"167 24 CURVE SMOOTH",
"207 41 OFFCURVE",
"235 68 OFFCURVE",
"252 103 CURVE"
);
}
);
width = 333;
}
);
unicode = 06E5;
},
{
glyphname = "yehSmall-ar";
layers = (
{
anchors = (
{
name = TashkilAbove;
position = "{205, 417}";
}
);
layerId = "7FE84AD5-D318-40C5-A81A-3CDC73FF77D2";
paths = (
{
closed = 1;
nodes = (
"204 245 OFFCURVE",
"219 259 OFFCURVE",
"236 259 CURVE SMOOTH",
"258 259 OFFCURVE",
"272 246 OFFCURVE",
"279 219 CURVE SMOOTH",
"284 200 OFFCURVE",
"285 176 OFFCURVE",
"284 148 CURVE SMOOTH",
"284 139 OFFCURVE",
"281 135 OFFCURVE",
"276 135 CURVE SMOOTH",
"271 135 OFFCURVE",
"268 139 OFFCURVE",
"267 147 CURVE SMOOTH",
"262 181 OFFCURVE",
"250 198 OFFCURVE",
"230 198 CURVE SMOOTH",
"216 198 OFFCURVE",
"202 185 OFFCURVE",
"188 159 CURVE SMOOTH",
"169 124 OFFCURVE",
"132 92 OFFCURVE",
"75 65 CURVE SMOOTH",
"68 62 OFFCURVE",
"66 60 OFFCURVE",
"68 58 CURVE",
"144 41 OFFCURVE",
"235 43 OFFCURVE",
"342 62 CURVE SMOOTH",
"367 67 OFFCURVE",
"372 60 OFFCURVE",
"355 44 CURVE SMOOTH",
"354 44 OFFCURVE",
"347 38 OFFCURVE",
"332 26 CURVE SMOOTH",
"317 14 OFFCURVE",
"303 8 OFFCURVE",
"292 6 CURVE SMOOTH",
"255 0 OFFCURVE",
"216 -3 OFFCURVE",
"173 -2 CURVE SMOOTH",
"130 -1 OFFCURVE",
"100 1 OFFCURVE",
"83 6 CURVE",
"48 17 OFFCURVE",
"39 39 OFFCURVE",
"56 71 CURVE SMOOTH",
"70 97 OFFCURVE",
"84 114 OFFCURVE",
"99 122 CURVE SMOOTH",
"145 149 OFFCURVE",
"176 181 OFFCURVE",
"193 219 CURVE SMOOTH"
);
}
);
width = 407;
}
);
unicode = 06E6;
},
{
glyphname = "noonabove-ar";
layers = (
{
anchors = (
{
name = TashkilTashkilAbove;
position = "{127, 1249}";
},
{
name = _MarkAbove;
position = "{141, 801}";
},
{
name = _NoonAbove;
position = "{142, 801}";
}
);
layerId = "7FE84AD5-D318-40C5-A81A-3CDC73FF77D2";
paths = (
{
closed = 1;
nodes = (
"130 1208 OFFCURVE",
"132 1208 OFFCURVE",
"134 1207 CURVE SMOOTH",
"149 1202 OFFCURVE",
"163 1194 OFFCURVE",
"175 1183 CURVE SMOOTH",
"177 1181 OFFCURVE",
"177 1180 OFFCURVE",
"176 1178 CURVE SMOOTH",
"148 1134 LINE SMOOTH",
"147 1132 OFFCURVE",
"145 1133 OFFCURVE",
"142 1135 CURVE SMOOTH",
"139 1137 OFFCURVE",
"126 1145 OFFCURVE",
"102 1160 CURVE SMOOTH",
"100 1161 OFFCURVE",
"100 1163 OFFCURVE",
"101 1164 CURVE SMOOTH",
"129 1206 LINE SMOOTH"
);
},
{
closed = 1;
nodes = (
"250 1094 OFFCURVE",
"262 1064 OFFCURVE",
"270 1028 CURVE SMOOTH",
"278 992 OFFCURVE",
"279 958 OFFCURVE",
"274 924 CURVE SMOOTH",
"271 906 OFFCURVE",
"265 890 OFFCURVE",
"257 877 CURVE SMOOTH",
"235 842 OFFCURVE",
"196 822 OFFCURVE",
"140 816 CURVE SMOOTH",
"100 812 OFFCURVE",
"70 819 OFFCURVE",
"49 839 CURVE SMOOTH",
"28 859 OFFCURVE",
"18 885 OFFCURVE",
"20 920 CURVE SMOOTH",
"22 955 OFFCURVE",
"34 988 OFFCURVE",
"56 1018 CURVE SMOOTH",
"59 1022 OFFCURVE",
"61 1023 OFFCURVE",
"64 1021 CURVE SMOOTH",
"67 1019 OFFCURVE",
"66 1016 OFFCURVE",
"63 1010 CURVE SMOOTH",
"39 970 OFFCURVE",
"35 937 OFFCURVE",
"50 912 CURVE SMOOTH",
"65 887 OFFCURVE",
"94 875 OFFCURVE",
"137 875 CURVE",
"187 876 OFFCURVE",
"228 892 OFFCURVE",
"259 925 CURVE SMOOTH",
"260 926 OFFCURVE",
"260 927 OFFCURVE",
"260 930 CURVE SMOOTH",
"260 948 OFFCURVE",
"254 972 OFFCURVE",
"243 1002 CURVE SMOOTH",
"232 1032 OFFCURVE",
"221 1055 OFFCURVE",
"212 1068 CURVE SMOOTH",
"209 1072 OFFCURVE",
"209 1075 OFFCURVE",
"210 1078 CURVE SMOOTH",
"228 1121 LINE SMOOTH",
"230 1126 OFFCURVE",
"232 1126 OFFCURVE",
"236 1119 CURVE"
);
}
);
width = 0;
}
);
unicode = 06E8;
},
{
glyphname = "sajdah-ar";
layers = (
{
layerId = "7FE84AD5-D318-40C5-A81A-3CDC73FF77D2";
paths = (
{
closed = 1;
nodes = (
"420 426 OFFCURVE",
"407 416 OFFCURVE",
"400 387 CURVE SMOOTH",
"371 260 LINE SMOOTH",
"370 256 OFFCURVE",
"370 254 OFFCURVE",
"372 253 CURVE SMOOTH",
"374 252 OFFCURVE",
"376 254 OFFCURVE",
"378 257 CURVE SMOOTH",
"447 367 LINE SMOOTH",
"463 393 OFFCURVE",
"460 410 OFFCURVE",
"440 418 CURVE SMOOTH"
);
},
{
closed = 1;
nodes = (
"596 82 OFFCURVE",
"586 95 OFFCURVE",
"557 102 CURVE SMOOTH",
"430 131 LINE SMOOTH",
"426 132 OFFCURVE",
"424 132 OFFCURVE",
"423 130 CURVE SMOOTH",
"422 128 OFFCURVE",
"424 126 OFFCURVE",
"427 124 CURVE SMOOTH",
"537 55 LINE SMOOTH",
"563 39 OFFCURVE",
"580 42 OFFCURVE",
"588 62 CURVE SMOOTH"
);
},
{
closed = 1;
nodes = (
"252 -94 OFFCURVE",
"265 -84 OFFCURVE",
"272 -55 CURVE SMOOTH",
"301 72 LINE SMOOTH",
"302 76 OFFCURVE",
"302 78 OFFCURVE",
"300 79 CURVE SMOOTH",
"298 80 OFFCURVE",
"296 78 OFFCURVE",
"294 75 CURVE SMOOTH",
"226 -36 LINE SMOOTH",
"210 -61 OFFCURVE",
"212 -78 OFFCURVE",
"232 -86 CURVE SMOOTH"
);
},
{
closed = 1;
nodes = (
"76 250 OFFCURVE",
"86 237 OFFCURVE",
"115 230 CURVE SMOOTH",
"242 201 LINE SMOOTH",
"246 200 OFFCURVE",
"248 200 OFFCURVE",
"249 202 CURVE SMOOTH",
"250 204 OFFCURVE",
"248 206 OFFCURVE",
"245 208 CURVE SMOOTH",
"134 276 LINE SMOOTH",
"109 292 OFFCURVE",
"92 290 OFFCURVE",
"84 270 CURVE SMOOTH"
);
},
{
closed = 1;
nodes = (
"586 237 OFFCURVE",
"596 250 OFFCURVE",
"588 270 CURVE SMOOTH",
"580 290 OFFCURVE",
"563 292 OFFCURVE",
"538 276 CURVE SMOOTH",
"427 208 LINE SMOOTH",
"424 206 OFFCURVE",
"422 204 OFFCURVE",
"423 202 CURVE SMOOTH",
"424 200 OFFCURVE",
"426 200 OFFCURVE",
"430 201 CURVE SMOOTH",
"557 230 LINE SMOOTH"
);
},
{
closed = 1;
nodes = (
"407 -84 OFFCURVE",
"420 -94 OFFCURVE",
"440 -86 CURVE SMOOTH",
"460 -78 OFFCURVE",
"462 -61 OFFCURVE",
"446 -36 CURVE SMOOTH",
"378 75 LINE SMOOTH",
"376 78 OFFCURVE",
"374 80 OFFCURVE",
"372 79 CURVE SMOOTH",
"370 78 OFFCURVE",
"370 76 OFFCURVE",
"371 72 CURVE SMOOTH",
"400 -55 LINE SMOOTH"
);
},
{
closed = 1;
nodes = (
"86 95 OFFCURVE",
"76 81 OFFCURVE",
"84 61 CURVE SMOOTH",
"92 41 OFFCURVE",
"110 39 OFFCURVE",
"135 55 CURVE SMOOTH",
"245 124 LINE SMOOTH",
"248 126 OFFCURVE",
"250 128 OFFCURVE",
"249 130 CURVE SMOOTH",
"248 132 OFFCURVE",
"246 132 OFFCURVE",
"242 131 CURVE SMOOTH",
"115 102 LINE SMOOTH"
);
},
{
closed = 1;
nodes = (
"264 416 OFFCURVE",
"251 426 OFFCURVE",
"231 418 CURVE SMOOTH",
"211 410 OFFCURVE",
"209 392 OFFCURVE",
"225 367 CURVE SMOOTH",
"294 257 LINE SMOOTH",
"296 254 OFFCURVE",
"298 252 OFFCURVE",
"300 253 CURVE SMOOTH",
"302 254 OFFCURVE",
"302 256 OFFCURVE",
"301 260 CURVE SMOOTH",
"271 387 LINE SMOOTH"
);
},
{
closed = 1;
nodes = (
"514 374 OFFCURVE",
"497 369 OFFCURVE",
"480 345 CURVE SMOOTH",
"404 240 LINE SMOOTH",
"402 237 OFFCURVE",
"402 234 OFFCURVE",
"403 233 CURVE SMOOTH",
"404 232 OFFCURVE",
"407 232 OFFCURVE",
"410 234 CURVE SMOOTH",
"516 310 LINE SMOOTH",
"540 328 OFFCURVE",
"544 344 OFFCURVE",
"529 359 CURVE SMOOTH"
);
},
{
closed = 1;
nodes = (
"544 -12 OFFCURVE",
"539 5 OFFCURVE",
"515 22 CURVE SMOOTH",
"410 98 LINE SMOOTH",
"407 100 OFFCURVE",
"404 100 OFFCURVE",
"403 99 CURVE SMOOTH",
"402 98 OFFCURVE",
"402 95 OFFCURVE",
"404 92 CURVE SMOOTH",
"479 -14 LINE SMOOTH",
"497 -38 OFFCURVE",
"514 -42 OFFCURVE",
"529 -27 CURVE SMOOTH"
);
},
{
closed = 1;
nodes = (
"158 -42 OFFCURVE",
"174 -38 OFFCURVE",
"192 -14 CURVE SMOOTH",
"268 92 LINE SMOOTH",
"270 95 OFFCURVE",
"270 98 OFFCURVE",
"269 99 CURVE SMOOTH",
"268 100 OFFCURVE",
"265 100 OFFCURVE",
"262 98 CURVE SMOOTH",
"157 22 LINE SMOOTH",
"133 5 OFFCURVE",
"128 -12 OFFCURVE",
"143 -27 CURVE SMOOTH"
);
},
{
closed = 1;
nodes = (
"128 344 OFFCURVE",
"132 328 OFFCURVE",
"156 310 CURVE SMOOTH",
"262 234 LINE SMOOTH",
"265 232 OFFCURVE",
"268 232 OFFCURVE",
"269 233 CURVE SMOOTH",
"270 234 OFFCURVE",
"270 237 OFFCURVE",
"268 240 CURVE SMOOTH",
"192 345 LINE SMOOTH",
"175 369 OFFCURVE",
"158 374 OFFCURVE",
"143 359 CURVE SMOOTH"
);
},
{
closed = 1;
nodes = (
"593 136 OFFCURVE",
"608 144 OFFCURVE",
"608 166 CURVE SMOOTH",
"608 188 OFFCURVE",
"593 196 OFFCURVE",
"564 191 CURVE SMOOTH",
"436 170 LINE SMOOTH",
"432 169 OFFCURVE",
"430 168 OFFCURVE",
"430 166 CURVE SMOOTH",
"430 164 OFFCURVE",
"432 163 OFFCURVE",
"436 162 CURVE SMOOTH",
"564 141 LINE SMOOTH"
);
},
{
closed = 1;
nodes = (
"306 -91 OFFCURVE",
"314 -106 OFFCURVE",
"336 -106 CURVE SMOOTH",
"358 -106 OFFCURVE",
"366 -91 OFFCURVE",
"361 -62 CURVE SMOOTH",
"340 66 LINE SMOOTH",
"339 70 OFFCURVE",
"338 72 OFFCURVE",
"336 72 CURVE SMOOTH",
"334 72 OFFCURVE",
"333 70 OFFCURVE",
"332 66 CURVE SMOOTH",
"311 -62 LINE SMOOTH"
);
},
{
closed = 1;
nodes = (
"78 196 OFFCURVE",
"63 188 OFFCURVE",
"63 166 CURVE SMOOTH",
"63 144 OFFCURVE",
"78 136 OFFCURVE",
"107 141 CURVE SMOOTH",
"236 162 LINE SMOOTH",
"240 163 OFFCURVE",
"242 164 OFFCURVE",
"242 166 CURVE SMOOTH",
"242 168 OFFCURVE",
"240 169 OFFCURVE",
"236 170 CURVE SMOOTH",
"107 191 LINE SMOOTH"
);
},
{
closed = 1;
nodes = (
"366 424 OFFCURVE",
"358 438 OFFCURVE",
"336 438 CURVE SMOOTH",
"314 438 OFFCURVE",
"306 424 OFFCURVE",
"311 395 CURVE SMOOTH",
"332 266 LINE SMOOTH",
"333 262 OFFCURVE",
"334 260 OFFCURVE",
"336 260 CURVE SMOOTH",
"338 260 OFFCURVE",
"339 262 OFFCURVE",
"340 266 CURVE SMOOTH",
"361 395 LINE SMOOTH"
);
},
{
closed = 1;
nodes = (
"342 510 OFFCURVE",
"353 539 OFFCURVE",
"368 565 CURVE",
"354 578 OFFCURVE",
"343 593 OFFCURVE",
"336 611 CURVE",
"329 593 OFFCURVE",
"318 578 OFFCURVE",
"304 565 CURVE",
"320 539 OFFCURVE",
"330 510 OFFCURVE",
"336 477 CURVE"
);
},
{
closed = 1;
nodes = (
"348 686 OFFCURVE",
"349 661 OFFCURVE",
"351 651 CURVE SMOOTH",
"356 623 OFFCURVE",
"365 602 OFFCURVE",
"382 586 CURVE",
"389 594 OFFCURVE",
"394 598 OFFCURVE",
"394 598 CURVE SMOOTH",
"423 627 OFFCURVE",
"452 642 OFFCURVE",
"483 642 CURVE SMOOTH",
"496 642 OFFCURVE",
"507 639 OFFCURVE",
"515 634 CURVE SMOOTH",
"530 624 OFFCURVE",
"537 611 OFFCURVE",
"537 594 CURVE SMOOTH",
"537 585 OFFCURVE",
"534 576 OFFCURVE",
"529 568 CURVE SMOOTH",
"520 553 OFFCURVE",
"506 546 OFFCURVE",
"488 546 CURVE SMOOTH",
"479 546 OFFCURVE",
"471 548 OFFCURVE",
"463 553 CURVE SMOOTH",
"448 562 OFFCURVE",
"440 576 OFFCURVE",
"440 594 CURVE SMOOTH",
"442 603 OFFCURVE",
"437 602 OFFCURVE",
"423 592 CURVE SMOOTH",
"386 561 OFFCURVE",
"364 516 OFFCURVE",
"357 454 CURVE",
"376 445 OFFCURVE",
"384 423 OFFCURVE",
"380 388 CURVE",
"395 436 OFFCURVE",
"419 451 OFFCURVE",
"453 433 CURVE SMOOTH",
"480 419 OFFCURVE",
"482 393 OFFCURVE",
"461 354 CURVE",
"493 393 OFFCURVE",
"521 398 OFFCURVE",
"546 368 CURVE SMOOTH",
"565 345 OFFCURVE",
"558 320 OFFCURVE",
"524 292 CURVE",
"569 316 OFFCURVE",
"597 308 OFFCURVE",
"608 271 CURVE SMOOTH",
"616 243 OFFCURVE",
"600 223 OFFCURVE",
"558 210 CURVE",
"605 215 OFFCURVE",
"628 200 OFFCURVE",
"628 166 CURVE SMOOTH",
"628 132 OFFCURVE",
"605 117 OFFCURVE",
"560 122 CURVE",
"607 108 OFFCURVE",
"621 83 OFFCURVE",
"603 49 CURVE SMOOTH",
"589 23 OFFCURVE",
"563 20 OFFCURVE",
"524 41 CURVE",
"563 9 OFFCURVE",
"568 -20 OFFCURVE",
"538 -45 CURVE SMOOTH",
"515 -64 OFFCURVE",
"489 -56 OFFCURVE",
"461 -22 CURVE",
"485 -67 OFFCURVE",
"478 -95 OFFCURVE",
"441 -106 CURVE SMOOTH",
"413 -114 OFFCURVE",
"393 -98 OFFCURVE",
"380 -56 CURVE",
"384 -91 OFFCURVE",
"376 -113 OFFCURVE",
"357 -122 CURVE",
"364 -184 OFFCURVE",
"386 -229 OFFCURVE",
"423 -260 CURVE SMOOTH",
"437 -270 OFFCURVE",
"442 -271 OFFCURVE",
"440 -262 CURVE SMOOTH",
"440 -244 OFFCURVE",
"448 -230 OFFCURVE",
"463 -221 CURVE SMOOTH",
"471 -216 OFFCURVE",
"479 -214 OFFCURVE",
"488 -214 CURVE SMOOTH",
"506 -214 OFFCURVE",
"520 -221 OFFCURVE",
"529 -236 CURVE SMOOTH",
"534 -244 OFFCURVE",
"537 -253 OFFCURVE",
"537 -262 CURVE SMOOTH",
"537 -279 OFFCURVE",
"530 -292 OFFCURVE",
"515 -302 CURVE SMOOTH",
"507 -307 OFFCURVE",
"496 -310 OFFCURVE",
"483 -310 CURVE SMOOTH",
"452 -310 OFFCURVE",
"423 -295 OFFCURVE",
"394 -266 CURVE SMOOTH",
"394 -266 OFFCURVE",
"389 -262 OFFCURVE",
"382 -254 CURVE",
"365 -270 OFFCURVE",
"356 -291 OFFCURVE",
"351 -319 CURVE SMOOTH",
"349 -329 OFFCURVE",
"348 -354 OFFCURVE",
"348 -392 CURVE SMOOTH",
"348 -403 OFFCURVE",
"344 -408 OFFCURVE",
"336 -408 CURVE SMOOTH",
"328 -408 OFFCURVE",
"323 -403 OFFCURVE",
"323 -392 CURVE SMOOTH",
"323 -354 OFFCURVE",
"323 -329 OFFCURVE",
"321 -319 CURVE SMOOTH",
"316 -291 OFFCURVE",
"306 -270 OFFCURVE",
"289 -254 CURVE",
"282 -262 OFFCURVE",
"278 -266 OFFCURVE",
"278 -266 CURVE SMOOTH",
"249 -295 OFFCURVE",
"219 -310 OFFCURVE",
"188 -310 CURVE SMOOTH",
"175 -310 OFFCURVE",
"165 -307 OFFCURVE",
"157 -302 CURVE SMOOTH",
"142 -292 OFFCURVE",
"135 -279 OFFCURVE",
"135 -262 CURVE SMOOTH",
"135 -253 OFFCURVE",
"137 -244 OFFCURVE",
"142 -236 CURVE SMOOTH",
"151 -221 OFFCURVE",
"165 -214 OFFCURVE",
"183 -214 CURVE SMOOTH",
"192 -214 OFFCURVE",
"200 -216 OFFCURVE",
"208 -221 CURVE SMOOTH",
"223 -230 OFFCURVE",
"231 -244 OFFCURVE",
"231 -262 CURVE SMOOTH",
"229 -271 OFFCURVE",
"235 -270 OFFCURVE",
"249 -260 CURVE SMOOTH",
"286 -229 OFFCURVE",
"307 -184 OFFCURVE",
"314 -122 CURVE",
"295 -114 OFFCURVE",
"288 -92 OFFCURVE",
"291 -59 CURVE",
"277 -105 OFFCURVE",
"253 -119 OFFCURVE",
"219 -101 CURVE SMOOTH",
"192 -87 OFFCURVE",
"189 -61 OFFCURVE",
"210 -23 CURVE",
"179 -61 OFFCURVE",
"150 -66 OFFCURVE",
"125 -37 CURVE SMOOTH",
"105 -14 OFFCURVE",
"112 12 OFFCURVE",
"146 39 CURVE",
"103 16 OFFCURVE",
"76 23 OFFCURVE",
"64 60 CURVE SMOOTH",
"56 88 OFFCURVE",
"72 109 OFFCURVE",
"114 122 CURVE",
"67 117 OFFCURVE",
"44 132 OFFCURVE",
"44 166 CURVE SMOOTH",
"44 200 OFFCURVE",
"67 215 OFFCURVE",
"114 210 CURVE",
"66 225 OFFCURVE",
"51 249 OFFCURVE",
"69 284 CURVE SMOOTH",
"83 309 OFFCURVE",
"109 313 OFFCURVE",
"148 292 CURVE",
"109 324 OFFCURVE",
"104 351 OFFCURVE",
"134 376 CURVE SMOOTH",
"157 395 OFFCURVE",
"182 388 OFFCURVE",
"209 355 CURVE",
"186 398 OFFCURVE",
"193 426 OFFCURVE",
"230 438 CURVE SMOOTH",
"258 446 OFFCURVE",
"279 430 OFFCURVE",
"292 388 CURVE",
"288 423 OFFCURVE",
"295 445 OFFCURVE",
"314 454 CURVE",
"307 516 OFFCURVE",
"286 561 OFFCURVE",
"249 592 CURVE SMOOTH",
"235 602 OFFCURVE",
"229 603 OFFCURVE",
"231 594 CURVE SMOOTH",
"231 576 OFFCURVE",
"223 562 OFFCURVE",
"208 553 CURVE SMOOTH",
"200 548 OFFCURVE",
"192 546 OFFCURVE",
"183 546 CURVE SMOOTH",
"165 546 OFFCURVE",
"151 553 OFFCURVE",
"142 568 CURVE SMOOTH",
"137 576 OFFCURVE",
"135 585 OFFCURVE",
"135 594 CURVE SMOOTH",
"135 611 OFFCURVE",
"142 624 OFFCURVE",
"157 634 CURVE SMOOTH",
"165 639 OFFCURVE",
"175 642 OFFCURVE",
"188 642 CURVE SMOOTH",
"219 642 OFFCURVE",
"249 627 OFFCURVE",
"278 598 CURVE SMOOTH",
"278 598 OFFCURVE",
"282 594 OFFCURVE",
"289 586 CURVE",
"306 602 OFFCURVE",
"316 623 OFFCURVE",
"321 651 CURVE SMOOTH",
"323 661 OFFCURVE",
"323 686 OFFCURVE",
"323 724 CURVE SMOOTH",
"323 735 OFFCURVE",
"328 740 OFFCURVE",
"336 740 CURVE SMOOTH",
"344 740 OFFCURVE",
"348 735 OFFCURVE",
"348 724 CURVE SMOOTH"
);
},
{
closed = 1;
nodes = (
"330 -178 OFFCURVE",
"320 -207 OFFCURVE",
"304 -233 CURVE",
"318 -246 OFFCURVE",
"329 -261 OFFCURVE",
"336 -279 CURVE",
"343 -261 OFFCURVE",
"354 -246 OFFCURVE",
"368 -233 CURVE",
"353 -207 OFFCURVE",
"342 -178 OFFCURVE",
"336 -145 CURVE"
);
}
);
width = 671;
}
);
unicode = 06E9;
},
{
glyphname = "rhombusStopbelow-ar";
layers = (
{
anchors = (
{
name = _MarkBelow;
position = "{254, -371}";
}
);
layerId = "7FE84AD5-D318-40C5-A81A-3CDC73FF77D2";
paths = (
{
closed = 1;
nodes = (
"337 -624 LINE",
"254 -482 LINE",
"171 -624 LINE",
"254 -767 LINE"
);
},
{
closed = 1;
nodes = (
"131 -624 LINE",
"254 -415 LINE",
"377 -624 LINE",
"254 -835 LINE"
);
}
);
width = 0;
}
);
unicode = 06EA;
},
{
glyphname = "dotStopabove-ar";
layers = (
{
anchors = (
{
name = TashkilTashkilAbove;
position = "{93, 1060}";
},
{
name = _MarkAbove;
position = "{111, 801}";
},
{
name = _TashkilAbove;
position = "{109, 801}";
},
{
name = _TashkilTashkilAbove;
position = "{111, 801}";
}
);
layerId = "7FE84AD5-D318-40C5-A81A-3CDC73FF77D2";
paths = (
{
closed = 1;
nodes = (
"209 968 OFFCURVE",
"219 944 OFFCURVE",
"219 913 CURVE SMOOTH",
"219 883 OFFCURVE",
"208 856 OFFCURVE",
"187 835 CURVE SMOOTH",
"166 814 OFFCURVE",
"139 803 OFFCURVE",
"109 803 CURVE SMOOTH",
"79 803 OFFCURVE",
"52 814 OFFCURVE",
"31 835 CURVE SMOOTH",
"10 856 OFFCURVE",
"-1 883 OFFCURVE",
"-1 913 CURVE SMOOTH",
"-1 943 OFFCURVE",
"10 969 OFFCURVE",
"31 990 CURVE SMOOTH",
"52 1011 OFFCURVE",
"79 1022 OFFCURVE",
"109 1022 CURVE SMOOTH",
"140 1022 OFFCURVE",
"167 1011 OFFCURVE",
"188 989 CURVE SMOOTH"
);
}
);
width = 0;
}
);
unicode = 06EC;
},
{
glyphname = "fourFarsi-ar";
layers = (
{
layerId = "7FE84AD5-D318-40C5-A81A-3CDC73FF77D2";
paths = (
{
closed = 1;
nodes = (
"202 473 OFFCURVE",
"221 438 OFFCURVE",
"232 410 CURVE SMOOTH",
"237 399 OFFCURVE",
"242 399 OFFCURVE",
"246 410 CURVE SMOOTH",
"286 503 OFFCURVE",
"343 553 OFFCURVE",
"419 558 CURVE SMOOTH",
"463 561 OFFCURVE",
"503 528 OFFCURVE",
"538 462 CURVE SMOOTH",
"545 448 OFFCURVE",
"547 439 OFFCURVE",
"544 434 CURVE SMOOTH",
"539 427 OFFCURVE",
"533 427 OFFCURVE",
"523 434 CURVE SMOOTH",
"481 465 OFFCURVE",
"446 480 OFFCURVE",
"420 480 CURVE SMOOTH",
"337 479 OFFCURVE",
"287 445 OFFCURVE",
"267 379 CURVE",
"307 345 OFFCURVE",
"346 327 OFFCURVE",
"384 325 CURVE SMOOTH",
"440 322 OFFCURVE",
"479 329 OFFCURVE",
"500 347 CURVE SMOOTH",
"513 358 OFFCURVE",
"522 361 OFFCURVE",
"528 356 CURVE SMOOTH",
"535 349 OFFCURVE",
"534 339 OFFCURVE",
"525 325 CURVE SMOOTH",
"491 271 OFFCURVE",
"442 243 OFFCURVE",
"379 238 CURVE SMOOTH",
"341 235 OFFCURVE",
"308 240 OFFCURVE",
"282 253 CURVE",
"308 131 OFFCURVE",
"312 21 OFFCURVE",
"292 -77 CURVE SMOOTH",
"291 -84 OFFCURVE",
"288 -89 OFFCURVE",
"282 -91 CURVE SMOOTH",
"276 -93 OFFCURVE",
"271 -93 OFFCURVE",
"267 -89 CURVE SMOOTH",
"263 -85 OFFCURVE",
"260 -80 OFFCURVE",
"260 -73 CURVE SMOOTH",
"253 95 OFFCURVE",
"207 244 OFFCURVE",
"124 372 CURVE SMOOTH",
"112 391 OFFCURVE",
"108 406 OFFCURVE",
"111 419 CURVE SMOOTH",
"136 524 LINE SMOOTH",
"142 549 OFFCURVE",
"155 546 OFFCURVE",
"175 515 CURVE SMOOTH"
);
}
);
width = 585;
}
);
unicode = 06F4;
},
{
glyphname = "fiveFarsi-ar";
layers = (
{
layerId = "7FE84AD5-D318-40C5-A81A-3CDC73FF77D2";
paths = (
{
closed = 1;
nodes = (
"333 434 OFFCURVE",
"396 359 OFFCURVE",
"425 301 CURVE SMOOTH",
"464 223 OFFCURVE",
"481 164 OFFCURVE",
"476 125 CURVE SMOOTH",
"463 15 OFFCURVE",
"430 -45 OFFCURVE",
"376 -54 CURVE SMOOTH",
"336 -61 OFFCURVE",
"308 -51 OFFCURVE",
"292 -25 CURVE",
"261 -61 OFFCURVE",
"227 -78 OFFCURVE",
"188 -75 CURVE SMOOTH",
"120 -69 OFFCURVE",
"91 -14 OFFCURVE",
"102 91 CURVE SMOOTH",
"110 167 OFFCURVE",
"152 255 OFFCURVE",
"227 358 CURVE",
"220 363 OFFCURVE",
"212 368 OFFCURVE",
"204 372 CURVE SMOOTH",
"197 376 OFFCURVE",
"194 384 OFFCURVE",
"196 399 CURVE SMOOTH",
"213 520 LINE SMOOTH",
"215 536 OFFCURVE",
"223 538 OFFCURVE",
"235 526 CURVE SMOOTH"
);
},
{
closed = 1;
nodes = (
"210 286 OFFCURVE",
"183 238 OFFCURVE",
"168 200 CURVE SMOOTH",
"143 136 OFFCURVE",
"141 92 OFFCURVE",
"161 69 CURVE SMOOTH",
"201 24 OFFCURVE",
"253 32 OFFCURVE",
"317 94 CURVE SMOOTH",
"323 100 OFFCURVE",
"328 103 OFFCURVE",
"333 101 CURVE",
"337 99 OFFCURVE",
"340 95 OFFCURVE",
"341 89 CURVE",
"338 84 OFFCURVE",
"337 78 OFFCURVE",
"338 71 CURVE",
"350 63 OFFCURVE",
"364 60 OFFCURVE",
"381 62 CURVE SMOOTH",
"404 65 OFFCURVE",
"421 80 OFFCURVE",
"431 107 CURVE SMOOTH",
"435 117 OFFCURVE",
"433 127 OFFCURVE",
"427 139 CURVE SMOOTH",
"385 222 OFFCURVE",
"327 290 OFFCURVE",
"251 342 CURVE"
);
}
);
width = 585;
}
);
unicode = 06F5;
},
{
glyphname = "sixFarsi-ar";
layers = (
{
layerId = "7FE84AD5-D318-40C5-A81A-3CDC73FF77D2";
paths = (
{
closed = 1;
nodes = (
"347 280 OFFCURVE",
"361 283 OFFCURVE",
"373 292 CURVE SMOOTH",
"420 328 OFFCURVE",
"458 352 OFFCURVE",
"488 363 CURVE SMOOTH",
"508 370 OFFCURVE",
"516 365 OFFCURVE",
"510 348 CURVE SMOOTH",
"484 265 LINE SMOOTH",
"477 244 OFFCURVE",
"465 230 OFFCURVE",
"448 223 CURVE SMOOTH",
"386 197 OFFCURVE",
"325 156 OFFCURVE",
"264 102 CURVE SMOOTH",
"206 51 OFFCURVE",
"154 -9 OFFCURVE",
"110 -75 CURVE SMOOTH",
"99 -91 OFFCURVE",
"87 -98 OFFCURVE",
"77 -94 CURVE SMOOTH",
"69 -91 OFFCURVE",
"70 -81 OFFCURVE",
"78 -61 CURVE SMOOTH",
"119 39 OFFCURVE",
"181 127 OFFCURVE",
"266 202 CURVE",
"178 234 OFFCURVE",
"126 271 OFFCURVE",
"108 314 CURVE SMOOTH",
"103 327 OFFCURVE",
"102 341 OFFCURVE",
"106 354 CURVE SMOOTH",
"118 392 OFFCURVE",
"138 425 OFFCURVE",
"164 456 CURVE SMOOTH",
"225 528 OFFCURVE",
"280 563 OFFCURVE",
"330 563 CURVE SMOOTH",
"354 563 OFFCURVE",
"376 552 OFFCURVE",
"398 529 CURVE SMOOTH",
"424 501 OFFCURVE",
"442 475 OFFCURVE",
"451 453 CURVE SMOOTH",
"454 444 OFFCURVE",
"453 439 OFFCURVE",
"448 436 CURVE SMOOTH",
"442 433 OFFCURVE",
"436 434 OFFCURVE",
"429 441 CURVE SMOOTH",
"407 464 OFFCURVE",
"373 476 OFFCURVE",
"326 477 CURVE SMOOTH",
"263 478 OFFCURVE",
"209 453 OFFCURVE",
"164 403 CURVE SMOOTH",
"159 398 OFFCURVE",
"159 393 OFFCURVE",
"164 387 CURVE SMOOTH",
"201 340 OFFCURVE",
"257 306 OFFCURVE",
"331 285 CURVE SMOOTH"
);
}
);
width = 585;
}
);
unicode = 06F6;
},
{
glyphname = uni0890;
layers = (
{
layerId = "7FE84AD5-D318-40C5-A81A-3CDC73FF77D2";
paths = (
{
closed = 1;
nodes = (
"1650 846 LINE",
"76 846 LINE",
"0 932 LINE",
"636 932 LINE",
"596 999 OFFCURVE",
"576 1058 OFFCURVE",
"576 1108 CURVE SMOOTH",
"576 1181 OFFCURVE",
"626 1225 OFFCURVE",
"687 1226 CURVE SMOOTH",
"804 1228 OFFCURVE",
"863 1165 OFFCURVE",
"948 1098 CURVE SMOOTH",
"1054 1015 OFFCURVE",
"1101 986 OFFCURVE",
"1215 934 CURVE",
"1592 934 LINE"
);
},
{
closed = 1;
nodes = (
"1034 934 LINE",
"975 975 OFFCURVE",
"863 1067 OFFCURVE",
"810 1098 CURVE SMOOTH",
"740 1140 OFFCURVE",
"632 1142 OFFCURVE",
"632 1042 CURVE SMOOTH",
"632 1010 OFFCURVE",
"640 973 OFFCURVE",
"657 932 CURVE"
);
}
);
width = 1650;
}
);
unicode = 0890;
},
{
glyphname = "yehRohingya-ar";
layers = (
{
anchors = (
{
name = TashkilAbove;
position = "{413, 801}";
},
{
name = TashkilBelow;
position = "{354, -327}";
}
);
components = (
{
name = "twodotshorizontalbelow-ar";
transform = "{1, 0, 0, 1, 379, -215}";
}
);
layerId = "7FE84AD5-D318-40C5-A81A-3CDC73FF77D2";
paths = (
{
closed = 1;
nodes = (
"399 276 OFFCURVE",
"370 259 OFFCURVE",
"344 222 CURVE",
"337 213 OFFCURVE",
"340 198 OFFCURVE",
"355 178 CURVE SMOOTH",
"370 158 OFFCURVE",
"386 148 OFFCURVE",
"406 148 CURVE SMOOTH",
"426 148 OFFCURVE",
"448 162 OFFCURVE",
"472 187 CURVE",
"474 238 OFFCURVE",
"460 266 OFFCURVE",
"431 273 CURVE"
);
},
{
closed = 1;
nodes = (
"480 379 OFFCURVE",
"483 378 OFFCURVE",
"486 377 CURVE SMOOTH",
"502 367 OFFCURVE",
"512 349 OFFCURVE",
"517 322 CURVE SMOOTH",
"526 271 OFFCURVE",
"520 223 OFFCURVE",
"500 179 CURVE SMOOTH",
"490 158 OFFCURVE",
"477 136 OFFCURVE",
"463 115 CURVE",
"504 100 OFFCURVE",
"541 91 OFFCURVE",
"572 90 CURVE SMOOTH",
"578 90 OFFCURVE",
"582 81 OFFCURVE",
"583 65 CURVE SMOOTH",
"587 22 OFFCURVE",
"583 1 OFFCURVE",
"572 0 CURVE SMOOTH",
"517 -6 OFFCURVE",
"448 14 OFFCURVE",
"365 58 CURVE",
"281 14 OFFCURVE",
"202 -3 OFFCURVE",
"127 7 CURVE SMOOTH",
"120 8 OFFCURVE",
"116 1 OFFCURVE",
"113 -13 CURVE SMOOTH",
"111 -25 OFFCURVE",
"109 -48 OFFCURVE",
"110 -83 CURVE SMOOTH",
"111 -143 OFFCURVE",
"111 -178 OFFCURVE",
"111 -188 CURVE SMOOTH",
"111 -194 OFFCURVE",
"109 -197 OFFCURVE",
"104 -198 CURVE SMOOTH",
"99 -199 OFFCURVE",
"96 -195 OFFCURVE",
"95 -188 CURVE SMOOTH",
"82 -117 OFFCURVE",
"71 -36 OFFCURVE",
"63 56 CURVE SMOOTH",
"60 85 OFFCURVE",
"72 99 OFFCURVE",
"96 95 CURVE SMOOTH",
"165 84 OFFCURVE",
"232 91 OFFCURVE",
"299 116 CURVE",
"294 146 OFFCURVE",
"298 177 OFFCURVE",
"311 211 CURVE SMOOTH",
"332 266 OFFCURVE",
"369 314 OFFCURVE",
"424 355 CURVE SMOOTH",
"445 371 OFFCURVE",
"462 379 OFFCURVE",
"476 379 CURVE SMOOTH"
);
}
);
width = 571;
}
);
unicode = 08AC;
},
{
glyphname = "fathaCurly-ar";
layers = (
{
anchors = (
{
name = TashkilTashkilAbove;
position = "{145, 955}";
},
{
name = _MarkAbove;
position = "{270, 800}";
},
{
name = _TashkilAbove;
position = "{270, 800}";
},
{
name = _TashkilAboveDot;
position = "{270, 800}";
},
{
name = _TashkilTashkilAbove;
position = "{270, 800}";
}
);
layerId = "7FE84AD5-D318-40C5-A81A-3CDC73FF77D2";
paths = (
{
closed = 1;
nodes = (
"352 1016 OFFCURVE",
"363 992 OFFCURVE",
"357 969 CURVE SMOOTH",
"354 955 OFFCURVE",
"345 944 OFFCURVE",
"331 935 CURVE SMOOTH",
"317 926 OFFCURVE",
"293 920 OFFCURVE",
"260 914 CURVE SMOOTH",
"227 908 OFFCURVE",
"206 899 OFFCURVE",
"196 887 CURVE",
"182 867 OFFCURVE",
"184 846 OFFCURVE",
"201 822 CURVE SMOOTH",
"206 815 OFFCURVE",
"208 812 OFFCURVE",
"206 812 CURVE SMOOTH",
"198 812 OFFCURVE",
"187 821 OFFCURVE",
"175 838 CURVE SMOOTH",
"150 873 OFFCURVE",
"147 899 OFFCURVE",
"165 918 CURVE",
"175 930 OFFCURVE",
"197 939 OFFCURVE",
"230 945 CURVE SMOOTH",
"263 951 OFFCURVE",
"286 958 OFFCURVE",
"300 966 CURVE SMOOTH",
"322 980 OFFCURVE",
"331 999 OFFCURVE",
"325 1021 CURVE SMOOTH",
"323 1028 OFFCURVE",
"319 1034 OFFCURVE",
"312 1041 CURVE SMOOTH",
"305 1048 OFFCURVE",
"302 1052 OFFCURVE",
"303 1056 CURVE SMOOTH",
"304 1060 OFFCURVE",
"312 1054 OFFCURVE",
"326 1041 CURVE SMOOTH"
);
}
);
width = 0;
}
);
unicode = 08E4;
},
{
glyphname = "dammaCurly-ar";
layers = (
{
anchors = (
{
name = TashkilTashkilAbove;
position = "{195, 1034}";
},
{
name = _MarkAbove;
position = "{278, 845}";
},
{
name = _TashkilAbove;
position = "{278, 845}";
},
{
name = _TashkilAboveDot;
position = "{278, 845}";
},
{
name = _TashkilTashkilAbove;
position = "{278, 845}";
}
);
layerId = "7FE84AD5-D318-40C5-A81A-3CDC73FF77D2";
paths = (
{
closed = 1;
nodes = (
"270 963 OFFCURVE",
"256 972 OFFCURVE",
"247 981 CURVE SMOOTH",
"231 997 OFFCURVE",
"227 1013 OFFCURVE",
"234 1030 CURVE SMOOTH",
"254 1076 OFFCURVE",
"280 1101 OFFCURVE",
"311 1106 CURVE SMOOTH",
"322 1108 OFFCURVE",
"331 1102 OFFCURVE",
"339 1090 CURVE SMOOTH",
"356 1064 OFFCURVE",
"356 1030 OFFCURVE",
"339 986 CURVE",
"350 980 OFFCURVE",
"357 975 OFFCURVE",
"362 973 CURVE SMOOTH",
"371 969 OFFCURVE",
"373 962 OFFCURVE",
"368 953 CURVE SMOOTH",
"357 932 LINE SMOOTH",
"353 925 OFFCURVE",
"348 923 OFFCURVE",
"342 925 CURVE SMOOTH",
"336 927 OFFCURVE",
"327 931 OFFCURVE",
"315 938 CURVE",
"301 919 OFFCURVE",
"284 901 OFFCURVE",
"263 882 CURVE SMOOTH",
"230 852 OFFCURVE",
"203 843 OFFCURVE",
"185 855 CURVE SMOOTH",
"173 863 OFFCURVE",
"168 874 OFFCURVE",
"169 890 CURVE SMOOTH",
"170 904 OFFCURVE",
"174 919 OFFCURVE",
"180 935 CURVE SMOOTH",
"191 961 OFFCURVE",
"198 963 OFFCURVE",
"202 939 CURVE SMOOTH",
"206 920 OFFCURVE",
"217 910 OFFCURVE",
"234 911 CURVE SMOOTH",
"243 911 OFFCURVE",
"253 916 OFFCURVE",
"263 924 CURVE SMOOTH",
"271 931 OFFCURVE",
"280 941 OFFCURVE",
"289 953 CURVE"
);
},
{
closed = 1;
nodes = (
"285 1056 OFFCURVE",
"273 1054 OFFCURVE",
"264 1039 CURVE SMOOTH",
"261 1035 OFFCURVE",
"263 1030 OFFCURVE",
"269 1024 CURVE SMOOTH",
"275 1018 OFFCURVE",
"290 1009 OFFCURVE",
"311 999 CURVE",
"314 1019 OFFCURVE",
"310 1034 OFFCURVE",
"300 1042 CURVE SMOOTH"
);
}
);
width = 0;
}
);
unicode = 08E5;
},
{
glyphname = "toneonedotabove-ar";
layers = (
{
anchors = (
{
name = TashkilTashkilAbove;
position = "{123, 999}";
},
{
name = _MarkAbove;
position = "{161, 845}";
},
{
name = _TashkilAbove;
position = "{161, 845}";
},
{
name = _TashkilAboveDot;
position = "{161, 845}";
},
{
name = _TashkilTashkilAbove;
position = "{161, 845}";
}
);
layerId = "7FE84AD5-D318-40C5-A81A-3CDC73FF77D2";
paths = (
{
closed = 1;
nodes = (
"136 936 OFFCURVE",
"137 937 OFFCURVE",
"138 937 CURVE SMOOTH",
"150 937 OFFCURVE",
"167 928 OFFCURVE",
"187 909 CURVE SMOOTH",
"189 907 OFFCURVE",
"189 905 OFFCURVE",
"188 903 CURVE SMOOTH",
"157 854 LINE SMOOTH",
"156 852 OFFCURVE",
"154 853 OFFCURVE",
"151 855 CURVE SMOOTH",
"148 857 OFFCURVE",
"139 864 OFFCURVE",
"125 872 CURVE SMOOTH",
"111 880 OFFCURVE",
"103 884 OFFCURVE",
"103 885 CURVE SMOOTH",
"103 886 OFFCURVE",
"103 887 OFFCURVE",
"104 887 CURVE SMOOTH",
"136 935 LINE SMOOTH"
);
}
);
width = 0;
}
);
unicode = 08EA;
},
{
glyphname = "toneloopabove-ar";
layers = (
{
anchors = (
{
name = TashkilTashkilAbove;
position = "{156, 1020}";
},
{
name = _MarkAbove;
position = "{156, 845}";
},
{
name = _TashkilAbove;
position = "{156, 845}";
},
{
name = _TashkilAboveDot;
position = "{156, 845}";
},
{
name = _TashkilTashkilAbove;
position = "{156, 845}";
}
);
layerId = "7FE84AD5-D318-40C5-A81A-3CDC73FF77D2";
paths = (
{
closed = 1;
nodes = (
"275 967 OFFCURVE",
"277 966 OFFCURVE",
"277 964 CURVE SMOOTH",
"277 962 OFFCURVE",
"276 959 OFFCURVE",
"274 955 CURVE SMOOTH",
"263 937 OFFCURVE",
"251 920 OFFCURVE",
"237 906 CURVE",
"244 898 OFFCURVE",
"250 889 OFFCURVE",
"257 879 CURVE SMOOTH",
"258 877 OFFCURVE",
"258 875 OFFCURVE",
"256 871 CURVE SMOOTH",
"254 867 OFFCURVE",
"252 864 OFFCURVE",
"249 861 CURVE SMOOTH",
"246 858 OFFCURVE",
"242 855 OFFCURVE",
"239 854 CURVE SMOOTH",
"236 853 OFFCURVE",
"233 853 OFFCURVE",
"232 855 CURVE SMOOTH",
"225 865 OFFCURVE",
"218 875 OFFCURVE",
"211 884 CURVE",
"187 866 OFFCURVE",
"161 855 OFFCURVE",
"133 850 CURVE SMOOTH",
"117 847 OFFCURVE",
"103 849 OFFCURVE",
"91 855 CURVE",
"74 863 OFFCURVE",
"66 876 OFFCURVE",
"66 895 CURVE SMOOTH",
"66 901 OFFCURVE",
"67 905 OFFCURVE",
"68 910 CURVE SMOOTH",
"71 921 OFFCURVE",
"76 930 OFFCURVE",
"84 939 CURVE SMOOTH",
"90 945 OFFCURVE",
"96 949 OFFCURVE",
"103 953 CURVE SMOOTH",
"123 964 OFFCURVE",
"147 964 OFFCURVE",
"174 953 CURVE SMOOTH",
"193 945 OFFCURVE",
"211 933 OFFCURVE",
"227 917 CURVE",
"236 927 OFFCURVE",
"245 938 OFFCURVE",
"253 952 CURVE SMOOTH",
"255 956 OFFCURVE",
"258 959 OFFCURVE",
"262 962 CURVE SMOOTH",
"266 965 OFFCURVE",
"269 967 OFFCURVE",
"272 967 CURVE SMOOTH"
);
},
{
closed = 1;
nodes = (
"185 910 OFFCURVE",
"169 920 OFFCURVE",
"152 927 CURVE SMOOTH",
"141 932 OFFCURVE",
"129 935 OFFCURVE",
"119 935 CURVE SMOOTH",
"109 935 OFFCURVE",
"101 934 OFFCURVE",
"96 930 CURVE",
"94 926 OFFCURVE",
"92 921 OFFCURVE",
"92 913 CURVE SMOOTH",
"92 898 OFFCURVE",
"99 887 OFFCURVE",
"114 880 CURVE",
"124 875 OFFCURVE",
"135 874 OFFCURVE",
"148 876 CURVE SMOOTH",
"167 879 OFFCURVE",
"184 885 OFFCURVE",
"200 895 CURVE"
);
}
);
width = 0;
}
);
unicode = 08EC;
},
{
glyphname = "openfathatan-ar";
layers = (
{
anchors = (
{
name = TashkilTashkilAbove;
position = "{140, 1074}";
},
{
name = _MarkAbove;
position = "{244, 801}";
},
{
name = _TashkilAbove;
position = "{244, 801}";
},
{
name = _TashkilAboveDot;
position = "{244, 801}";
}
);
layerId = "7FE84AD5-D318-40C5-A81A-3CDC73FF77D2";
paths = (
{
closed = 1;
nodes = (
"357 1027 OFFCURVE",
"366 1024 OFFCURVE",
"359 1004 CURVE SMOOTH",
"349 973 LINE SMOOTH",
"346 963 OFFCURVE",
"340 955 OFFCURVE",
"332 950 CURVE SMOOTH",
"157 843 LINE SMOOTH",
"143 835 OFFCURVE",
"138 837 OFFCURVE",
"140 852 CURVE SMOOTH",
"143 871 LINE SMOOTH",
"145 880 OFFCURVE",
"150 888 OFFCURVE",
"159 895 CURVE SMOOTH",
"336 1012 LINE SMOOTH"
);
},
{
closed = 1;
nodes = (
"435 1173 OFFCURVE",
"442 1170 OFFCURVE",
"437 1152 CURVE SMOOTH",
"430 1127 LINE SMOOTH",
"427 1116 OFFCURVE",
"420 1108 OFFCURVE",
"409 1101 CURVE SMOOTH",
"232 998 LINE SMOOTH",
"209 985 OFFCURVE",
"202 988 OFFCURVE",
"211 1008 CURVE SMOOTH",
"220 1027 LINE SMOOTH",
"225 1037 OFFCURVE",
"229 1043 OFFCURVE",
"235 1047 CURVE SMOOTH",
"416 1161 LINE SMOOTH"
);
}
);
width = 0;
}
);
unicode = 08F0;
},
{
glyphname = "fathaRing-ar";
layers = (
{
anchors = (
{
name = TashkilTashkilAbove;
position = "{145, 955}";
},
{
name = _MarkAbove;
position = "{271, 801}";
},
{
name = _TashkilAbove;
position = "{271, 801}";
},
{
name = _TashkilAboveDot;
position = "{271, 801}";
},
{
name = _TashkilTashkilAbove;
position = "{271, 801}";
}
);
layerId = "7FE84AD5-D318-40C5-A81A-3CDC73FF77D2";
paths = (
{
closed = 1;
nodes = (
"212 1043 OFFCURVE",
"246 1051 OFFCURVE",
"288 1019 CURVE SMOOTH",
"314 999 OFFCURVE",
"329 969 OFFCURVE",
"332 929 CURVE SMOOTH",
"336 884 OFFCURVE",
"324 851 OFFCURVE",
"299 834 CURVE SMOOTH",
"281 822 OFFCURVE",
"260 817 OFFCURVE",
"234 819 CURVE SMOOTH",
"176 823 OFFCURVE",
"154 866 OFFCURVE",
"169 949 CURVE SMOOTH",
"172 966 OFFCURVE",
"178 980 OFFCURVE",
"185 994 CURVE SMOOTH"
);
},
{
closed = 1;
nodes = (
"320 900 OFFCURVE",
"319 923 OFFCURVE",
"291 957 CURVE SMOOTH",
"279 972 OFFCURVE",
"261 979 OFFCURVE",
"238 979 CURVE SMOOTH",
"215 979 OFFCURVE",
"200 968 OFFCURVE",
"193 946 CURVE SMOOTH",
"188 929 OFFCURVE",
"188 916 OFFCURVE",
"191 905 CURVE SMOOTH",
"194 896 OFFCURVE",
"202 889 OFFCURVE",
"215 885 CURVE SMOOTH",
"238 877 OFFCURVE",
"264 878 OFFCURVE",
"292 889 CURVE SMOOTH"
);
},
{
closed = 1;
nodes = (
"390 1036 OFFCURVE",
"396 1033 OFFCURVE",
"391 1016 CURVE SMOOTH",
"381 983 LINE SMOOTH",
"379 975 OFFCURVE",
"372 967 OFFCURVE",
"360 960 CURVE",
"126 828 LINE SMOOTH",
"114 821 OFFCURVE",
"108 824 OFFCURVE",
"108 837 CURVE",
"109 854 LINE SMOOTH",
"109 860 OFFCURVE",
"115 868 OFFCURVE",
"126 877 CURVE",
"373 1026 LINE"
);
}
);
userData = {
org.sfdlib.decomposeAndRemoveOverlap = 1;
};
width = 0;
}
);
unicode = 08F4;
},
{
glyphname = "fathaDotabove-ar";
layers = (
{
anchors = (
{
name = _MarkAbove;
position = "{271, 845}";
},
{
name = _TashkilAbove;
position = "{271, 845}";
},
{
name = _TashkilAboveDot;
position = "{271, 845}";
},
{
name = _TashkilTashkilAbove;
position = "{271, 845}";
}
);
components = (
{
name = "fatha-ar";
}
);
layerId = "7FE84AD5-D318-40C5-A81A-3CDC73FF77D2";
paths = (
{
closed = 1;
nodes = (
"202 1086 OFFCURVE",
"203 1086 OFFCURVE",
"204 1086 CURVE SMOOTH",
"213 1086 OFFCURVE",
"225 1079 OFFCURVE",
"241 1065 CURVE SMOOTH",
"242 1064 OFFCURVE",
"243 1063 OFFCURVE",
"242 1061 CURVE SMOOTH",
"218 1023 LINE SMOOTH",
"217 1021 OFFCURVE",
"215 1021 OFFCURVE",
"213 1023 CURVE SMOOTH",
"211 1025 OFFCURVE",
"204 1029 OFFCURVE",
"193 1036 CURVE SMOOTH",
"182 1043 OFFCURVE",
"177 1046 OFFCURVE",
"177 1047 CURVE SMOOTH",
"177 1048 OFFCURVE",
"177 1048 OFFCURVE",
"177 1048 CURVE SMOOTH",
"202 1085 LINE SMOOTH"
);
}
);
width = 0;
}
);
unicode = 08F5;
},
{
glyphname = "kasraDotbelow-ar";
layers = (
{
anchors = (
{
name = TashkilTashkilBelow;
position = "{169, -519}";
},
{
name = _MarkBelow;
position = "{38, -220}";
},
{
name = _TashkilBelow;
position = "{121, -220}";
},
{
name = _TashkilBelowDot;
position = "{121, -220}";
},
{
name = _TashkilTashkilBelow;
position = "{121, -220}";
}
);
components = (
{
name = "fatha-ar";
transform = "{1, 0, 0, 1, -142, -1274}";
}
);
layerId = "7FE84AD5-D318-40C5-A81A-3CDC73FF77D2";
paths = (
{
closed = 1;
nodes = (
"151 -425 OFFCURVE",
"151 -425 OFFCURVE",
"152 -425 CURVE SMOOTH",
"153 -425 OFFCURVE",
"157 -426 OFFCURVE",
"165 -429 CURVE SMOOTH",
"173 -432 OFFCURVE",
"179 -435 OFFCURVE",
"184 -440 CURVE SMOOTH",
"189 -446 OFFCURVE",
"191 -450 OFFCURVE",
"190 -451 CURVE SMOOTH",
"167 -488 LINE SMOOTH",
"167 -489 OFFCURVE",
"166 -489 OFFCURVE",
"165 -489 CURVE SMOOTH",
"164 -489 OFFCURVE",
"161 -486 OFFCURVE",
"154 -481 CURVE SMOOTH",
"147 -476 OFFCURVE",
"142 -473 OFFCURVE",
"135 -470 CURVE SMOOTH",
"128 -467 OFFCURVE",
"125 -465 OFFCURVE",
"125 -464 CURVE SMOOTH",
"125 -463 OFFCURVE",
"125 -463 OFFCURVE",
"125 -463 CURVE SMOOTH",
"150 -426 LINE SMOOTH"
);
}
);
width = 0;
}
);
unicode = 08F6;
},
{
glyphname = "leftarrowheadabove-ar";
layers = (
{
anchors = (
{
name = TashkilTashkilAbove;
position = "{156, 1060}";
},
{
name = _MarkAbove;
position = "{156, 845}";
},
{
name = _TashkilAbove;
position = "{156, 845}";
},
{
name = _TashkilAboveDot;
position = "{156, 845}";
},
{
name = _TashkilTashkilAbove;
position = "{156, 845}";
}
);
layerId = "7FE84AD5-D318-40C5-A81A-3CDC73FF77D2";
paths = (
{
closed = 1;
nodes = (
"216 1006 LINE",
"130 965 LINE",
"256 891 LINE",
"263 878 LINE",
"212 849 LINE",
"67 935 LINE",
"59 947 LINE",
"110 977 LINE",
"259 1048 LINE",
"266 1035 LINE"
);
}
);
width = 0;
}
);
unicode = 08F7;
},
{
glyphname = "rightarrowheadabove-ar";
layers = (
{
anchors = (
{
name = TashkilTashkilAbove;
position = "{156, 1060}";
},
{
name = _TashkilAbove;
position = "{156, 845}";
},
{
name = _TashkilAboveDot;
position = "{156, 845}";
},
{
name = _TashkilTashkilAbove;
position = "{156, 845}";
}
);
layerId = "7FE84AD5-D318-40C5-A81A-3CDC73FF77D2";
paths = (
{
closed = 1;
nodes = (
"95 1048 LINE",
"244 977 LINE",
"252 964 LINE",
"106 878 LINE",
"55 849 LINE",
"48 862 LINE",
"185 942 LINE",
"52 1006 LINE",
"45 1019 LINE"
);
}
);
width = 0;
}
);
unicode = 08F8;
},
{
glyphname = "doublerightarrowheadDotabove-ar";
layers = (
{
anchors = (
{
name = TashkilTashkilAbove;
position = "{106, 1060}";
},
{
name = _MarkAbove;
position = "{107, 845}";
},
{
name = _TashkilAbove;
position = "{107, 845}";
},
{
name = _TashkilAboveDot;
position = "{107, 845}";
},
{
name = _TashkilTashkilAbove;
position = "{107, 845}";
}
);
components = (
{
name = "doublerightarrowheadabove-ar";
}
);
layerId = "7FE84AD5-D318-40C5-A81A-3CDC73FF77D2";
paths = (
{
closed = 1;
nodes = (
"-90 979 OFFCURVE",
"-90 979 OFFCURVE",
"-89 979 CURVE SMOOTH",
"-78 979 OFFCURVE",
"-66 972 OFFCURVE",
"-52 958 CURVE SMOOTH",
"-50 956 OFFCURVE",
"-50 954 OFFCURVE",
"-51 953 CURVE SMOOTH",
"-75 916 LINE SMOOTH",
"-76 914 OFFCURVE",
"-78 914 OFFCURVE",
"-80 916 CURVE SMOOTH",
"-82 918 OFFCURVE",
"-89 922 OFFCURVE",
"-100 929 CURVE SMOOTH",
"-111 936 OFFCURVE",
"-116 938 OFFCURVE",
"-116 939 CURVE SMOOTH",
"-116 941 LINE SMOOTH",
"-91 978 LINE SMOOTH"
);
}
);
width = 0;
}
);
unicode = 08FC;
},
{
glyphname = "rightarrowheadDotabove-ar";
layers = (
{
anchors = (
{
name = TashkilTashkilAbove;
position = "{16, 1060}";
},
{
name = _MarkAbove;
position = "{15, 845}";
},
{
name = _TashkilAbove;
position = "{15, 845}";
},
{
name = _TashkilAboveDot;
position = "{15, 845}";
},
{
name = _TashkilTashkilAbove;
position = "{15, 845}";
}
);
components = (
{
name = "rightarrowheadabove-ar";
}
);
layerId = "7FE84AD5-D318-40C5-A81A-3CDC73FF77D2";
paths = (
{
closed = 1;
nodes = (
"-90 979 OFFCURVE",
"-90 979 OFFCURVE",
"-89 979 CURVE SMOOTH",
"-78 979 OFFCURVE",
"-66 972 OFFCURVE",
"-52 958 CURVE SMOOTH",
"-50 956 OFFCURVE",
"-50 954 OFFCURVE",
"-51 953 CURVE SMOOTH",
"-75 916 LINE SMOOTH",
"-76 914 OFFCURVE",
"-78 914 OFFCURVE",
"-80 916 CURVE SMOOTH",
"-82 918 OFFCURVE",
"-89 922 OFFCURVE",
"-100 929 CURVE SMOOTH",
"-111 936 OFFCURVE",
"-116 938 OFFCURVE",
"-116 939 CURVE SMOOTH",
"-116 941 LINE SMOOTH",
"-91 978 LINE SMOOTH"
);
}
);
width = 0;
}
);
unicode = 08FD;
},
{
glyphname = "dammaDot-ar";
layers = (
{
anchors = (
{
name = TashkilTashkilAbove;
position = "{195, 1074}";
},
{
name = _MarkAbove;
position = "{278, 845}";
},
{
name = _TashkilAbove;
position = "{278, 845}";
},
{
name = _TashkilAboveDot;
position = "{278, 845}";
},
{
name = _TashkilTashkilAbove;
position = "{278, 845}";
}
);
components = (
{
name = "damma-ar";
}
);
layerId = "7FE84AD5-D318-40C5-A81A-3CDC73FF77D2";
paths = (
{
closed = 1;
nodes = (
"110 1076 OFFCURVE",
"110 1077 OFFCURVE",
"111 1077 CURVE SMOOTH",
"122 1077 OFFCURVE",
"134 1069 OFFCURVE",
"148 1055 CURVE SMOOTH",
"150 1053 OFFCURVE",
"150 1052 OFFCURVE",
"149 1051 CURVE SMOOTH",
"125 1013 LINE SMOOTH",
"124 1011 OFFCURVE",
"123 1012 OFFCURVE",
"121 1014 CURVE SMOOTH",
"119 1016 OFFCURVE",
"112 1019 OFFCURVE",
"101 1026 CURVE SMOOTH",
"90 1033 OFFCURVE",
"84 1036 OFFCURVE",
"84 1037 CURVE SMOOTH",
"84 1039 LINE SMOOTH",
"109 1075 LINE SMOOTH"
);
}
);
width = 0;
}
);
unicode = 08FE;
},
{
glyphname = zerowidthnonjoiner;
layers = (
{
layerId = "7FE84AD5-D318-40C5-A81A-3CDC73FF77D2";
paths = (
{
closed = 1;
nodes = (
"15 0 LINE",
"-15 0 LINE",
"-15 542 LINE",
"15 542 LINE"
);
}
);
width = 0;
}
);
unicode = 200C;
},
{
glyphname = zerowidthjoiner;
layers = (
{
layerId = "7FE84AD5-D318-40C5-A81A-3CDC73FF77D2";
paths = (
{
closed = 1;
nodes = (
"15 0 LINE",
"-15 0 LINE",
"-15 474 LINE",
"15 474 LINE"
);
},
{
closed = 1;
nodes = (
"-47 474 LINE",
"-68 495 LINE",
"-21 542 LINE",
"-68 589 LINE",
"-47 610 LINE",
"0 562 LINE",
"47 610 LINE",
"68 589 LINE",
"21 542 LINE",
"68 495 LINE",
"47 474 LINE",
"0 521 LINE"
);
}
);
width = 0;
}
);
unicode = 200D;
},
{
glyphname = lefttorightmark;
layers = (
{
layerId = "7FE84AD5-D318-40C5-A81A-3CDC73FF77D2";
paths = (
{
closed = 1;
nodes = (
"67 474 LINE",
"47 495 LINE",
"80 527 LINE",
"-15 527 LINE",
"-15 557 LINE",
"79 557 LINE",
"47 589 LINE",
"68 609 LINE",
"135 542 LINE"
);
},
{
closed = 1;
nodes = (
"15 0 LINE",
"-15 0 LINE",
"-15 474 LINE",
"15 474 LINE"
);
}
);
width = 0;
}
);
unicode = 200E;
},
{
glyphname = righttoleftmark;
layers = (
{
layerId = "7FE84AD5-D318-40C5-A81A-3CDC73FF77D2";
paths = (
{
closed = 1;
nodes = (
"-68 609 LINE",
"-47 589 LINE",
"-79 557 LINE",
"15 557 LINE",
"15 527 LINE",
"-80 527 LINE",
"-47 495 LINE",
"-67 474 LINE",
"-135 542 LINE"
);
},
{
closed = 1;
nodes = (
"15 474 LINE",
"15 0 LINE",
"-15 0 LINE",
"-15 474 LINE"
);
}
);
width = 0;
}
);
unicode = 200F;
},
{
glyphname = fraction;
layers = (
{
layerId = "7FE84AD5-D318-40C5-A81A-3CDC73FF77D2";
paths = (
{
closed = 1;
nodes = (
"-54 2 LINE",
"-57 -2 OFFCURVE",
"-60 -5 OFFCURVE",
"-66 -9 CURVE SMOOTH",
"-72 -13 OFFCURVE",
"-78 -14 OFFCURVE",
"-85 -12 CURVE SMOOTH",
"-88 -11 OFFCURVE",
"-91 -10 OFFCURVE",
"-93 -9 CURVE SMOOTH",
"-95 -8 OFFCURVE",
"-96 -7 OFFCURVE",
"-96 -6 CURVE SMOOTH",
"-97 -4 LINE",
"245 622 LINE SMOOTH",
"245 623 OFFCURVE",
"247 624 OFFCURVE",
"250 625 CURVE SMOOTH",
"253 626 OFFCURVE",
"256 628 OFFCURVE",
"260 629 CURVE SMOOTH",
"264 630 OFFCURVE",
"269 630 OFFCURVE",
"275 629 CURVE SMOOTH",
"280 628 OFFCURVE",
"283 625 OFFCURVE",
"283 619 CURVE"
);
}
);
width = 123;
}
);
unicode = "2044,2215";
},
{
glyphname = dottedCircle;
layers = (
{
anchors = (
{
name = MarkAbove;
position = "{340, 591}";
},
{
name = MarkBelow;
position = "{340, -249}";
}
);
layerId = "7FE84AD5-D318-40C5-A81A-3CDC73FF77D2";
paths = (
{
closed = 1;
nodes = (
"556 354 OFFCURVE",
"553 349 OFFCURVE",
"549 345 CURVE SMOOTH",
"545 341 OFFCURVE",
"540 339 OFFCURVE",
"534 339 CURVE SMOOTH",
"528 339 OFFCURVE",
"523 341 OFFCURVE",
"519 345 CURVE SMOOTH",
"515 349 OFFCURVE",
"513 354 OFFCURVE",
"513 360 CURVE SMOOTH",
"513 366 OFFCURVE",
"515 371 OFFCURVE",
"519 375 CURVE SMOOTH",
"523 379 OFFCURVE",
"528 382 OFFCURVE",
"534 382 CURVE SMOOTH",
"540 382 OFFCURVE",
"545 379 OFFCURVE",
"549 375 CURVE SMOOTH",
"553 371 OFFCURVE",
"556 366 OFFCURVE",
"556 360 CURVE SMOOTH"
);
},
{
closed = 1;
nodes = (
"466 414 OFFCURVE",
"464 408 OFFCURVE",
"460 404 CURVE SMOOTH",
"456 400 OFFCURVE",
"450 398 OFFCURVE",
"445 398 CURVE SMOOTH",
"439 398 OFFCURVE",
"434 400 OFFCURVE",
"430 404 CURVE SMOOTH",
"426 408 OFFCURVE",
"423 414 OFFCURVE",
"423 420 CURVE SMOOTH",
"423 426 OFFCURVE",
"426 431 OFFCURVE",
"430 435 CURVE SMOOTH",
"434 439 OFFCURVE",
"439 441 OFFCURVE",
"445 441 CURVE SMOOTH",
"451 441 OFFCURVE",
"456 439 OFFCURVE",
"460 435 CURVE SMOOTH",
"464 431 OFFCURVE",
"466 426 OFFCURVE",
"466 420 CURVE SMOOTH"
);
},
{
closed = 1;
nodes = (
"615 265 OFFCURVE",
"612 260 OFFCURVE",
"608 256 CURVE SMOOTH",
"604 252 OFFCURVE",
"600 250 OFFCURVE",
"594 250 CURVE SMOOTH",
"588 250 OFFCURVE",
"582 252 OFFCURVE",
"578 256 CURVE SMOOTH",
"574 260 OFFCURVE",
"572 265 OFFCURVE",
"572 271 CURVE SMOOTH",
"572 276 OFFCURVE",
"574 282 OFFCURVE",
"578 286 CURVE SMOOTH",
"582 290 OFFCURVE",
"588 292 OFFCURVE",
"594 292 CURVE SMOOTH",
"600 292 OFFCURVE",
"604 291 OFFCURVE",
"608 287 CURVE SMOOTH",
"612 283 OFFCURVE",
"615 277 OFFCURVE",
"615 271 CURVE SMOOTH"
);
},
{
closed = 1;
nodes = (
"362 435 OFFCURVE",
"359 430 OFFCURVE",
"355 426 CURVE SMOOTH",
"351 422 OFFCURVE",
"346 420 OFFCURVE",
"340 420 CURVE SMOOTH",
"334 420 OFFCURVE",
"328 422 OFFCURVE",
"324 426 CURVE SMOOTH",
"320 430 OFFCURVE",
"318 435 OFFCURVE",
"318 441 CURVE SMOOTH",
"318 447 OFFCURVE",
"320 452 OFFCURVE",
"324 456 CURVE SMOOTH",
"328 460 OFFCURVE",
"334 462 OFFCURVE",
"340 462 CURVE SMOOTH",
"346 462 OFFCURVE",
"351 460 OFFCURVE",
"355 456 CURVE SMOOTH",
"359 452 OFFCURVE",
"362 447 OFFCURVE",
"362 441 CURVE SMOOTH"
);
},
{
closed = 1;
nodes = (
"636 160 OFFCURVE",
"634 154 OFFCURVE",
"630 150 CURVE SMOOTH",
"626 146 OFFCURVE",
"621 144 OFFCURVE",
"615 144 CURVE SMOOTH",
"609 144 OFFCURVE",
"604 146 OFFCURVE",
"600 150 CURVE SMOOTH",
"596 154 OFFCURVE",
"594 160 OFFCURVE",
"594 166 CURVE SMOOTH",
"594 172 OFFCURVE",
"596 178 OFFCURVE",
"600 182 CURVE SMOOTH",
"604 186 OFFCURVE",
"609 188 OFFCURVE",
"615 188 CURVE SMOOTH",
"621 188 OFFCURVE",
"626 186 OFFCURVE",
"630 182 CURVE SMOOTH",
"634 178 OFFCURVE",
"636 172 OFFCURVE",
"636 166 CURVE SMOOTH"
);
},
{
closed = 1;
nodes = (
"256 414 OFFCURVE",
"254 408 OFFCURVE",
"250 404 CURVE SMOOTH",
"246 400 OFFCURVE",
"240 398 OFFCURVE",
"234 398 CURVE SMOOTH",
"229 398 OFFCURVE",
"224 400 OFFCURVE",
"220 404 CURVE SMOOTH",
"216 408 OFFCURVE",
"213 414 OFFCURVE",
"213 420 CURVE SMOOTH",
"213 426 OFFCURVE",
"215 431 OFFCURVE",
"219 435 CURVE SMOOTH",
"223 439 OFFCURVE",
"228 441 OFFCURVE",
"234 441 CURVE SMOOTH",
"240 441 OFFCURVE",
"246 439 OFFCURVE",
"250 435 CURVE SMOOTH",
"254 431 OFFCURVE",
"256 426 OFFCURVE",
"256 420 CURVE SMOOTH"
);
},
{
closed = 1;
nodes = (
"615 55 OFFCURVE",
"612 49 OFFCURVE",
"608 45 CURVE SMOOTH",
"604 41 OFFCURVE",
"600 40 OFFCURVE",
"594 40 CURVE SMOOTH",
"588 40 OFFCURVE",
"582 42 OFFCURVE",
"578 46 CURVE SMOOTH",
"574 50 OFFCURVE",
"572 56 OFFCURVE",
"572 61 CURVE SMOOTH",
"572 67 OFFCURVE",
"574 72 OFFCURVE",
"578 76 CURVE SMOOTH",
"582 80 OFFCURVE",
"588 83 OFFCURVE",
"594 83 CURVE SMOOTH",
"600 83 OFFCURVE",
"604 80 OFFCURVE",
"608 76 CURVE SMOOTH",
"612 72 OFFCURVE",
"615 67 OFFCURVE",
"615 61 CURVE SMOOTH"
);
},
{
closed = 1;
nodes = (
"167 354 OFFCURVE",
"164 349 OFFCURVE",
"160 345 CURVE SMOOTH",
"156 341 OFFCURVE",
"152 339 OFFCURVE",
"146 339 CURVE SMOOTH",
"140 339 OFFCURVE",
"134 341 OFFCURVE",
"130 345 CURVE SMOOTH",
"126 349 OFFCURVE",
"124 354 OFFCURVE",
"124 360 CURVE SMOOTH",
"124 366 OFFCURVE",
"126 371 OFFCURVE",
"130 375 CURVE SMOOTH",
"134 379 OFFCURVE",
"140 382 OFFCURVE",
"146 382 CURVE SMOOTH",
"152 382 OFFCURVE",
"156 379 OFFCURVE",
"160 375 CURVE SMOOTH",
"164 371 OFFCURVE",
"167 366 OFFCURVE",
"167 360 CURVE SMOOTH"
);
},
{
closed = 1;
nodes = (
"556 -34 OFFCURVE",
"553 -39 OFFCURVE",
"549 -43 CURVE SMOOTH",
"545 -47 OFFCURVE",
"540 -50 OFFCURVE",
"534 -50 CURVE SMOOTH",
"528 -50 OFFCURVE",
"523 -47 OFFCURVE",
"519 -43 CURVE SMOOTH",
"515 -39 OFFCURVE",
"513 -34 OFFCURVE",
"513 -28 CURVE SMOOTH",
"513 -22 OFFCURVE",
"515 -17 OFFCURVE",
"519 -13 CURVE SMOOTH",
"523 -9 OFFCURVE",
"528 -7 OFFCURVE",
"534 -7 CURVE SMOOTH",
"540 -7 OFFCURVE",
"545 -9 OFFCURVE",
"549 -13 CURVE SMOOTH",
"553 -17 OFFCURVE",
"556 -22 OFFCURVE",
"556 -28 CURVE SMOOTH"
);
},
{
closed = 1;
nodes = (
"108 265 OFFCURVE",
"106 260 OFFCURVE",
"102 256 CURVE SMOOTH",
"98 252 OFFCURVE",
"92 250 OFFCURVE",
"86 250 CURVE SMOOTH",
"80 250 OFFCURVE",
"76 252 OFFCURVE",
"72 256 CURVE SMOOTH",
"68 260 OFFCURVE",
"65 265 OFFCURVE",
"65 271 CURVE SMOOTH",
"65 277 OFFCURVE",
"68 283 OFFCURVE",
"72 287 CURVE SMOOTH",
"76 291 OFFCURVE",
"80 292 OFFCURVE",
"86 292 CURVE SMOOTH",
"92 292 OFFCURVE",
"98 290 OFFCURVE",
"102 286 CURVE SMOOTH",
"106 282 OFFCURVE",
"108 276 OFFCURVE",
"108 271 CURVE SMOOTH"
);
},
{
closed = 1;
nodes = (
"466 -94 OFFCURVE",
"464 -98 OFFCURVE",
"460 -102 CURVE SMOOTH",
"456 -106 OFFCURVE",
"451 -108 OFFCURVE",
"445 -108 CURVE SMOOTH",
"439 -108 OFFCURVE",
"434 -106 OFFCURVE",
"430 -102 CURVE SMOOTH",
"426 -98 OFFCURVE",
"423 -94 OFFCURVE",
"423 -88 CURVE SMOOTH",
"423 -82 OFFCURVE",
"426 -76 OFFCURVE",
"430 -72 CURVE SMOOTH",
"434 -68 OFFCURVE",
"439 -66 OFFCURVE",
"445 -66 CURVE SMOOTH",
"450 -66 OFFCURVE",
"456 -68 OFFCURVE",
"460 -72 CURVE SMOOTH",
"464 -76 OFFCURVE",
"466 -82 OFFCURVE",
"466 -88 CURVE SMOOTH"
);
},
{
closed = 1;
nodes = (
"86 160 OFFCURVE",
"84 154 OFFCURVE",
"80 150 CURVE SMOOTH",
"76 146 OFFCURVE",
"71 144 OFFCURVE",
"65 144 CURVE SMOOTH",
"58 144 OFFCURVE",
"54 146 OFFCURVE",
"50 150 CURVE SMOOTH",
"46 154 OFFCURVE",
"44 160 OFFCURVE",
"44 166 CURVE SMOOTH",
"44 172 OFFCURVE",
"46 178 OFFCURVE",
"50 182 CURVE SMOOTH",
"54 186 OFFCURVE",
"58 188 OFFCURVE",
"65 188 CURVE SMOOTH",
"71 188 OFFCURVE",
"76 186 OFFCURVE",
"80 182 CURVE SMOOTH",
"84 178 OFFCURVE",
"86 172 OFFCURVE",
"86 166 CURVE SMOOTH"
);
},
{
closed = 1;
nodes = (
"362 -115 OFFCURVE",
"359 -120 OFFCURVE",
"355 -124 CURVE SMOOTH",
"351 -128 OFFCURVE",
"346 -130 OFFCURVE",
"340 -130 CURVE SMOOTH",
"334 -130 OFFCURVE",
"328 -128 OFFCURVE",
"324 -124 CURVE SMOOTH",
"320 -120 OFFCURVE",
"318 -115 OFFCURVE",
"318 -108 CURVE SMOOTH",
"318 -102 OFFCURVE",
"320 -98 OFFCURVE",
"324 -94 CURVE SMOOTH",
"328 -90 OFFCURVE",
"334 -88 OFFCURVE",
"340 -88 CURVE SMOOTH",
"346 -88 OFFCURVE",
"351 -90 OFFCURVE",
"355 -94 CURVE SMOOTH",
"359 -98 OFFCURVE",
"362 -102 OFFCURVE",
"362 -108 CURVE SMOOTH"
);
},
{
closed = 1;
nodes = (
"108 56 OFFCURVE",
"106 50 OFFCURVE",
"102 46 CURVE SMOOTH",
"98 42 OFFCURVE",
"92 40 OFFCURVE",
"86 40 CURVE SMOOTH",
"80 40 OFFCURVE",
"76 41 OFFCURVE",
"72 45 CURVE SMOOTH",
"68 49 OFFCURVE",
"65 55 OFFCURVE",
"65 61 CURVE SMOOTH",
"65 67 OFFCURVE",
"68 72 OFFCURVE",
"72 76 CURVE SMOOTH",
"76 80 OFFCURVE",
"80 83 OFFCURVE",
"86 83 CURVE SMOOTH",
"92 83 OFFCURVE",
"98 80 OFFCURVE",
"102 76 CURVE SMOOTH",
"106 72 OFFCURVE",
"108 67 OFFCURVE",
"108 61 CURVE SMOOTH"
);
},
{
closed = 1;
nodes = (
"256 -94 OFFCURVE",
"254 -98 OFFCURVE",
"250 -102 CURVE SMOOTH",
"246 -106 OFFCURVE",
"240 -108 OFFCURVE",
"234 -108 CURVE SMOOTH",
"228 -108 OFFCURVE",
"223 -106 OFFCURVE",
"219 -102 CURVE SMOOTH",
"215 -98 OFFCURVE",
"213 -94 OFFCURVE",
"213 -88 CURVE SMOOTH",
"213 -82 OFFCURVE",
"216 -76 OFFCURVE",
"220 -72 CURVE SMOOTH",
"224 -68 OFFCURVE",
"229 -66 OFFCURVE",
"234 -66 CURVE SMOOTH",
"240 -66 OFFCURVE",
"246 -68 OFFCURVE",
"250 -72 CURVE SMOOTH",
"254 -76 OFFCURVE",
"256 -82 OFFCURVE",
"256 -88 CURVE SMOOTH"
);
},
{
closed = 1;
nodes = (
"167 -34 OFFCURVE",
"164 -39 OFFCURVE",
"160 -43 CURVE SMOOTH",
"156 -47 OFFCURVE",
"152 -50 OFFCURVE",
"146 -50 CURVE SMOOTH",
"140 -50 OFFCURVE",
"134 -47 OFFCURVE",
"130 -43 CURVE SMOOTH",
"126 -39 OFFCURVE",
"124 -34 OFFCURVE",
"124 -28 CURVE SMOOTH",
"124 -22 OFFCURVE",
"126 -17 OFFCURVE",
"130 -13 CURVE SMOOTH",
"134 -9 OFFCURVE",
"140 -7 OFFCURVE",
"146 -7 CURVE SMOOTH",
"152 -7 OFFCURVE",
"156 -9 OFFCURVE",
"160 -13 CURVE SMOOTH",
"164 -17 OFFCURVE",
"167 -22 OFFCURVE",
"167 -28 CURVE SMOOTH"
);
}
);
width = 679;
}
);
unicode = 25CC;
},
{
glyphname = commareversed;
layers = (
{
layerId = "7FE84AD5-D318-40C5-A81A-3CDC73FF77D2";
paths = (
{
closed = 1;
nodes = (
"186 -216.952 OFFCURVE",
"165 -191.952 OFFCURVE",
"141 -154.952 CURVE SMOOTH",
"117 -117.952 OFFCURVE",
"104 -78.952 OFFCURVE",
"100 -38.952 CURVE SMOOTH",
"93 49.048 OFFCURVE",
"109 108.048 OFFCURVE",
"151 141.048 CURVE SMOOTH",
"166 152.048 OFFCURVE",
"186 158.048 OFFCURVE",
"211 159.048 CURVE SMOOTH",
"232 160.048 OFFCURVE",
"251 152.048 OFFCURVE",
"267 137.048 CURVE SMOOTH",
"283 122.048 OFFCURVE",
"291 104.048 OFFCURVE",
"291 83.048 CURVE SMOOTH",
"291 62.048 OFFCURVE",
"284 45.048 OFFCURVE",
"269 30.048 CURVE SMOOTH",
"254 15.048 OFFCURVE",
"236 7.048 OFFCURVE",
"215 7.048 CURVE SMOOTH",
"191 7.048 OFFCURVE",
"171 16.048 OFFCURVE",
"156 35.048 CURVE SMOOTH",
"151 40.048 OFFCURVE",
"148 39.048 OFFCURVE",
"145 31.048 CURVE SMOOTH",
"119 -40.952 OFFCURVE",
"147 -119.952 OFFCURVE",
"229 -204.952 CURVE SMOOTH",
"238 -213.952 OFFCURVE",
"240 -221.952 OFFCURVE",
"233 -229.952 CURVE SMOOTH",
"226 -237.952 OFFCURVE",
"217 -237.952 OFFCURVE",
"206 -230.952 CURVE SMOOTH"
);
}
);
width = 369;
}
);
unicode = 2E41;
},
{
glyphname = "uyghur-hyphen";
layers = (
{
layerId = "7FE84AD5-D318-40C5-A81A-3CDC73FF77D2";
paths = (
{
closed = 1;
nodes = (
"78 0 OFFCURVE",
"70 10 OFFCURVE",
"70 23 CURVE SMOOTH",
"70 67 LINE SMOOTH",
"70 80 OFFCURVE",
"78 90 OFFCURVE",
"95 90 CURVE SMOOTH",
"276 90 LINE SMOOTH",
"293 90 OFFCURVE",
"301 80 OFFCURVE",
"301 67 CURVE SMOOTH",
"301 23 LINE SMOOTH",
"301 10 OFFCURVE",
"293 0 OFFCURVE",
"276 0 CURVE SMOOTH",
"95 0 LINE SMOOTH"
);
}
);
width = 371;
}
);
unicode = F4FF;
},
{
glyphname = "parenleft-ar";
layers = (
{
layerId = "7FE84AD5-D318-40C5-A81A-3CDC73FF77D2";
paths = (
{
closed = 1;
nodes = (
"340 152 OFFCURVE",
"345 139 OFFCURVE",
"353 128 CURVE SMOOTH",
"366 110 OFFCURVE",
"384 101 OFFCURVE",
"406 101 CURVE SMOOTH",
"420 101 OFFCURVE",
"432 105 OFFCURVE",
"444 113 CURVE SMOOTH",
"462 126 OFFCURVE",
"471 144 OFFCURVE",
"471 166 CURVE SMOOTH",
"471 180 OFFCURVE",
"467 192 OFFCURVE",
"459 204 CURVE SMOOTH",
"446 222 OFFCURVE",
"428 231 OFFCURVE",
"406 231 CURVE SMOOTH",
"392 231 OFFCURVE",
"380 227 OFFCURVE",
"368 219 CURVE SMOOTH",
"350 206 OFFCURVE",
"340 188 OFFCURVE",
"340 166 CURVE SMOOTH"
);
},
{
closed = 1;
nodes = (
"497 361 OFFCURVE",
"511 358 OFFCURVE",
"523 353 CURVE SMOOTH",
"535 348 OFFCURVE",
"537 341 OFFCURVE",
"531 333 CURVE SMOOTH",
"461 237 LINE SMOOTH",
"461 237 OFFCURVE",
"460 237 OFFCURVE",
"460 236 CURVE",
"466 230 OFFCURVE",
"471 225 OFFCURVE",
"477 219 CURVE",
"572 289 LINE SMOOTH",
"580 295 OFFCURVE",
"586 294 OFFCURVE",
"590 284 CURVE SMOOTH",
"599 262 OFFCURVE",
"605 240 OFFCURVE",
"609 218 CURVE",
"630 208 OFFCURVE",
"648 193 OFFCURVE",
"663 173 CURVE",
"666 168 OFFCURVE",
"666 164 OFFCURVE",
"663 159 CURVE",
"648 139 OFFCURVE",
"630 124 OFFCURVE",
"609 114 CURVE",
"602 76 OFFCURVE",
"594 52 OFFCURVE",
"585 42 CURVE SMOOTH",
"582 39 OFFCURVE",
"578 39 OFFCURVE",
"572 43 CURVE SMOOTH",
"477 113 LINE",
"471 107 OFFCURVE",
"465 102 OFFCURVE",
"460 96 CURVE",
"460 96 OFFCURVE",
"461 96 OFFCURVE",
"461 95 CURVE SMOOTH",
"531 0 LINE SMOOTH",
"537 -8 OFFCURVE",
"535 -16 OFFCURVE",
"523 -21 CURVE SMOOTH",
"511 -26 OFFCURVE",
"497 -29 OFFCURVE",
"483 -33 CURVE",
"513 -153 OFFCURVE",
"562 -261 OFFCURVE",
"630 -356 CURVE",
"641 -374 OFFCURVE",
"641 -389 OFFCURVE",
"629 -400 CURVE SMOOTH",
"617 -411 OFFCURVE",
"603 -408 OFFCURVE",
"587 -392 CURVE",
"485 -287 OFFCURVE",
"416 -170 OFFCURVE",
"379 -41 CURVE",
"350 -38 OFFCURVE",
"321 -31 OFFCURVE",
"291 -19 CURVE",
"282 -15 OFFCURVE",
"279 -8 OFFCURVE",
"285 0 CURVE SMOOTH",
"354 94 LINE",
"342 108 OFFCURVE",
"336 114 OFFCURVE",
"335 113 CURVE SMOOTH",
"240 43 LINE SMOOTH",
"232 37 OFFCURVE",
"225 39 OFFCURVE",
"221 48 CURVE",
"213 70 OFFCURVE",
"207 92 OFFCURVE",
"203 114 CURVE",
"182 124 OFFCURVE",
"163 139 OFFCURVE",
"148 159 CURVE",
"145 164 OFFCURVE",
"145 168 OFFCURVE",
"148 173 CURVE",
"163 193 OFFCURVE",
"181 208 OFFCURVE",
"202 218 CURVE",
"206 240 OFFCURVE",
"212 263 OFFCURVE",
"221 284 CURVE SMOOTH",
"225 294 OFFCURVE",
"232 295 OFFCURVE",
"240 289 CURVE SMOOTH",
"335 219 LINE",
"335 219 LINE",
"342 225 OFFCURVE",
"349 231 OFFCURVE",
"355 238 CURVE",
"285 333 LINE SMOOTH",
"279 341 OFFCURVE",
"282 347 OFFCURVE",
"291 351 CURVE",
"321 363 OFFCURVE",
"350 370 OFFCURVE",
"380 373 CURVE",
"417 502 OFFCURVE",
"486 619 OFFCURVE",
"587 723 CURVE",
"604 739 OFFCURVE",
"618 741 OFFCURVE",
"630 730 CURVE SMOOTH",
"642 719 OFFCURVE",
"641 705 OFFCURVE",
"630 687 CURVE",
"561 586 OFFCURVE",
"512 479 OFFCURVE",
"483 365 CURVE"
);
},
{
closed = 1;
nodes = (
"481 469 OFFCURVE",
"534 587 OFFCURVE",
"610 700 CURVE SMOOTH",
"615 707 OFFCURVE",
"616 711 OFFCURVE",
"614 712 CURVE",
"611 711 OFFCURVE",
"608 709 OFFCURVE",
"605 705 CURVE SMOOTH",
"505 602 OFFCURVE",
"438 488 OFFCURVE",
"402 361 CURVE",
"399 350 LINE",
"371 349 OFFCURVE",
"343 343 OFFCURVE",
"314 334 CURVE",
"371 257 LINE",
"378 267 OFFCURVE",
"384 276 OFFCURVE",
"389 284 CURVE SMOOTH",
"394 292 OFFCURVE",
"400 296 OFFCURVE",
"406 296 CURVE SMOOTH",
"412 296 OFFCURVE",
"418 292 OFFCURVE",
"423 284 CURVE SMOOTH",
"428 276 OFFCURVE",
"435 267 OFFCURVE",
"442 257 CURVE",
"445 257 LINE",
"502 334 LINE",
"486 340 OFFCURVE",
"470 343 OFFCURVE",
"454 346 CURVE"
);
},
{
closed = 1;
nodes = (
"228 111 OFFCURVE",
"231 92 OFFCURVE",
"238 72 CURVE",
"315 129 LINE",
"315 130 LINE",
"306 137 OFFCURVE",
"297 144 OFFCURVE",
"289 149 CURVE SMOOTH",
"281 154 OFFCURVE",
"278 160 OFFCURVE",
"278 166 CURVE SMOOTH",
"278 172 OFFCURVE",
"282 178 OFFCURVE",
"290 183 CURVE SMOOTH",
"298 188 OFFCURVE",
"306 195 OFFCURVE",
"315 202 CURVE",
"315 203 LINE",
"238 260 LINE",
"231 241 OFFCURVE",
"228 222 OFFCURVE",
"225 202 CURVE",
"213 196 LINE SMOOTH",
"198 189 OFFCURVE",
"185 179 OFFCURVE",
"174 166 CURVE",
"185 153 OFFCURVE",
"198 143 OFFCURVE",
"213 136 CURVE SMOOTH",
"225 131 LINE"
);
},
{
closed = 1;
nodes = (
"505 194 OFFCURVE",
"515 188 OFFCURVE",
"523 183 CURVE SMOOTH",
"531 178 OFFCURVE",
"534 172 OFFCURVE",
"534 166 CURVE SMOOTH",
"534 160 OFFCURVE",
"530 154 OFFCURVE",
"522 149 CURVE SMOOTH",
"514 144 OFFCURVE",
"505 138 OFFCURVE",
"496 130 CURVE",
"496 129 LINE",
"573 72 LINE",
"580 92 OFFCURVE",
"584 111 OFFCURVE",
"587 131 CURVE",
"599 136 LINE",
"614 143 OFFCURVE",
"627 153 OFFCURVE",
"638 166 CURVE",
"627 179 OFFCURVE",
"614 189 OFFCURVE",
"599 196 CURVE SMOOTH",
"587 202 LINE",
"584 222 OFFCURVE",
"580 241 OFFCURVE",
"573 260 CURVE",
"496 203 LINE",
"496 202 LINE"
);
},
{
closed = 1;
nodes = (
"470 -11 OFFCURVE",
"486 -8 OFFCURVE",
"502 -2 CURVE",
"445 75 LINE",
"442 75 LINE",
"435 65 OFFCURVE",
"428 56 OFFCURVE",
"423 48 CURVE SMOOTH",
"418 40 OFFCURVE",
"413 36 OFFCURVE",
"407 36 CURVE SMOOTH",
"401 36 OFFCURVE",
"395 40 OFFCURVE",
"390 48 CURVE SMOOTH",
"385 56 OFFCURVE",
"378 65 OFFCURVE",
"371 74 CURVE",
"314 -2 LINE",
"342 -11 OFFCURVE",
"371 -17 OFFCURVE",
"399 -18 CURVE",
"401 -27 LINE",
"436 -155 OFFCURVE",
"504 -271 OFFCURVE",
"605 -375 CURVE SMOOTH",
"609 -379 OFFCURVE",
"612 -381 OFFCURVE",
"614 -382 CURVE",
"615 -380 OFFCURVE",
"614 -376 OFFCURVE",
"610 -370 CURVE",
"539 -269 OFFCURVE",
"487 -150 OFFCURVE",
"454 -14 CURVE"
);
}
);
width = 714;
}
);
unicode = FD3E;
},
{
glyphname = "parenright-ar";
layers = (
{
layerId = "7FE84AD5-D318-40C5-A81A-3CDC73FF77D2";
paths = (
{
closed = 1;
nodes = (
"375 188 OFFCURVE",
"365 206 OFFCURVE",
"347 219 CURVE SMOOTH",
"335 227 OFFCURVE",
"323 231 OFFCURVE",
"309 231 CURVE SMOOTH",
"287 231 OFFCURVE",
"269 222 OFFCURVE",
"255 204 CURVE SMOOTH",
"247 192 OFFCURVE",
"244 180 OFFCURVE",
"244 166 CURVE SMOOTH",
"244 144 OFFCURVE",
"253 126 OFFCURVE",
"271 113 CURVE SMOOTH",
"283 105 OFFCURVE",
"295 101 OFFCURVE",
"309 101 CURVE SMOOTH",
"331 101 OFFCURVE",
"349 110 OFFCURVE",
"362 128 CURVE SMOOTH",
"370 139 OFFCURVE",
"375 152 OFFCURVE",
"375 166 CURVE SMOOTH"
);
},
{
closed = 1;
nodes = (
"202 479 OFFCURVE",
"153 586 OFFCURVE",
"84 687 CURVE",
"73 705 OFFCURVE",
"73 719 OFFCURVE",
"85 730 CURVE SMOOTH",
"97 741 OFFCURVE",
"110 739 OFFCURVE",
"127 723 CURVE",
"228 619 OFFCURVE",
"297 502 OFFCURVE",
"334 373 CURVE",
"364 370 OFFCURVE",
"394 363 OFFCURVE",
"424 351 CURVE",
"433 347 OFFCURVE",
"435 341 OFFCURVE",
"429 333 CURVE SMOOTH",
"360 238 LINE",
"367 231 OFFCURVE",
"372 225 OFFCURVE",
"379 219 CURVE",
"379 219 LINE",
"475 289 LINE SMOOTH",
"483 295 OFFCURVE",
"490 294 OFFCURVE",
"494 284 CURVE SMOOTH",
"502 263 OFFCURVE",
"508 240 OFFCURVE",
"512 218 CURVE",
"533 208 OFFCURVE",
"551 193 OFFCURVE",
"566 173 CURVE",
"569 168 OFFCURVE",
"569 164 OFFCURVE",
"566 159 CURVE",
"551 139 OFFCURVE",
"533 124 OFFCURVE",
"512 114 CURVE",
"508 92 OFFCURVE",
"502 70 OFFCURVE",
"494 48 CURVE",
"490 39 OFFCURVE",
"483 37 OFFCURVE",
"475 43 CURVE SMOOTH",
"379 113 LINE SMOOTH",
"378 114 OFFCURVE",
"372 108 OFFCURVE",
"360 94 CURVE",
"429 0 LINE SMOOTH",
"435 -8 OFFCURVE",
"433 -15 OFFCURVE",
"424 -19 CURVE",
"394 -31 OFFCURVE",
"364 -38 OFFCURVE",
"335 -41 CURVE",
"298 -170 OFFCURVE",
"229 -287 OFFCURVE",
"127 -392 CURVE",
"111 -408 OFFCURVE",
"97 -411 OFFCURVE",
"85 -400 CURVE SMOOTH",
"73 -389 OFFCURVE",
"73 -374 OFFCURVE",
"84 -356 CURVE",
"152 -261 OFFCURVE",
"201 -153 OFFCURVE",
"231 -33 CURVE",
"217 -29 OFFCURVE",
"204 -26 OFFCURVE",
"192 -21 CURVE SMOOTH",
"180 -16 OFFCURVE",
"177 -8 OFFCURVE",
"183 0 CURVE SMOOTH",
"253 95 LINE SMOOTH",
"253 96 OFFCURVE",
"253 96 OFFCURVE",
"254 96 CURVE",
"249 102 OFFCURVE",
"244 107 OFFCURVE",
"238 113 CURVE",
"143 43 LINE SMOOTH",
"137 39 OFFCURVE",
"132 39 OFFCURVE",
"129 42 CURVE SMOOTH",
"119 52 OFFCURVE",
"112 76 OFFCURVE",
"105 114 CURVE",
"84 124 OFFCURVE",
"66 139 OFFCURVE",
"51 159 CURVE",
"48 164 OFFCURVE",
"48 168 OFFCURVE",
"51 173 CURVE",
"66 193 OFFCURVE",
"84 208 OFFCURVE",
"105 218 CURVE",
"109 240 OFFCURVE",
"116 262 OFFCURVE",
"125 284 CURVE SMOOTH",
"129 294 OFFCURVE",
"135 295 OFFCURVE",
"143 289 CURVE SMOOTH",
"238 219 LINE",
"244 225 OFFCURVE",
"249 230 OFFCURVE",
"254 236 CURVE",
"253 237 OFFCURVE",
"253 237 OFFCURVE",
"253 237 CURVE SMOOTH",
"183 333 LINE SMOOTH",
"177 341 OFFCURVE",
"180 348 OFFCURVE",
"192 353 CURVE SMOOTH",
"204 358 OFFCURVE",
"217 361 OFFCURVE",
"231 365 CURVE"
);
},
{
closed = 1;
nodes = (
"244 343 OFFCURVE",
"228 340 OFFCURVE",
"212 334 CURVE",
"269 257 LINE",
"272 257 LINE",
"280 267 OFFCURVE",
"287 276 OFFCURVE",
"292 284 CURVE SMOOTH",
"297 292 OFFCURVE",
"303 296 OFFCURVE",
"309 296 CURVE SMOOTH",
"315 296 OFFCURVE",
"320 292 OFFCURVE",
"325 284 CURVE SMOOTH",
"330 276 OFFCURVE",
"336 267 OFFCURVE",
"343 257 CURVE",
"400 334 LINE",
"371 343 OFFCURVE",
"343 349 OFFCURVE",
"316 350 CURVE",
"313 361 LINE",
"277 488 OFFCURVE",
"210 602 OFFCURVE",
"110 705 CURVE SMOOTH",
"107 709 OFFCURVE",
"104 711 OFFCURVE",
"101 712 CURVE",
"99 711 OFFCURVE",
"100 707 OFFCURVE",
"105 700 CURVE SMOOTH",
"181 587 OFFCURVE",
"233 469 OFFCURVE",
"260 346 CURVE"
);
},
{
closed = 1;
nodes = (
"501 136 LINE SMOOTH",
"516 143 OFFCURVE",
"530 153 OFFCURVE",
"541 166 CURVE",
"530 179 OFFCURVE",
"516 189 OFFCURVE",
"501 196 CURVE SMOOTH",
"490 202 LINE",
"487 222 OFFCURVE",
"483 241 OFFCURVE",
"476 260 CURVE",
"399 203 LINE",
"399 202 LINE",
"409 195 OFFCURVE",
"418 188 OFFCURVE",
"425 183 CURVE SMOOTH",
"432 178 OFFCURVE",
"437 172 OFFCURVE",
"437 166 CURVE SMOOTH",
"437 160 OFFCURVE",
"433 154 OFFCURVE",
"425 149 CURVE SMOOTH",
"417 144 OFFCURVE",
"408 137 OFFCURVE",
"399 130 CURVE",
"399 129 LINE",
"476 72 LINE",
"483 92 OFFCURVE",
"487 111 OFFCURVE",
"490 131 CURVE"
);
},
{
closed = 1;
nodes = (
"218 203 LINE",
"141 260 LINE",
"134 241 OFFCURVE",
"130 222 OFFCURVE",
"127 202 CURVE",
"116 196 LINE SMOOTH",
"100 189 OFFCURVE",
"87 179 OFFCURVE",
"77 166 CURVE",
"88 153 OFFCURVE",
"101 143 OFFCURVE",
"116 136 CURVE",
"127 131 LINE",
"130 111 OFFCURVE",
"134 92 OFFCURVE",
"141 72 CURVE",
"218 129 LINE",
"218 130 LINE",
"209 138 OFFCURVE",
"201 144 OFFCURVE",
"193 149 CURVE SMOOTH",
"185 154 OFFCURVE",
"181 160 OFFCURVE",
"180 166 CURVE SMOOTH",
"179 172 OFFCURVE",
"184 178 OFFCURVE",
"192 183 CURVE SMOOTH",
"200 188 OFFCURVE",
"209 194 OFFCURVE",
"218 202 CURVE"
);
},
{
closed = 1;
nodes = (
"227 -150 OFFCURVE",
"176 -269 OFFCURVE",
"105 -370 CURVE",
"101 -376 OFFCURVE",
"100 -380 OFFCURVE",
"101 -382 CURVE",
"104 -381 OFFCURVE",
"107 -379 OFFCURVE",
"110 -375 CURVE SMOOTH",
"211 -271 OFFCURVE",
"279 -155 OFFCURVE",
"314 -27 CURVE",
"316 -18 LINE",
"344 -17 OFFCURVE",
"372 -11 OFFCURVE",
"400 -2 CURVE",
"344 74 LINE",
"336 65 OFFCURVE",
"330 56 OFFCURVE",
"325 48 CURVE SMOOTH",
"320 40 OFFCURVE",
"314 36 OFFCURVE",
"308 36 CURVE SMOOTH",
"302 36 OFFCURVE",
"296 40 OFFCURVE",
"291 48 CURVE SMOOTH",
"286 56 OFFCURVE",
"280 65 OFFCURVE",
"273 75 CURVE",
"269 75 LINE",
"212 -2 LINE",
"228 -8 OFFCURVE",
"244 -11 OFFCURVE",
"260 -14 CURVE"
);
}
);
width = 714;
}
);
unicode = FD3F;
},
{
glyphname = uniFDFA;
layers = (
{
layerId = "7FE84AD5-D318-40C5-A81A-3CDC73FF77D2";
paths = (
{
closed = 1;
nodes = (
"462 373 LINE",
"464 388 OFFCURVE",
"467 395 OFFCURVE",
"469 397 CURVE SMOOTH",
"482 409 OFFCURVE",
"492 428 OFFCURVE",
"500 453 CURVE SMOOTH",
"508 478 OFFCURVE",
"509 508 OFFCURVE",
"505 541 CURVE SMOOTH",
"499 586 OFFCURVE",
"496 618 OFFCURVE",
"493 638 CURVE SMOOTH",
"478 746 LINE SMOOTH",
"477 752 OFFCURVE",
"482 775 OFFCURVE",
"492 817 CURVE SMOOTH",
"493 820 OFFCURVE",
"495 821 OFFCURVE",
"498 821 CURVE SMOOTH",
"501 821 OFFCURVE",
"503 819 OFFCURVE",
"503 817 CURVE SMOOTH",
"526 657 OFFCURVE",
"547 561 OFFCURVE",
"566 529 CURVE SMOOTH",
"585 497 OFFCURVE",
"612 481 OFFCURVE",
"647 483 CURVE SMOOTH",
"687 485 OFFCURVE",
"721 500 OFFCURVE",
"748 526 CURVE",
"751 531 OFFCURVE",
"754 533 OFFCURVE",
"759 533 CURVE SMOOTH",
"764 533 OFFCURVE",
"768 531 OFFCURVE",
"772 525 CURVE",
"784 507 OFFCURVE",
"804 493 OFFCURVE",
"832 484 CURVE",
"848 502 OFFCURVE",
"863 518 OFFCURVE",
"879 532 CURVE SMOOTH",
"926 572 OFFCURVE",
"964 592 OFFCURVE",
"992 592 CURVE SMOOTH",
"1002 592 OFFCURVE",
"1015 586 OFFCURVE",
"1031 575 CURVE SMOOTH",
"1047 564 OFFCURVE",
"1055 553 OFFCURVE",
"1055 542 CURVE SMOOTH",
"1055 531 OFFCURVE",
"1050 516 OFFCURVE",
"1039 496 CURVE SMOOTH",
"1028 476 OFFCURVE",
"1021 465 OFFCURVE",
"1017 461 CURVE",
"982 436 OFFCURVE",
"937 424 OFFCURVE",
"881 424 CURVE",
"859 424 OFFCURVE",
"838 427 OFFCURVE",
"819 432 CURVE",
"804 386 LINE SMOOTH",
"803 383 OFFCURVE",
"801 381 OFFCURVE",
"797 380 CURVE",
"790 380 OFFCURVE",
"786 384 OFFCURVE",
"785 391 CURVE",
"785 393 LINE",
"787 406 OFFCURVE",
"792 421 OFFCURVE",
"799 439 CURVE",
"780 447 OFFCURVE",
"767 456 OFFCURVE",
"759 465 CURVE SMOOTH",
"751 474 OFFCURVE",
"746 479 OFFCURVE",
"744 479 CURVE SMOOTH",
"742 479 OFFCURVE",
"738 476 OFFCURVE",
"733 471 CURVE SMOOTH",
"705 444 OFFCURVE",
"672 431 OFFCURVE",
"631 432 CURVE SMOOTH",
"590 433 OFFCURVE",
"558 459 OFFCURVE",
"532 509 CURVE",
"530 477 OFFCURVE",
"519 442 OFFCURVE",
"498 405 CURVE",
"534 399 OFFCURVE",
"556 392 OFFCURVE",
"567 384 CURVE SMOOTH",
"578 376 OFFCURVE",
"583 371 OFFCURVE",
"583 368 CURVE SMOOTH",
"586 335 OFFCURVE",
"576 310 OFFCURVE",
"554 292 CURVE",
"500 249 OFFCURVE",
"447 228 OFFCURVE",
"393 228 CURVE SMOOTH",
"339 228 OFFCURVE",
"300 241 OFFCURVE",
"276 268 CURVE SMOOTH",
"234 315 OFFCURVE",
"244 387 OFFCURVE",
"304 488 CURVE SMOOTH",
"305 490 OFFCURVE",
"307 491 OFFCURVE",
"310 492 CURVE",
"316 491 OFFCURVE",
"318 488 OFFCURVE",
"315 482 CURVE",
"295 448 OFFCURVE",
"284 424 OFFCURVE",
"281 411 CURVE SMOOTH",
"275 382 OFFCURVE",
"279 355 OFFCURVE",
"292 330 CURVE SMOOTH",
"310 296 OFFCURVE",
"349 280 OFFCURVE",
"407 284 CURVE SMOOTH",
"465 288 OFFCURVE",
"517 310 OFFCURVE",
"561 348 CURVE",
"548 355 OFFCURVE",
"515 364 OFFCURVE",
"463 373 CURVE"
);
},
{
closed = 1;
nodes = (
"997 525 OFFCURVE",
"979 533 OFFCURVE",
"960 533 CURVE SMOOTH",
"941 533 OFFCURVE",
"921 526 OFFCURVE",
"899 512 CURVE SMOOTH",
"877 498 OFFCURVE",
"862 487 OFFCURVE",
"855 479 CURVE",
"877 476 OFFCURVE",
"909 476 OFFCURVE",
"950 481 CURVE SMOOTH",
"991 486 OFFCURVE",
"1014 493 OFFCURVE",
"1019 504 CURVE SMOOTH",
"1019 505 OFFCURVE",
"1018 506 OFFCURVE",
"1017 507 CURVE SMOOTH"
);
},
{
closed = 1;
nodes = (
"411 433 OFFCURVE",
"409 432 OFFCURVE",
"407 432 CURVE SMOOTH",
"405 432 OFFCURVE",
"404 435 OFFCURVE",
"404 441 CURVE SMOOTH",
"404 492 OFFCURVE",
"403 528 OFFCURVE",
"400 548 CURVE SMOOTH",
"397 574 OFFCURVE",
"394 610 OFFCURVE",
"389 655 CURVE",
"376 765 LINE SMOOTH",
"375 771 OFFCURVE",
"377 777 OFFCURVE",
"379 784 CURVE SMOOTH",
"392 813 LINE SMOOTH",
"395 820 OFFCURVE",
"396 823 OFFCURVE",
"398 823 CURVE SMOOTH",
"400 823 OFFCURVE",
"401 820 OFFCURVE",
"402 814 CURVE SMOOTH",
"415 672 LINE",
"429 546 OFFCURVE",
"429 467 OFFCURVE",
"413 436 CURVE SMOOTH"
);
},
{
closed = 1;
nodes = (
"205 812 OFFCURVE",
"208 813 OFFCURVE",
"211 813 CURVE SMOOTH",
"214 813 OFFCURVE",
"216 811 OFFCURVE",
"216 806 CURVE SMOOTH",
"216 793 OFFCURVE",
"221 786 OFFCURVE",
"230 786 CURVE SMOOTH",
"239 786 OFFCURVE",
"244 791 OFFCURVE",
"245 802 CURVE SMOOTH",
"246 813 OFFCURVE",
"250 818 OFFCURVE",
"254 818 CURVE",
"257 817 OFFCURVE",
"259 812 OFFCURVE",
"259 802 CURVE SMOOTH",
"259 792 OFFCURVE",
"256 780 OFFCURVE",
"250 766 CURVE SMOOTH",
"244 752 OFFCURVE",
"237 745 OFFCURVE",
"227 745 CURVE SMOOTH",
"217 745 OFFCURVE",
"209 748 OFFCURVE",
"202 755 CURVE",
"194 741 OFFCURVE",
"184 734 OFFCURVE",
"172 734 CURVE SMOOTH",
"154 734 OFFCURVE",
"146 743 OFFCURVE",
"146 761 CURVE SMOOTH",
"146 775 OFFCURVE",
"147 787 OFFCURVE",
"150 796 CURVE SMOOTH",
"153 805 OFFCURVE",
"157 810 OFFCURVE",
"160 810 CURVE SMOOTH",
"163 810 OFFCURVE",
"165 808 OFFCURVE",
"165 803 CURVE SMOOTH",
"164 793 LINE SMOOTH",
"164 788 OFFCURVE",
"166 783 OFFCURVE",
"169 777 CURVE SMOOTH",
"172 771 OFFCURVE",
"178 770 OFFCURVE",
"185 774 CURVE SMOOTH",
"192 778 OFFCURVE",
"197 789 OFFCURVE",
"203 807 CURVE SMOOTH"
);
},
{
closed = 1;
nodes = (
"206 593 OFFCURVE",
"197 637 OFFCURVE",
"195 652 CURVE SMOOTH",
"193 667 OFFCURVE",
"194 678 OFFCURVE",
"197 682 CURVE SMOOTH",
"213 708 LINE SMOOTH",
"217 714 OFFCURVE",
"220 712 OFFCURVE",
"222 704 CURVE",
"222 704 OFFCURVE",
"226 678 OFFCURVE",
"234 625 CURVE SMOOTH",
"242 572 OFFCURVE",
"250 538 OFFCURVE",
"259 525 CURVE SMOOTH",
"275 500 OFFCURVE",
"294 492 OFFCURVE",
"318 499 CURVE",
"318 508 OFFCURVE",
"312 536 OFFCURVE",
"301 584 CURVE SMOOTH",
"290 632 OFFCURVE",
"284 659 OFFCURVE",
"283 666 CURVE SMOOTH",
"282 673 OFFCURVE",
"283 678 OFFCURVE",
"285 682 CURVE SMOOTH",
"299 706 LINE SMOOTH",
"302 711 OFFCURVE",
"305 709 OFFCURVE",
"308 700 CURVE",
"336 568 LINE",
"342 538 OFFCURVE",
"345 516 OFFCURVE",
"343 500 CURVE SMOOTH",
"338 455 OFFCURVE",
"325 433 OFFCURVE",
"304 433 CURVE SMOOTH",
"287 433 OFFCURVE",
"274 437 OFFCURVE",
"264 447 CURVE SMOOTH",
"254 457 OFFCURVE",
"243 471 OFFCURVE",
"233 490 CURVE",
"219 451 OFFCURVE",
"196 432 OFFCURVE",
"164 433 CURVE SMOOTH",
"132 434 OFFCURVE",
"113 453 OFFCURVE",
"107 490 CURVE",
"95 472 OFFCURVE",
"85 462 OFFCURVE",
"76 460 CURVE SMOOTH",
"46 453 OFFCURVE",
"22 457 OFFCURVE",
"4 469 CURVE",
"-2 474 OFFCURVE",
"-2 484 OFFCURVE",
"3 499 CURVE SMOOTH",
"8 514 OFFCURVE",
"20 530 OFFCURVE",
"38 546 CURVE SMOOTH",
"56 561 OFFCURVE",
"76 572 OFFCURVE",
"98 577 CURVE",
"97 604 LINE",
"97 604 LINE",
"97 614 OFFCURVE",
"104 630 OFFCURVE",
"118 650 CURVE SMOOTH",
"122 656 OFFCURVE",
"124 656 OFFCURVE",
"125 649 CURVE",
"125 640 OFFCURVE",
"125 617 OFFCURVE",
"126 583 CURVE SMOOTH",
"128 522 OFFCURVE",
"142 492 OFFCURVE",
"168 492 CURVE SMOOTH",
"194 492 OFFCURVE",
"213 501 OFFCURVE",
"221 520 CURVE"
);
},
{
closed = 1;
nodes = (
"93 548 OFFCURVE",
"81 545 OFFCURVE",
"68 538 CURVE SMOOTH",
"55 531 OFFCURVE",
"47 524 OFFCURVE",
"42 517 CURVE",
"49 512 OFFCURVE",
"59 510 OFFCURVE",
"73 511 CURVE SMOOTH",
"87 512 OFFCURVE",
"97 515 OFFCURVE",
"102 519 CURVE",
"101 524 OFFCURVE",
"101 534 OFFCURVE",
"100 550 CURVE"
);
},
{
closed = 1;
nodes = (
"94 365 LINE SMOOTH",
"94 373 OFFCURVE",
"96 378 OFFCURVE",
"100 382 CURVE SMOOTH",
"111 394 LINE SMOOTH",
"116 399 OFFCURVE",
"119 396 OFFCURVE",
"120 388 CURVE",
"120 385 OFFCURVE",
"121 364 OFFCURVE",
"125 324 CURVE SMOOTH",
"134 223 OFFCURVE",
"201 172 OFFCURVE",
"325 172 CURVE SMOOTH",
"434 172 OFFCURVE",
"511 192 OFFCURVE",
"556 229 CURVE",
"586 190 OFFCURVE",
"612 176 OFFCURVE",
"635 191 CURVE SMOOTH",
"658 206 OFFCURVE",
"672 225 OFFCURVE",
"678 248 CURVE",
"661 331 OFFCURVE",
"650 442 OFFCURVE",
"646 582 CURVE SMOOTH",
"646 587 OFFCURVE",
"648 592 OFFCURVE",
"651 598 CURVE SMOOTH",
"672 638 LINE SMOOTH",
"673 639 OFFCURVE",
"674 640 OFFCURVE",
"676 641 CURVE",
"677 641 OFFCURVE",
"678 639 OFFCURVE",
"678 635 CURVE SMOOTH",
"686 478 OFFCURVE",
"694 377 OFFCURVE",
"700 333 CURVE SMOOTH",
"712 241 OFFCURVE",
"750 193 OFFCURVE",
"813 187 CURVE",
"801 204 OFFCURVE",
"795 225 OFFCURVE",
"795 250 CURVE SMOOTH",
"795 275 OFFCURVE",
"805 298 OFFCURVE",
"827 319 CURVE SMOOTH",
"875 366 OFFCURVE",
"921 364 OFFCURVE",
"966 314 CURVE SMOOTH",
"970 310 OFFCURVE",
"971 305 OFFCURVE",
"968 301 CURVE",
"965 297 OFFCURVE",
"962 296 OFFCURVE",
"957 298 CURVE SMOOTH",
"921 310 OFFCURVE",
"885 310 OFFCURVE",
"850 298 CURVE SMOOTH",
"832 291 OFFCURVE",
"823 283 OFFCURVE",
"823 274 CURVE SMOOTH",
"823 265 OFFCURVE",
"829 250 OFFCURVE",
"842 229 CURVE SMOOTH",
"855 208 OFFCURVE",
"871 199 OFFCURVE",
"891 199 CURVE SMOOTH",
"923 200 OFFCURVE",
"960 212 OFFCURVE",
"1000 236 CURVE SMOOTH",
"1023 249 OFFCURVE",
"1031 250 OFFCURVE",
"1025 237 CURVE",
"1009 199 LINE",
"1007 193 OFFCURVE",
"999 186 OFFCURVE",
"983 177 CURVE SMOOTH",
"928 147 OFFCURVE",
"869 134 OFFCURVE",
"808 135 CURVE SMOOTH",
"747 136 OFFCURVE",
"707 164 OFFCURVE",
"688 218 CURVE",
"685 211 OFFCURVE",
"680 201 OFFCURVE",
"673 190 CURVE SMOOTH",
"645 147 OFFCURVE",
"619 129 OFFCURVE",
"594 135 CURVE SMOOTH",
"577 140 OFFCURVE",
"560 151 OFFCURVE",
"542 170 CURVE",
"492 138 OFFCURVE",
"419 122 OFFCURVE",
"325 122 CURVE SMOOTH",
"212 122 OFFCURVE",
"142 159 OFFCURVE",
"116 233 CURVE",
"106 213 OFFCURVE",
"94 201 OFFCURVE",
"82 196 CURVE SMOOTH",
"70 191 OFFCURVE",
"57 190 OFFCURVE",
"42 193 CURVE SMOOTH",
"15 198 OFFCURVE",
"1 208 OFFCURVE",
"0 222 CURVE",
"0 229 OFFCURVE",
"4 239 OFFCURVE",
"11 253 CURVE SMOOTH",
"18 267 OFFCURVE",
"23 276 OFFCURVE",
"27 280 CURVE SMOOTH",
"43 299 OFFCURVE",
"66 315 OFFCURVE",
"96 330 CURVE"
);
},
{
closed = 1;
nodes = (
"38 248 OFFCURVE",
"49 246 OFFCURVE",
"70 246 CURVE SMOOTH",
"91 246 OFFCURVE",
"103 249 OFFCURVE",
"109 254 CURVE",
"106 264 OFFCURVE",
"103 278 OFFCURVE",
"100 296 CURVE",
"63 286 OFFCURVE",
"42 272 OFFCURVE",
"36 255 CURVE"
);
},
{
closed = 1;
nodes = (
"499 102 OFFCURVE",
"503 101 OFFCURVE",
"512 98 CURVE SMOOTH",
"520 95 OFFCURVE",
"530 88 OFFCURVE",
"542 78 CURVE",
"543 76 OFFCURVE",
"543 75 OFFCURVE",
"543 73 CURVE",
"516 31 LINE SMOOTH",
"515 30 OFFCURVE",
"514 30 OFFCURVE",
"511 32 CURVE SMOOTH",
"509 34 OFFCURVE",
"498 41 OFFCURVE",
"479 52 CURVE",
"458 18 LINE SMOOTH",
"458 19 OFFCURVE",
"456 20 OFFCURVE",
"452 19 CURVE SMOOTH",
"443 18 OFFCURVE",
"430 27 OFFCURVE",
"413 44 CURVE SMOOTH",
"412 45 OFFCURVE",
"412 46 OFFCURVE",
"412 47 CURVE",
"439 87 LINE SMOOTH",
"440 88 OFFCURVE",
"445 88 OFFCURVE",
"452 86 CURVE SMOOTH",
"459 84 OFFCURVE",
"468 79 OFFCURVE",
"478 71 CURVE",
"498 101 LINE SMOOTH"
);
},
{
closed = 1;
nodes = (
"812 -111 OFFCURVE",
"817 -110 OFFCURVE",
"826 -111 CURVE SMOOTH",
"835 -112 OFFCURVE",
"846 -112 OFFCURVE",
"859 -112 CURVE SMOOTH",
"872 -112 OFFCURVE",
"887 -111 OFFCURVE",
"903 -107 CURVE SMOOTH",
"919 -103 OFFCURVE",
"942 -88 OFFCURVE",
"972 -62 CURVE SMOOTH",
"1002 -36 OFFCURVE",
"1019 -14 OFFCURVE",
"1025 4 CURVE",
"1023 19 OFFCURVE",
"1021 28 OFFCURVE",
"1018 30 CURVE",
"1009 15 OFFCURVE",
"999 8 OFFCURVE",
"990 8 CURVE",
"960 8 OFFCURVE",
"944 22 OFFCURVE",
"944 50 CURVE SMOOTH",
"944 62 OFFCURVE",
"947 78 OFFCURVE",
"954 96 CURVE SMOOTH",
"967 132 OFFCURVE",
"982 150 OFFCURVE",
"1000 150 CURVE SMOOTH",
"1010 150 OFFCURVE",
"1021 141 OFFCURVE",
"1032 124 CURVE SMOOTH",
"1043 107 OFFCURVE",
"1049 87 OFFCURVE",
"1049 67 CURVE SMOOTH",
"1049 5 OFFCURVE",
"1029 -47 OFFCURVE",
"990 -92 CURVE SMOOTH",
"966 -120 OFFCURVE",
"945 -135 OFFCURVE",
"928 -136 CURVE SMOOTH",
"911 -137 OFFCURVE",
"888 -136 OFFCURVE",
"858 -131 CURVE SMOOTH",
"828 -126 OFFCURVE",
"812 -121 OFFCURVE",
"812 -115 CURVE SMOOTH",
"812 -113 LINE"
);
},
{
closed = 1;
nodes = (
"993 93 OFFCURVE",
"982 94 OFFCURVE",
"970 78 CURVE",
"979 68 OFFCURVE",
"990 67 OFFCURVE",
"1004 75 CURVE SMOOTH"
);
},
{
closed = 1;
nodes = (
"885 22 OFFCURVE",
"886 35 OFFCURVE",
"879 59 CURVE",
"879 69 OFFCURVE",
"881 77 OFFCURVE",
"888 83 CURVE SMOOTH",
"895 89 OFFCURVE",
"899 91 OFFCURVE",
"902 86 CURVE SMOOTH",
"905 81 OFFCURVE",
"906 71 OFFCURVE",
"906 56 CURVE SMOOTH",
"906 41 OFFCURVE",
"905 28 OFFCURVE",
"902 16 CURVE SMOOTH",
"895 -14 OFFCURVE",
"885 -29 OFFCURVE",
"873 -30 CURVE",
"869 -30 LINE SMOOTH",
"844 -30 OFFCURVE",
"822 -21 OFFCURVE",
"803 -2 CURVE",
"787 -39 OFFCURVE",
"765 -59 OFFCURVE",
"736 -60 CURVE",
"717 -60 OFFCURVE",
"698 -49 OFFCURVE",
"678 -29 CURVE",
"628 -57 OFFCURVE",
"558 -70 OFFCURVE",
"470 -70 CURVE SMOOTH",
"319 -70 OFFCURVE",
"233 -19 OFFCURVE",
"212 84 CURVE",
"210 52 OFFCURVE",
"202 29 OFFCURVE",
"189 12 CURVE",
"206 5 OFFCURVE",
"219 -5 OFFCURVE",
"226 -19 CURVE SMOOTH",
"233 -33 OFFCURVE",
"229 -55 OFFCURVE",
"214 -86 CURVE",
"210 -93 OFFCURVE",
"203 -96 OFFCURVE",
"192 -96 CURVE SMOOTH",
"191 -96 LINE",
"168 -96 OFFCURVE",
"148 -89 OFFCURVE",
"131 -77 CURVE",
"124 -100 OFFCURVE",
"114 -115 OFFCURVE",
"101 -122 CURVE SMOOTH",
"72 -137 OFFCURVE",
"41 -143 OFFCURVE",
"8 -140 CURVE SMOOTH",
"3 -140 OFFCURVE",
"0 -138 OFFCURVE",
"0 -134 CURVE",
"0 -132 OFFCURVE",
"2 -130 OFFCURVE",
"6 -128 CURVE SMOOTH",
"80 -98 OFFCURVE",
"117 -74 OFFCURVE",
"117 -54 CURVE SMOOTH",
"117 -45 LINE SMOOTH",
"117 -19 OFFCURVE",
"124 -1 OFFCURVE",
"138 9 CURVE SMOOTH",
"146 15 OFFCURVE",
"154 18 OFFCURVE",
"161 19 CURVE",
"188 38 OFFCURVE",
"201 69 OFFCURVE",
"201 114 CURVE SMOOTH",
"201 122 LINE",
"184 304 LINE",
"184 305 LINE SMOOTH",
"184 308 OFFCURVE",
"185 311 OFFCURVE",
"187 316 CURVE SMOOTH",
"199 340 LINE SMOOTH",
"201 344 OFFCURVE",
"204 346 OFFCURVE",
"206 346 CURVE SMOOTH",
"208 346 OFFCURVE",
"212 323 OFFCURVE",
"216 277 CURVE SMOOTH",
"220 231 OFFCURVE",
"224 198 OFFCURVE",
"227 177 CURVE SMOOTH",
"234 122 OFFCURVE",
"247 79 OFFCURVE",
"267 50 CURVE",
"301 3 OFFCURVE",
"371 -20 OFFCURVE",
"477 -20 CURVE SMOOTH",
"583 -20 OFFCURVE",
"660 -2 OFFCURVE",
"708 33 CURVE SMOOTH",
"713 37 OFFCURVE",
"716 37 OFFCURVE",
"718 34 CURVE SMOOTH",
"721 30 OFFCURVE",
"717 23 OFFCURVE",
"707 13 CURVE",
"718 0 OFFCURVE",
"733 -6 OFFCURVE",
"753 -5 CURVE",
"771 -3 OFFCURVE",
"791 22 OFFCURVE",
"816 71 CURVE SMOOTH",
"817 73 OFFCURVE",
"819 75 OFFCURVE",
"823 75 CURVE",
"827 75 OFFCURVE",
"829 72 OFFCURVE",
"829 67 CURVE",
"823 43 LINE",
"836 29 OFFCURVE",
"854 22 OFFCURVE",
"874 21 CURVE"
);
},
{
closed = 1;
nodes = (
"195 -28 OFFCURVE",
"177 -16 OFFCURVE",
"152 -16 CURVE SMOOTH",
"144 -16 OFFCURVE",
"137 -19 OFFCURVE",
"132 -26 CURVE",
"156 -43 OFFCURVE",
"181 -51 OFFCURVE",
"208 -52 CURVE"
);
},
{
closed = 1;
nodes = (
"836 821 OFFCURVE",
"839 818 OFFCURVE",
"833 808 CURVE SMOOTH",
"823 791 LINE SMOOTH",
"820 786 OFFCURVE",
"784 772 OFFCURVE",
"715 749 CURVE SMOOTH",
"647 726 OFFCURVE",
"601 710 OFFCURVE",
"577 702 CURVE SMOOTH",
"566 698 OFFCURVE",
"565 702 OFFCURVE",
"573 713 CURVE SMOOTH",
"580 723 LINE SMOOTH",
"585 730 OFFCURVE",
"590 734 OFFCURVE",
"597 737 CURVE SMOOTH",
"823 816 LINE SMOOTH"
);
},
{
closed = 1;
nodes = (
"1054 765 OFFCURVE",
"1057 761 OFFCURVE",
"1051 751 CURVE SMOOTH",
"1041 735 LINE SMOOTH",
"1038 730 OFFCURVE",
"1002 716 OFFCURVE",
"933 693 CURVE SMOOTH",
"865 670 OFFCURVE",
"818 654 OFFCURVE",
"794 646 CURVE SMOOTH",
"783 642 OFFCURVE",
"782 646 OFFCURVE",
"790 657 CURVE SMOOTH",
"797 667 LINE SMOOTH",
"802 674 OFFCURVE",
"807 679 OFFCURVE",
"814 681 CURVE SMOOTH",
"1041 760 LINE SMOOTH"
);
}
);
width = 1055;
}
);
unicode = FDFA;
},
